#N canvas 614 346 713 418 12;
#X obj 13 21 inlet~;
#X obj 68 21 inlet~;
#X obj 232 21 inlet;
#X text 278 20 note division;
#X obj 392 21 inlet;
#X text 435 23 feedback;
#X text 509 80 arg1: receive name for tempo;
#N canvas 0 25 450 300 calculate-time 0;
#X obj 41 21 inlet;
#X obj 141 54 swap 60000;
#X obj 141 78 /, f 10;
#X obj 141 102 * 4;
#X text 182 102 whole note in ms;
#X obj 141 25 r \$1;
#X obj 41 151 f;
#X obj 41 192 /, f 7;
#X obj 41 216 outlet;
#X obj 41 45 t b a;
#X connect 0 0 9 0;
#X connect 1 0 2 0;
#X connect 1 1 2 1;
#X connect 2 0 3 0;
#X connect 3 0 6 0;
#X connect 5 0 1 0;
#X connect 6 0 7 0;
#X connect 7 0 8 0;
#X connect 9 0 6 0;
#X connect 9 1 7 1;
#X restore 232 68 pd calculate-time;
#X obj 13 375 outlet~;
#X obj 280 376 outlet~;
#X obj 13 125 delwrite~ \$0-dL 5000;
#X obj 68 85 delwrite~ \$0-dR 5000;
#X obj 15 246 delread4~ \$0-dL;
#X obj 232 92 s \$0-time;
#X obj 15 170 r \$0-time;
#X obj 15 194 pack 0 20;
#X obj 15 218 line~;
#X obj 392 45 min 0.99;
#X obj 392 69 max 0;
#X obj 392 103 s \$0-fb;
#X obj 279 174 r \$0-time;
#X obj 279 198 pack 0 20;
#X obj 279 222 line~;
#X obj 279 250 delread4~ \$0-dR;
#X obj 94 165 r \$0-fb;
#X obj 94 190 pack 0 20;
#X obj 94 214 line~;
#X obj 69 295 *~;
#X obj 311 304 *~;
#X obj 411 203 r \$0-fb;
#X obj 411 228 pack 0 20;
#X obj 411 252 line~;
#X floatatom 320 98 5 0 0 0 - - -;
#X connect 0 0 10 0;
#X connect 1 0 11 0;
#X connect 2 0 7 0;
#X connect 4 0 17 0;
#X connect 7 0 13 0;
#X connect 7 0 32 0;
#X connect 12 0 27 0;
#X connect 12 0 8 0;
#X connect 14 0 15 0;
#X connect 15 0 16 0;
#X connect 16 0 12 0;
#X connect 17 0 18 0;
#X connect 18 0 19 0;
#X connect 20 0 21 0;
#X connect 21 0 22 0;
#X connect 22 0 23 0;
#X connect 23 0 9 0;
#X connect 23 0 28 0;
#X connect 24 0 25 0;
#X connect 25 0 26 0;
#X connect 26 0 27 1;
#X connect 27 0 10 0;
#X connect 28 0 11 0;
#X connect 29 0 30 0;
#X connect 30 0 31 0;
#X connect 31 0 28 1;
