#N canvas 421 172 450 300 12;
#X obj 19 13 inlet;
#X text 71 12 0 1;
#X obj 19 55 sel 0 1, f 29;
#X text 219 29 Arg1 : time for hold to activate;
#X obj 183 190 delay \$1;
#X msg 211 138 stop;
#X obj 183 261 outlet;
#X text 234 261 hold;
#X obj 20 251 outlet;
#X obj 119 92 t b b b;
#X obj 119 127 1;
#X obj 19 99 t b b;
#X obj 19 202 spigot;
#X obj 183 214 t b b;
#X obj 110 189 0;
#X connect 0 0 2 0;
#X connect 2 0 11 0;
#X connect 2 1 9 0;
#X connect 4 0 13 0;
#X connect 5 0 4 0;
#X connect 9 0 10 0;
#X connect 9 1 4 0;
#X connect 9 2 5 0;
#X connect 10 0 12 1;
#X connect 11 0 12 0;
#X connect 11 1 5 0;
#X connect 12 0 8 0;
#X connect 13 0 6 0;
#X connect 13 1 14 0;
#X connect 14 0 12 1;
