#N canvas 42 312 881 545 12;
#X obj 17 20 inlet;
#X obj 214 33 inlet;
#N canvas 4 50 731 575 messages 0;
#X obj 37 37 inlet;
#X obj 37 61 route in chunk sample-size, f 33;
#X obj 37 85 clip 0 1;
#X obj 103 85 clip 0 1;
#X obj 37 109 s \$0-in;
#X obj 103 109 s \$0-chunk;
#X obj 199 243 s \$0-size;
#X obj 222 214 s \$0-size-ms;
#X obj 222 182 / 44.1;
#X obj 199 99 t a a b;
#X obj 261 127 samplerate~;
#X obj 261 151 / 1000;
#X obj 380 218 s \$0-speed;
#X obj 476 222 s \$0-set;
#X obj 380 164 route speed set loop, f 33;
#X obj 533 194 s \$0-loop;
#X connect 0 0 1 0;
#X connect 1 0 2 0;
#X connect 1 1 3 0;
#X connect 1 2 9 0;
#X connect 1 3 14 0;
#X connect 2 0 4 0;
#X connect 3 0 5 0;
#X connect 8 0 7 0;
#X connect 9 0 6 0;
#X connect 9 1 8 0;
#X connect 9 2 10 0;
#X connect 10 0 11 0;
#X connect 11 0 8 1;
#X connect 14 0 12 0;
#X connect 14 1 13 0;
#X connect 14 2 15 0;
#X restore 214 57 pd messages;
#X text 64 22 velocity 0 - 127;
#X obj 17 44 sel 0;
#X obj 49 70 t b;
#X obj 17 128 s \$0-stop;
#X obj 49 99 s \$0-start;
#N canvas 1130 242 445 703 calculate-hz 0;
#X obj 22 12 r \$0-start;
#X obj 64 47 r \$0-size-ms;
#X text 93 282 convert to hz;
#X obj 22 279 swap 1000;
#X obj 22 313 /, f 9;
#X obj 22 105 f 1000, f 11;
#X obj 50 165 r \$0-chunk;
#X obj 22 233 * 1, f 9;
#X obj 22 394 outlet;
#X obj 50 189 t b a;
#X obj 64 71 t b a;
#X connect 0 0 5 0;
#X connect 1 0 10 0;
#X connect 3 0 4 0;
#X connect 3 1 4 1;
#X connect 4 0 8 0;
#X connect 5 0 7 0;
#X connect 6 0 9 0;
#X connect 7 0 3 0;
#X connect 9 0 7 0;
#X connect 9 1 7 1;
#X connect 10 0 5 0;
#X connect 10 1 5 1;
#X restore 170 145 pd calculate-hz;
#X text 515 22 Arg1: 0 = Loop \, 1 = One Shot;
#N canvas 63 235 854 689 one-shot/Loop-phasor 0;
#X obj 158 534 phasor~;
#X obj 343 374 samphold~;
#X obj 344 285 sig~ 0;
#X obj 157 15 inlet;
#X obj 158 608 outlet~;
#X obj 159 434 *~;
#X obj 221 19 r \$0-start;
#X obj 494 152 list trim;
#X obj 217 585 s~ \$0-phase;
#X obj 157 129 sig~;
#X obj 217 155 r~ \$0-phase;
#X obj 158 183 samphold~;
#X obj 177 213 r \$0-speed;
#X obj 158 297 *~;
#X obj 177 237 pack 0 10;
#X obj 177 261 line~;
#X obj 494 128 list prepend set 1;
#X obj 405 316 r~ \$0-phase;
#X obj 203 109 list trim;
#X obj 221 51 t b b b b b, f 30;
#X obj 353 122 i 1;
#X obj 416 122 i 0;
#X obj 289 118 del 3;
#X obj 313 175 i 0;
#X obj 404 345 *~ \$1;
#X obj 203 80 list prepend reset;
#X obj 455 345 r \$0-loop;
#X connect 0 0 4 0;
#X connect 0 0 8 0;
#X connect 1 0 5 1;
#X connect 2 0 1 0;
#X connect 3 0 9 0;
#X connect 5 0 0 0;
#X connect 6 0 19 0;
#X connect 7 0 1 0;
#X connect 9 0 11 0;
#X connect 10 0 11 1;
#X connect 11 0 13 0;
#X connect 12 0 14 0;
#X connect 13 0 5 0;
#X connect 14 0 15 0;
#X connect 15 0 13 1;
#X connect 16 0 7 0;
#X connect 17 0 24 0;
#X connect 18 0 11 0;
#X connect 19 0 25 0;
#X connect 19 1 22 0;
#X connect 19 2 20 0;
#X connect 19 3 21 0;
#X connect 19 4 16 0;
#X connect 20 0 2 0;
#X connect 21 0 0 1;
#X connect 22 0 23 0;
#X connect 23 0 2 0;
#X connect 24 0 1 1;
#X connect 25 0 18 0;
#X connect 26 0 24 1;
#X restore 170 190 pd one-shot/Loop-phasor;
#N canvas 4 50 960 931 scale-loop 0;
#X obj 37 37 inlet~;
#X obj 37 472 *~;
#X obj 55 416 r \$0-size;
#X obj 55 440 - 2;
#X obj 37 496 +~ 1;
#X obj 56 78 r \$0-chunk;
#X obj 56 102 sig~;
#X obj 114 113 r~ \$0-phase;
#X obj 55 141 samphold~;
#X obj 55 226 sig~;
#X obj 113 237 r~ \$0-phase;
#X obj 54 265 samphold~;
#X obj 55 202 r \$0-in;
#X obj 37 171 *~;
#X obj 36 297 +~;
#X obj 36 351 wrap~;
#X obj 51 388 s~ \$0-wrap-phase;
#X obj 37 550 tabread4~;
#X obj 139 458 r \$0-set;
#X obj 139 482 list prepend set;
#X obj 139 506 list trim;
#X obj 40 803 outlet~;
#X obj 38 684 *~, f 23;
#N canvas 365 91 369 523 env-phase 0;
#X obj 103 362 outlet~;
#X obj 103 211 -~ 0.5;
#X obj 103 235 *~ 0.5;
#X obj 103 263 cos~;
#X obj 103 315 clip~ 0 1;
#X obj 103 288 *~ 100;
#X obj 103 173 inlet~;
#X connect 1 0 2 0;
#X connect 2 0 3 0;
#X connect 3 0 5 0;
#X connect 4 0 0 0;
#X connect 5 0 4 0;
#X connect 6 0 1 0;
#X restore 195 647 pd env-phase;
#X obj 38 615 *~, f 16;
#N canvas 4 50 450 300 avoid-clks-og-sample 0;
#X obj 94 91 -~ 0.5;
#X obj 94 115 *~ 0.5;
#X obj 94 138 cos~;
#X obj 94 180 clip~ 0 1;
#X text 55 43 avoids clicks in original sample;
#X obj 94 201 outlet~;
#X obj 94 159 *~ 100;
#X obj 94 67 inlet~;
#X connect 0 0 1 0;
#X connect 1 0 2 0;
#X connect 2 0 6 0;
#X connect 3 0 5 0;
#X connect 6 0 3 0;
#X connect 7 0 0 0;
#X restore 147 584 pd avoid-clks-og-sample;
#X obj 39 733 *~, f 43;
#X obj 428 327 t a;
#X obj 336 650 vline~;
#X obj 585 105 r \$0-stop;
#X obj 585 130 t b b;
#N canvas 4 50 450 300 stop-dsp 0;
#X obj 62 22 inlet;
#X msg 108 86 stop;
#X obj 62 46 t b a b;
#X obj 216 29 inlet;
#X text 263 29 stop;
#X obj 216 53 t b;
#X obj 62 160 outlet;
#X obj 62 136 del 3;
#X connect 0 0 2 0;
#X connect 1 0 7 0;
#X connect 2 0 7 0;
#X connect 2 1 7 1;
#X connect 2 2 1 0;
#X connect 3 0 5 0;
#X connect 5 0 1 0;
#X connect 7 0 6 0;
#X restore 652 187 pd stop-dsp;
#X obj 389 119 t b b b;
#X obj 435 151 s \$0-stop-delay;
#X obj 726 154 r \$0-stop-delay;
#X obj 336 683 *~;
#X msg 389 275 1 3;
#X msg 585 173 0 3;
#X obj 652 159 i 3;
#X obj 598 234 i 1;
#X obj 652 231 i 0;
#X obj 195 618 r~ \$0-phase;
#X obj 148 555 r~ \$0-wrap-phase;
#X obj 598 281 outlet;
#X obj 389 55 r \$0-start;
#X obj 150 22 r \$0-start;
#X obj 150 79 list trim;
#X obj 150 50 list prepend reset;
#X obj 130 147 r \$0-start;
#X obj 130 204 list trim;
#X obj 130 175 list prepend reset;
#X connect 0 0 13 0;
#X connect 1 0 4 0;
#X connect 2 0 3 0;
#X connect 3 0 1 1;
#X connect 4 0 17 0;
#X connect 5 0 6 0;
#X connect 6 0 8 0;
#X connect 7 0 8 1;
#X connect 8 0 13 1;
#X connect 9 0 11 0;
#X connect 10 0 11 1;
#X connect 11 0 14 1;
#X connect 12 0 9 0;
#X connect 13 0 14 0;
#X connect 14 0 15 0;
#X connect 15 0 1 0;
#X connect 15 0 16 0;
#X connect 17 0 24 0;
#X connect 18 0 19 0;
#X connect 19 0 20 0;
#X connect 20 0 17 0;
#X connect 22 0 26 0;
#X connect 23 0 22 1;
#X connect 24 0 22 0;
#X connect 25 0 24 1;
#X connect 26 0 21 0;
#X connect 27 0 28 0;
#X connect 28 0 35 0;
#X connect 28 0 35 1;
#X connect 29 0 30 0;
#X connect 30 0 37 0;
#X connect 30 1 38 0;
#X connect 31 0 40 0;
#X connect 32 0 36 0;
#X connect 32 1 39 0;
#X connect 32 2 33 0;
#X connect 34 0 31 1;
#X connect 35 0 26 1;
#X connect 36 0 27 0;
#X connect 37 0 27 0;
#X connect 38 0 31 0;
#X connect 39 0 43 0;
#X connect 40 0 43 0;
#X connect 41 0 23 0;
#X connect 42 0 25 0;
#X connect 44 0 32 0;
#X connect 45 0 47 0;
#X connect 46 0 8 0;
#X connect 47 0 46 0;
#X connect 48 0 50 0;
#X connect 49 0 11 0;
#X connect 50 0 49 0;
#X restore 170 234 pd scale-loop;
#X obj 170 258 hip~ 5;
#X obj 170 332 outlet~;
#X obj 323 301 switch~;
#X connect 0 0 4 0;
#X connect 1 0 2 0;
#X connect 4 0 6 0;
#X connect 4 1 5 0;
#X connect 5 0 7 0;
#X connect 8 0 10 0;
#X connect 10 0 11 0;
#X connect 11 0 12 0;
#X connect 11 1 14 0;
#X connect 12 0 13 0;
