#N canvas 682 75 430 388 12;
#X obj 95 230 vline~;
#X obj 95 60 / 127;
#X obj 95 9 inlet;
#X text 136 9 vel;
#X obj 95 323 outlet~;
#X obj 95 254 pow~ 0.5;
#X obj 95 86 clip 0 1;
#X obj 95 140 pow 2;
#X obj 239 237 vline~;
#X obj 239 261 pow~ 2;
#X obj 239 147 sqrt;
#X obj 95 110 t a a, f 21;
#X obj 95 171 pack 0 \$1 \$2;
#X obj 239 172 pack 0 \$1 \$2;
#X msg 95 195 \$1 \$2 \, 0 0 \$2;
#X obj 95 278 +~;
#X msg 240 202 0 0 \, \$1 0 \$2 \, 0 \$3 \$2;
#X obj 216 30 inlet;
#X obj 216 54 t a a;
#X obj 287 31 inlet;
#X obj 287 55 t a a;
#X connect 0 0 5 0;
#X connect 1 0 6 0;
#X connect 2 0 1 0;
#X connect 5 0 15 0;
#X connect 6 0 11 0;
#X connect 7 0 12 0;
#X connect 8 0 9 0;
#X connect 9 0 15 1;
#X connect 10 0 13 0;
#X connect 11 0 7 0;
#X connect 11 1 10 0;
#X connect 12 0 14 0;
#X connect 13 0 16 0;
#X connect 14 0 0 0;
#X connect 15 0 4 0;
#X connect 16 0 8 0;
#X connect 17 0 18 0;
#X connect 18 0 12 1;
#X connect 18 1 13 1;
#X connect 19 0 20 0;
#X connect 20 0 12 2;
#X connect 20 1 13 2;
