#N canvas 433 50 989 604 12;
#X obj 33 21 inlet;
#X text 81 24 messages;
#X obj 212 299 soundfiler;
#X obj 398 66 array define \$1-\$2-L;
#X obj 398 95 array define \$1-\$2-R;
#X text 550 64 default mono;
#X obj 212 269 list trim;
#X obj 212 245 list append \$1-\$2-L \$1-\$2-R;
#X obj 212 221 list prepend read -resize;
#X obj 33 45 route 1 2, f 18;
#X obj 22 268 list trim;
#X obj 22 220 list prepend read -resize;
#X obj 22 244 list append \$1-\$2-L;
#X obj 228 173 v \$1-\$2-stereo;
#X obj 33 109 t a b;
#X obj 174 86 t a b;
#X obj 228 140 2;
#X obj 71 144 1;
#X connect 0 0 9 0;
#X connect 6 0 2 0;
#X connect 7 0 6 0;
#X connect 8 0 7 0;
#X connect 9 0 14 0;
#X connect 9 1 15 0;
#X connect 10 0 2 0;
#X connect 11 0 12 0;
#X connect 12 0 10 0;
#X connect 14 0 11 0;
#X connect 14 1 17 0;
#X connect 15 0 8 0;
#X connect 15 1 16 0;
#X connect 16 0 13 0;
#X connect 17 0 13 0;
