#N canvas 577 75 989 604 12;
#X obj 33 21 inlet;
#X text 81 24 messages;
#X obj 33 256 soundfiler;
#X obj 398 66 array define \$1-\$2-L;
#X obj 398 95 array define \$1-\$2-R;
#X text 550 64 default mono;
#X obj 33 226 list trim;
#X obj 33 202 list append \$1-\$2-L \$1-\$2-R;
#X obj 33 178 list prepend read -resize;
#X obj 33 338 v \$1-\$2-length;
#X obj 33 45 t a a;
#X obj 145 299 unpack 0 0 0 0 s;
#X obj 199 338 v \$1-\$2-channels;
#X connect 0 0 10 0;
#X connect 2 0 9 0;
#X connect 2 1 11 0;
#X connect 6 0 2 0;
#X connect 7 0 6 0;
#X connect 8 0 7 0;
#X connect 10 0 8 0;
#X connect 11 2 12 0;
