#N canvas 754 338 776 414 12;
#X obj 34 19 inlet;
#X text 324 19 messages;
#X obj 281 18 inlet;
#X obj 40 278 vline~;
#N canvas 443 276 828 572 get-length 1;
#X obj 35 41 v \$0-samples;
#X obj 35 153 / 44.1;
#X obj 74 98 samplerate~;
#X obj 74 122 / 1000;
#X obj 35 65 t a b;
#X obj 35 6 inlet;
#X text 87 154 convert to ms;
#X obj 63 185 r \$0-length;
#X obj 63 209 t b a;
#X obj 35 420 outlet~;
#X obj 35 257 * 1, f 9;
#N canvas 473 274 450 300 one-shot 0;
#X obj 71 219 s \$0-stop;
#X obj 103 132 - 5;
#X obj 71 163 delay;
#X msg 160 103 stop;
#X obj 71 62 t b a b;
#X obj 71 7 inlet;
#X obj 265 17 inlet;
#X obj 265 41 t b;
#X connect 1 0 2 1;
#X connect 2 0 0 0;
#X connect 3 0 2 0;
#X connect 4 0 2 0;
#X connect 4 1 1 0;
#X connect 4 2 3 0;
#X connect 5 0 4 0;
#X connect 6 0 7 0;
#X connect 7 0 3 0;
#X restore 396 462 pd one-shot;
#X obj 411 226 samphold~;
#X obj 62 293 r \$0-speed;
#X obj 62 317 t b a;
#X obj 35 353 / 1, f 9;
#X connect 0 0 4 0;
#X connect 1 0 10 0;
#X connect 2 0 3 0;
#X connect 3 0 1 1;
#X connect 4 0 1 0;
#X connect 4 1 2 0;
#X connect 5 0 0 0;
#X connect 7 0 8 0;
#X connect 8 0 10 0;
#X connect 8 1 10 1;
#X connect 10 0 15 0;
#X connect 13 0 14 0;
#X connect 14 0 15 0;
#X connect 14 1 15 1;
#X connect 15 0 9 0;
#X restore 66 175 pd get-length;
#X obj 34 43 sel 0;
#X obj 281 42 route array samples;
#N canvas 4 50 1066 891 phasor~ 1;
#X obj 49 332 phasor~;
#X obj 49 25 inlet;
#X obj 49 202 vline~;
#X obj 95 253 r \$0-restart;
#X obj 95 307 0;
#X obj 49 406 +~;
#X obj 67 376 r \$0-start;
#X obj 49 440 *~, f 8;
#X obj 102 407 r \$0-size;
#X obj 49 484 wrap~;
#X obj 49 538 *~, f 16;
#X obj 227 382 v \$0-samples;
#X obj 227 406 - 2;
#X obj 49 562 +~ 1;
#X obj 49 676 tabread4~ \$1;
#X obj 95 588 r \$0-array;
#X obj 95 612 list prepend set;
#X obj 95 636 list trim;
#X obj 49 730 *~, f 22;
#N canvas 365 91 369 523 env-phase 0;
#X obj 103 362 outlet~;
#X obj 103 211 -~ 0.5;
#X obj 103 235 *~ 0.5;
#X obj 103 263 cos~;
#X obj 103 315 clip~ 0 1;
#X obj 103 288 *~ 100;
#X obj 102 174 inlet~;
#X connect 1 0 2 0;
#X connect 2 0 3 0;
#X connect 3 0 5 0;
#X connect 4 0 0 0;
#X connect 5 0 4 0;
#X connect 6 0 1 0;
#X restore 458 605 pd env-phase;
#N canvas 4 50 450 300 avoid-clks-og-sample 0;
#X obj 94 91 -~ 0.5;
#X obj 94 115 *~ 0.5;
#X obj 94 138 cos~;
#X obj 94 180 clip~ 0 1;
#X text 55 43 avoids clicks in original sample;
#X obj 94 201 outlet~;
#X obj 94 159 *~ 100;
#X obj 94 67 inlet~;
#X connect 0 0 1 0;
#X connect 1 0 2 0;
#X connect 2 0 6 0;
#X connect 3 0 5 0;
#X connect 6 0 3 0;
#X connect 7 0 0 0;
#X restore 265 607 pd avoid-clks-og-sample;
#X obj 49 700 *~, f 16;
#X obj 49 754 *~, f 33;
#X obj 49 778 hip~ 4;
#X obj 49 802 outlet~;
#X obj 588 584 vline~;
#X obj 588 628 *~;
#X obj 588 550 pack 0 5;
#X obj 95 277 t b b b, f 16;
#X obj 753 255 r \$0-stop;
#X obj 761 435 switch~;
#X obj 765 384 1;
#X obj 753 280 t b b;
#N canvas 4 50 450 300 stop-dsp 0;
#X obj 62 22 inlet;
#X msg 108 86 stop;
#X obj 62 136 del 8;
#X obj 62 46 t b a b;
#X obj 216 29 inlet;
#X text 263 29 stop;
#X obj 216 53 t b;
#X obj 62 160 outlet;
#X connect 0 0 3 0;
#X connect 1 0 2 0;
#X connect 2 0 7 0;
#X connect 3 0 2 0;
#X connect 3 1 2 1;
#X connect 3 2 1 0;
#X connect 4 0 6 0;
#X connect 6 0 1 0;
#X restore 820 337 pd stop-dsp;
#X obj 800 393 0;
#X obj 557 269 t b b b;
#X obj 603 301 s \$0-stop-delay;
#X obj 894 304 r \$0-stop-delay;
#X obj 753 304 0;
#X obj 557 293 1;
#X obj 820 310 5;
#X msg 49 122 0 0 \, 1 \$1 0;
#X connect 0 0 5 0;
#X connect 0 0 19 0;
#X connect 1 0 41 0;
#X connect 2 0 0 0;
#X connect 3 0 28 0;
#X connect 4 0 0 1;
#X connect 5 0 7 0;
#X connect 6 0 5 1;
#X connect 7 0 9 0;
#X connect 8 0 7 1;
#X connect 9 0 10 0;
#X connect 9 0 20 0;
#X connect 10 0 13 0;
#X connect 11 0 12 0;
#X connect 12 0 10 1;
#X connect 13 0 14 0;
#X connect 14 0 21 0;
#X connect 15 0 16 0;
#X connect 16 0 17 0;
#X connect 17 0 14 0;
#X connect 18 0 22 0;
#X connect 19 0 18 1;
#X connect 20 0 21 1;
#X connect 21 0 18 0;
#X connect 22 0 23 0;
#X connect 23 0 24 0;
#X connect 25 0 26 0;
#X connect 25 0 26 1;
#X connect 26 0 22 1;
#X connect 27 0 25 0;
#X connect 28 0 4 0;
#X connect 28 1 11 0;
#X connect 28 2 35 0;
#X connect 29 0 32 0;
#X connect 31 0 30 0;
#X connect 32 0 38 0;
#X connect 32 1 40 0;
#X connect 33 0 34 0;
#X connect 34 0 30 0;
#X connect 35 0 39 0;
#X connect 35 1 31 0;
#X connect 35 2 36 0;
#X connect 37 0 33 1;
#X connect 38 0 27 0;
#X connect 39 0 27 0;
#X connect 40 0 33 0;
#X connect 41 0 2 0;
#X restore 66 208 pd phasor~;
#X obj 112 107 s \$0-pass;
#X obj 34 67 0;
#X obj 66 74 t b b a;
#X obj 89 140 s \$0-restart;
#X connect 0 0 5 0;
#X connect 2 0 6 0;
#X connect 5 0 9 0;
#X connect 5 1 10 0;
#X connect 9 0 8 0;
#X connect 10 0 4 0;
#X connect 10 1 11 0;
#X connect 10 2 8 0;
