#N canvas 415 73 999 971 12;
#X obj 44 546 *~, f 10;
#X obj 44 611 tabread4~;
#X obj 44 704 *~, f 23;
#X obj 43 294 phasor~, f 26;
#X obj 43 214 vline~;
#X obj 204 490 - 2;
#X obj 44 577 +~ 1;
#X obj 43 267 *~ 1, f 8;
#N canvas 4 50 450 300 size-change 0;
#X obj 139 40 r \$0-chunk-size;
#X obj 139 134 samphold~;
#X obj 139 207 outlet~;
#X obj 139 93 sig~ 1;
#X obj 199 99 inlet~;
#X connect 0 0 3 0;
#X connect 1 0 2 0;
#X connect 3 0 1 0;
#X connect 4 0 1 1;
#X restore 111 351 pd size-change;
#N canvas 4 50 450 300 start-change 0;
#X obj 139 40 r \$0-start-point;
#X obj 139 134 samphold~;
#X obj 139 177 outlet~;
#X obj 139 93 sig~ 0;
#X obj 199 99 inlet~;
#X connect 0 0 3 0;
#X connect 1 0 2 0;
#X connect 3 0 1 0;
#X connect 4 0 1 1;
#X restore 230 351 pd start-change;
#N canvas 365 91 369 523 env-phase 0;
#X obj 103 362 outlet~;
#X obj 103 211 -~ 0.5;
#X obj 103 235 *~ 0.5;
#X obj 103 263 cos~;
#X obj 103 315 clip~ 0 1;
#X obj 103 288 *~ 100;
#X obj 103 173 inlet~;
#X connect 1 0 2 0;
#X connect 2 0 3 0;
#X connect 3 0 5 0;
#X connect 4 0 0 0;
#X connect 5 0 4 0;
#X connect 6 0 1 0;
#X restore 431 617 pd env-phase;
#X obj 44 665 *~, f 16;
#N canvas 4 50 450 300 avoid-clks-og-sample 0;
#X obj 94 91 -~ 0.5;
#X obj 94 115 *~ 0.5;
#X obj 94 138 cos~;
#X obj 94 180 clip~ 0 1;
#X text 55 43 avoids clicks in original sample;
#X obj 94 201 outlet~;
#X obj 94 159 *~ 100;
#X obj 94 67 inlet~;
#X connect 0 0 1 0;
#X connect 1 0 2 0;
#X connect 2 0 6 0;
#X connect 3 0 5 0;
#X connect 6 0 3 0;
#X connect 7 0 0 0;
#X restore 241 614 pd avoid-clks-og-sample;
#X obj 44 436 wrap~;
#X obj 44 865 hip~ 4;
#X obj 44 903 outlet~;
#X obj 43 182 pack 0 0;
#X obj 96 240 r \$0-direction;
#X obj 96 153 r \$0-ramptime;
#X obj 43 13 inlet;
#X obj 46 773 *~, f 64;
#X obj 428 327 t a;
#X obj 587 586 vline~;
#X msg 585 173 0 8;
#N canvas 5 50 1294 692 messages 0;
#X obj 37 37 inlet;
#X obj 72 314 s \$0-chunk-size;
#X obj 127 288 s \$0-dsp;
#X obj 199 291 s \$0-direction;
#X obj 199 236 sel 0 1;
#X msg 199 259 1;
#X msg 237 259 -1;
#X obj 292 262 s \$0-ramptime;
#X obj 292 234 max 0;
#X obj 60 243 clip 0 1;
#X obj 249 374 s \$0-start-point;
#X obj 267 343 clip 0 1;
#X obj 357 234 s \$0-stop;
#X obj 397 376 list prepend set;
#X obj 397 400 list trim;
#X obj 397 442 s \$0-2-tabreadL;
#X obj 461 293 list prepend set;
#X obj 461 317 list trim;
#X obj 460 359 s \$0-2-tabreadR;
#X obj 483 195 s \$0-stereo;
#X obj 1150 286 route sample;
#N canvas 4 50 450 300 sampleRate 0;
#X obj 59 88 t f f;
#X obj 60 30 inlet;
#X obj 59 139 / 44.1;
#X obj 91 115 v \$0-duration-s;
#X obj 59 174 v \$0-duration;
#X connect 0 0 2 0;
#X connect 0 1 3 0;
#X connect 1 0 0 0;
#X connect 2 0 4 0;
#X restore 1150 323 pd sampleRate;
#X obj 520 153 s \$0-dec;
#X obj 36 64 route speed size switch backwards ramptime start stop
readL readR stereo dec, f 71;
#X obj 38 346 s \$0-speed;
#X connect 0 0 23 0;
#X connect 4 0 5 0;
#X connect 4 1 6 0;
#X connect 5 0 3 0;
#X connect 6 0 3 0;
#X connect 8 0 7 0;
#X connect 9 0 1 0;
#X connect 11 0 10 0;
#X connect 13 0 14 0;
#X connect 14 0 15 0;
#X connect 16 0 17 0;
#X connect 17 0 18 0;
#X connect 20 0 21 0;
#X connect 23 0 24 0;
#X connect 23 1 9 0;
#X connect 23 2 2 0;
#X connect 23 3 4 0;
#X connect 23 4 8 0;
#X connect 23 5 11 0;
#X connect 23 6 12 0;
#X connect 23 7 13 0;
#X connect 23 8 16 0;
#X connect 23 9 19 0;
#X connect 23 10 22 0;
#X connect 23 11 20 0;
#X restore 428 65 pd messages;
#X obj 585 105 r \$0-stop;
#X obj 428 39 inlet;
#X obj 337 895 outlet~;
#X obj 91 573 r \$0-2-tabreadL;
#N canvas 4 50 572 417 stereo 0;
#X obj 37 73 inlet~;
#X obj 97 73 inlet~;
#X obj 177 73 inlet~;
#X obj 422 99 inlet~;
#X obj 468 83 inlet;
#X text 476 107 on/off;
#X obj 188 393 outlet~;
#X obj 189 365 hip~ 4;
#X obj 189 175 tabread4~;
#X obj 226 114 r \$0-2-tabreadR;
#X obj 189 239 *~;
#X obj 189 263 *~, f 13;
#X obj 189 337 *~, f 23;
#X obj 468 164 switch~;
#X connect 0 0 8 0;
#X connect 1 0 10 1;
#X connect 2 0 11 1;
#X connect 3 0 12 1;
#X connect 4 0 13 0;
#X connect 7 0 6 0;
#X connect 8 0 10 0;
#X connect 9 0 8 0;
#X connect 10 0 11 0;
#X connect 11 0 12 0;
#X connect 12 0 7 0;
#X restore 337 865 pd stereo;
#X f 36;
#X obj 586 830 r \$0-stereo;
#X obj 598 281 switch~;
#X obj 249 241 0;
#X obj 44 376 *~, f 10;
#X obj 44 409 +~, f 13;
#X obj 597 234 1;
#X obj 585 130 t b b;
#N canvas 4 50 450 300 stop-dsp 0;
#X obj 62 22 inlet;
#X msg 108 86 stop;
#X obj 62 136 del 8;
#X obj 62 46 t b a b;
#X obj 216 29 inlet;
#X text 263 29 stop;
#X obj 216 53 t b;
#X obj 62 160 outlet;
#X connect 0 0 3 0;
#X connect 1 0 2 0;
#X connect 2 0 7 0;
#X connect 3 0 2 0;
#X connect 3 1 2 1;
#X connect 3 2 1 0;
#X connect 4 0 6 0;
#X connect 6 0 1 0;
#X restore 652 187 pd stop-dsp;
#X obj 652 231 0;
#X obj 389 119 t b b b;
#X obj 435 151 s \$0-stop-delay;
#X obj 726 154 r \$0-stop-delay;
#X obj 652 159 8;
#X obj 131 110 s \$0-stop;
#X text 549 12 Arg1: 1 = one shot \, 0 = loop;
#X obj 587 619 *~;
#X msg 389 275 1 8;
#N canvas 4 50 450 777 calc-speed 0;
#X obj 64 623 /;
#X msg 64 601 1000 \$1;
#X obj 64 664 outlet;
#X obj 162 241 t b f;
#X obj 162 215 r \$0-chunk-size;
#X obj 64 281 * 1, f 19;
#X text 231 528 one shot or loop?;
#X obj 199 665 outlet;
#N canvas 4 50 450 300 stop-dsp 0;
#X obj 62 22 inlet;
#X msg 108 86 stop;
#X obj 62 136 del 8;
#X obj 62 46 t b a b;
#X obj 216 29 inlet;
#X text 263 29 stop;
#X obj 216 53 t b;
#X obj 62 160 outlet;
#X connect 0 0 3 0;
#X connect 1 0 2 0;
#X connect 2 0 7 0;
#X connect 3 0 2 0;
#X connect 3 1 2 1;
#X connect 3 2 1 0;
#X connect 4 0 6 0;
#X connect 6 0 1 0;
#X restore 199 624 pd stop-dsp;
#X obj 273 591 r \$0-stop-delay;
#X obj 199 594 - 8;
#X obj 199 561 spigot \$1;
#X obj 64 456 t a a, f 15;
#X obj 64 176 v \$0-duration;
#X obj 64 108 inlet;
#X obj 64 132 t b;
#X text 172 175 in ms;
#X text 208 282 resize;
#X obj 162 355 t b f;
#X text 208 396 resize;
#X obj 162 329 r \$0-speed;
#X obj 64 395 / 1, f 19;
#X connect 0 0 2 0;
#X connect 1 0 0 0;
#X connect 3 0 5 0;
#X connect 3 1 5 1;
#X connect 4 0 3 0;
#X connect 5 0 21 0;
#X connect 8 0 7 0;
#X connect 9 0 8 1;
#X connect 10 0 8 0;
#X connect 11 0 10 0;
#X connect 12 0 1 0;
#X connect 12 1 11 0;
#X connect 13 0 5 0;
#X connect 14 0 15 0;
#X connect 15 0 13 0;
#X connect 18 0 21 0;
#X connect 18 1 21 1;
#X connect 20 0 18 0;
#X connect 21 0 12 0;
#X restore 43 79 pd calc-speed;
#X obj 150 867 *~;
#X obj 168 805 r \$0-stereo;
#X obj 168 829 == 0;
#X obj 728 861 outlet~;
#X text 787 861 phase;
#X obj 204 460 v \$0-duration-s;
#X obj 43 39 t b b b b, f 50;
#X connect 0 0 6 0;
#X connect 1 0 11 0;
#X connect 2 0 20 0;
#X connect 3 0 33 0;
#X connect 3 0 10 0;
#X connect 3 0 8 0;
#X connect 3 0 9 0;
#X connect 4 0 7 0;
#X connect 5 0 0 1;
#X connect 6 0 1 0;
#X connect 6 0 29 0;
#X connect 7 0 3 0;
#X connect 8 0 33 1;
#X connect 9 0 34 1;
#X connect 10 0 2 1;
#X connect 10 0 29 2;
#X connect 11 0 2 0;
#X connect 12 0 11 1;
#X connect 12 0 29 1;
#X connect 13 0 0 0;
#X connect 13 0 51 0;
#X connect 13 0 12 0;
#X connect 14 0 15 0;
#X connect 14 0 48 0;
#X connect 16 0 4 0;
#X connect 17 0 7 1;
#X connect 18 0 16 1;
#X connect 19 0 54 0;
#X connect 20 0 14 0;
#X connect 21 0 22 0;
#X connect 22 0 45 0;
#X connect 22 0 45 1;
#X connect 23 0 21 0;
#X connect 25 0 36 0;
#X connect 26 0 24 0;
#X connect 28 0 1 0;
#X connect 29 0 27 0;
#X connect 30 0 29 4;
#X connect 32 0 3 1;
#X connect 33 0 34 0;
#X connect 34 0 13 0;
#X connect 35 0 31 0;
#X connect 36 0 23 0;
#X connect 36 1 42 0;
#X connect 37 0 38 0;
#X connect 38 0 31 0;
#X connect 39 0 46 0;
#X connect 39 1 35 0;
#X connect 39 2 40 0;
#X connect 41 0 37 1;
#X connect 42 0 37 0;
#X connect 45 0 20 1;
#X connect 45 0 29 3;
#X connect 46 0 21 0;
#X connect 47 0 16 0;
#X connect 47 1 43 0;
#X connect 48 0 27 0;
#X connect 49 0 50 0;
#X connect 50 0 48 1;
#X connect 53 0 5 0;
#X connect 54 0 47 0;
#X connect 54 1 32 0;
#X connect 54 2 53 0;
#X connect 54 3 39 0;
