#N canvas 207 133 969 570 12;
#X obj 291 154 s \$0-pass-the-velocity;
#X obj 31 83 sel 0, f 25;
#X obj 240 138 + 1;
#X obj 240 170 == 1;
#X obj 205 441 outlet~;
#X obj 652 449 r \$0-pass-the-velocity;
#X text 727 475 use this with an envelope;
#X obj 31 253 s \$0-right-stop;
#X obj 63 199 s \$0-left-stop;
#X obj 239 327 r \$0-left-stop;
#X obj 387 329 r \$0-right-stop;
#X msg 63 163 stop;
#X msg 31 229 stop;
#X obj 466 274 r \$0-messages;
#X obj 398 43 s \$0-messages;
#X obj 31 23 inlet;
#X obj 398 20 inlet;
#X text 466 16 messages;
#X obj 652 475 outlet;
#X text 699 475 vel;
#X obj 457 449 outlet~;
#X obj 205 247 sel 0 1, f 48;
#X obj 203 137 f 1;
#X obj 31 136 t b b;
#X obj 205 273 t b b;
#X obj 371 277 t b b;
#X msg 243 304 stop;
#X msg 401 302 stop;
#X obj 203 111 t b f, f 13;
#X text 84 22 velocity;
#X obj 205 382 j-sample-voice~;
#X obj 372 386 j-sample-voice~;
#X connect 1 0 23 0;
#X connect 1 1 28 0;
#X connect 2 0 3 0;
#X connect 3 0 22 1;
#X connect 5 0 18 0;
#X connect 9 0 30 1;
#X connect 10 0 31 1;
#X connect 11 0 8 0;
#X connect 12 0 7 0;
#X connect 13 0 31 1;
#X connect 13 0 30 1;
#X connect 15 0 1 0;
#X connect 16 0 14 0;
#X connect 21 0 24 0;
#X connect 21 1 25 0;
#X connect 22 0 2 0;
#X connect 22 0 21 0;
#X connect 23 0 12 0;
#X connect 23 1 11 0;
#X connect 24 0 30 0;
#X connect 24 1 26 0;
#X connect 25 0 31 0;
#X connect 25 1 27 0;
#X connect 26 0 31 1;
#X connect 27 0 30 1;
#X connect 28 0 22 0;
#X connect 28 1 0 0;
#X connect 30 0 4 0;
#X connect 30 1 20 0;
#X connect 31 0 4 0;
#X connect 31 1 20 0;
