#N canvas 4 50 775 483 12;
#X obj 58 11 inlet;
#X obj 271 335 list trim;
#X obj 271 369 outlet;
#X text 105 7 float;
#X text 542 19 Arg1: Sample Bank Name;
#X obj 57 43 t a a a a, f 65;
#N canvas 4 50 450 469 stereo 0;
#X obj 55 17 inlet;
#X obj 56 187 v;
#X obj 96 129 pack 0 s;
#X obj 56 56 t b a b, f 12;
#X obj 137 92 symbol \$1;
#X obj 56 318 outlet;
#X msg 96 159 symbol \$1-\$2-channels;
#X connect 0 0 3 0;
#X connect 1 0 5 0;
#X connect 2 0 6 0;
#X connect 3 0 1 0;
#X connect 3 1 2 0;
#X connect 3 2 4 0;
#X connect 4 0 2 1;
#X connect 6 0 1 1;
#X restore 509 188 pd stereo;
#X obj 187 159 spigot;
#N canvas 457 100 450 299 load-R 0;
#X obj 37 37 inlet;
#X msg 37 80 \$1-howdy-R;
#X obj 37 128 outlet;
#X obj 37 104 list prepend set;
#X connect 0 0 1 0;
#X connect 1 0 3 0;
#X connect 3 0 2 0;
#X restore 187 183 pd load-R;
#N canvas 457 99 450 300 load-L 0;
#X obj 37 37 inlet;
#X obj 37 128 outlet;
#X msg 37 80 \$1-howdy-L;
#X obj 37 104 list prepend set;
#X connect 0 0 2 0;
#X connect 2 0 3 0;
#X connect 3 0 1 0;
#X restore 57 179 pd load-L;
#N canvas 4 50 450 300 sample-size 0;
#X obj 126 123 pack 0 s;
#X obj 61 56 t b a b, f 19;
#X obj 191 90 symbol \$1;
#X obj 61 22 inlet;
#X obj 61 257 outlet;
#X msg 126 152 symbol \$1-\$2-length;
#X obj 61 182 v;
#X obj 61 214 list prepend sample-size;
#X connect 0 0 5 0;
#X connect 1 0 6 0;
#X connect 1 1 0 0;
#X connect 1 2 2 0;
#X connect 2 0 0 1;
#X connect 3 0 1 0;
#X connect 5 0 6 1;
#X connect 6 0 7 0;
#X connect 7 0 4 0;
#X restore 358 191 pd sample-size;
#X obj 440 369 outlet;
#X obj 440 340 list trim;
#X obj 509 272 t a a;
#X obj 577 354 outlet;
#X obj 509 236 i 0;
#X obj 509 212 sel 1 2;
#X obj 541 239 i 1;
#X connect 0 0 5 0;
#X connect 1 0 2 0;
#X connect 5 0 9 0;
#X connect 5 1 7 0;
#X connect 5 2 10 0;
#X connect 5 3 6 0;
#X connect 6 0 16 0;
#X connect 7 0 8 0;
#X connect 8 0 12 0;
#X connect 9 0 1 0;
#X connect 10 0 1 0;
#X connect 10 0 12 0;
#X connect 12 0 11 0;
#X connect 13 0 7 1;
#X connect 13 1 14 0;
#X connect 15 0 13 0;
#X connect 16 0 15 0;
#X connect 16 1 17 0;
#X connect 17 0 13 0;
