#N canvas 442 429 450 300 10;
#X obj 78 76 inlet~;
#X obj 78 97 ftom~;
#X obj 78 118 /~ 127;
#X obj 61 173 sig~ 1;
#X obj 61 194 -~;
#X obj 77 141 *~;
#X obj 61 215 outlet~;
#X connect 0 0 1 0;
#X connect 1 0 2 0;
#X connect 2 0 5 0;
#X connect 2 0 5 1;
#X connect 3 0 4 0;
#X connect 4 0 6 0;
#X connect 5 0 4 1;
