#N canvas 679 481 450 300 10;
#X obj 23 14 inlet;
#X text 65 14 note on bang;
#X obj 177 11 inlet;
#X text 219 11 delay time;
#X obj 116 100 delay \$1;
#X obj 309 12 inlet;
#X text 349 11 stop;
#X msg 116 75 stop;
#X obj 309 33 t b b;
#X obj 23 35 t b b b b, f 21;
#X obj 202 224 outlet;
#X text 247 223 to switch~;
#X obj 202 170 1;
#X obj 116 171 0;
#X connect 0 0 9 0;
#X connect 2 0 4 1;
#X connect 4 0 13 0;
#X connect 5 0 8 0;
#X connect 7 0 4 0;
#X connect 8 0 13 0;
#X connect 8 1 7 0;
#X connect 9 1 4 0;
#X connect 9 2 7 0;
#X connect 9 3 12 0;
#X connect 12 0 10 0;
#X connect 13 0 10 0;
