#N canvas 119 82 1176 530 12;
#X obj 26 40 r notes;
#N canvas 520 302 920 489 knobs 0;
#X text 217 19 del note amt;
#X text 502 18 feedback;
#X text 792 25 tempo;
#X obj 14 72 r knob1;
#X obj 14 166 * 4;
#X obj 14 190 - 2;
#X text 22 28 speed;
#X obj 70 332 s screenLine1;
#X msg 70 294 1: Speed: \$1%;
#X obj 70 244 * 100;
#X obj 70 268 i;
#X obj 14 214 t a a;
#X obj 14 376 s speed;
#X obj 720 27 r knob4;
#X obj 720 145 + 50;
#X obj 720 121 * 130;
#X obj 720 419 s globBpm;
#X obj 720 268 t a a, f 11;
#X obj 720 193 i;
#X obj 720 169 * 10;
#X obj 720 216 * 0.1;
#X obj 567 235 * 100;
#X obj 567 259 i;
#X obj 511 205 t a a;
#X obj 511 65 r knob3;
#X obj 511 229 * 0.99;
#X msg 567 284 3: Feedback: \$1%;
#X obj 794 384 s screenLine4;
#X obj 567 323 s screenLine3;
#X obj 511 367 s globFb;
#X obj 236 266 t a a, f 8;
#X obj 236 66 r knob2;
#X obj 236 388 s globNoteDel;
#X obj 236 160 * 24;
#X obj 236 185 i;
#X obj 236 209 swap 24;
#X obj 236 233 -, f 7;
#X obj 289 351 s screenLine2;
#X msg 289 314 2: fbNoteTime: 1/\$1;
#X msg 794 345 4: Tempo: \$1BPM;
#X obj 76 69 r mute-main-knobs;
#X obj 14 96 spigot 1;
#X obj 294 80 r mute-main-knobs;
#X obj 232 107 spigot 1;
#X obj 570 86 r mute-main-knobs;
#X obj 508 113 spigot 1;
#X obj 781 51 r mute-main-knobs;
#X obj 719 78 spigot 1;
#X connect 3 0 41 0;
#X connect 4 0 5 0;
#X connect 5 0 11 0;
#X connect 8 0 7 0;
#X connect 9 0 10 0;
#X connect 10 0 8 0;
#X connect 11 0 12 0;
#X connect 11 1 9 0;
#X connect 13 0 47 0;
#X connect 14 0 19 0;
#X connect 15 0 14 0;
#X connect 17 0 16 0;
#X connect 17 1 39 0;
#X connect 18 0 20 0;
#X connect 19 0 18 0;
#X connect 20 0 17 0;
#X connect 21 0 22 0;
#X connect 22 0 26 0;
#X connect 23 0 25 0;
#X connect 23 1 21 0;
#X connect 24 0 45 0;
#X connect 25 0 29 0;
#X connect 26 0 28 0;
#X connect 30 0 32 0;
#X connect 30 1 38 0;
#X connect 31 0 43 0;
#X connect 33 0 34 0;
#X connect 34 0 35 0;
#X connect 35 0 36 0;
#X connect 35 1 36 1;
#X connect 36 0 30 0;
#X connect 38 0 37 0;
#X connect 39 0 27 0;
#X connect 40 0 41 1;
#X connect 41 0 4 0;
#X connect 42 0 43 1;
#X connect 43 0 33 0;
#X connect 44 0 45 1;
#X connect 45 0 23 0;
#X connect 46 0 47 1;
#X connect 47 0 15 0;
#X restore 392 48 pd knobs;
#N canvas 689 288 542 379 synth 0;
#X obj 27 20 inlet;
#X obj 115 103 outlet;
#N canvas 0 25 450 300 mod-24 0;
#X obj 43 28 inlet;
#X obj 43 52 unpack, f 8;
#X obj 43 120 % 24;
#X obj 43 174 pack 0 0;
#X obj 43 198 outlet;
#X obj 43 148 abs;
#X obj 43 76 + 12;
#X connect 0 0 1 0;
#X connect 1 0 6 0;
#X connect 1 1 3 1;
#X connect 2 0 5 0;
#X connect 3 0 4 0;
#X connect 5 0 3 0;
#X connect 6 0 2 0;
#X restore 27 51 pd mod-24;
#N canvas 681 46 604 386 route12/24 0;
#X obj 37 17 inlet;
#X obj 37 201 list store;
#X obj 37 257 route 0 1, f 24;
#X obj 37 298 outlet;
#X obj 119 299 outlet;
#X obj 37 61 t b a a, f 21;
#X obj 118 166 t b;
#X obj 171 165 t b;
#X obj 37 225 list prepend;
#X obj 118 190 0;
#X obj 171 189 1;
#X obj 117 114 unpack;
#X obj 118 140 moses 12;
#X connect 0 0 5 0;
#X connect 1 0 8 0;
#X connect 2 0 3 0;
#X connect 2 1 4 0;
#X connect 5 0 1 0;
#X connect 5 1 11 0;
#X connect 5 2 1 1;
#X connect 6 0 9 0;
#X connect 7 0 10 0;
#X connect 8 0 2 0;
#X connect 9 0 8 1;
#X connect 10 0 8 1;
#X connect 11 0 12 0;
#X connect 12 0 6 0;
#X connect 12 1 7 0;
#X restore 27 75 pd route12/24;
#X text 166 103 pass 12-23 notes to samples;
#N canvas 581 174 742 450 synths 0;
#X obj 19 15 inlet;
#N canvas 210 53 1230 713 bubbles 0;
#X obj 182 361 osc~;
#X obj 182 385 *~ 0.5;
#X obj 182 409 *~, f 16;
#X msg 195 145 100;
#X obj 184 175 t f f b;
#X obj 182 243 *~ 1000;
#X obj 182 269 +~ 800;
#X obj 254 323 j-pop-env~ 1 24;
#X obj 385 357 osc~;
#X obj 385 405 *~, f 16;
#X msg 398 141 100;
#X obj 387 171 t f f b;
#X obj 385 239 *~ 1000;
#X obj 183 209 j-pop-env~ 3 8;
#X obj 592 351 osc~;
#X obj 592 399 *~, f 16;
#X msg 605 135 100;
#X obj 594 164 t f f b;
#X obj 592 232 *~ 456;
#X obj 592 259 +~ 45;
#X obj 686 255 j-pop-env~ 1 12;
#X obj 695 226 f;
#X obj 702 169 del 123;
#X floatatom 621 316 5 0 0 0 - - -;
#X obj 592 375 *~ 0.45;
#X obj 385 381 *~ 0.125;
#X obj 465 233 f;
#X obj 472 176 del 123;
#X obj 457 318 j-pop-env~ 1 89;
#X obj 593 196 j-pop-env~ 1 12;
#X obj 385 265 +~ 500;
#X obj 386 205 j-pop-env~ 3 3;
#X obj 665 314 j-pop-env~ 1 123;
#X obj 160 30 inlet;
#X obj 160 54 t a a a;
#X obj 378 514 synth-voice 1;
#X connect 0 0 1 0;
#X connect 1 0 2 0;
#X connect 2 0 35 0;
#X connect 2 0 35 1;
#X connect 3 0 4 0;
#X connect 4 0 13 0;
#X connect 4 1 7 0;
#X connect 5 0 6 0;
#X connect 6 0 0 0;
#X connect 7 0 2 1;
#X connect 8 0 25 0;
#X connect 9 0 35 0;
#X connect 9 0 35 1;
#X connect 10 0 11 0;
#X connect 11 0 31 0;
#X connect 11 1 26 1;
#X connect 11 1 28 0;
#X connect 11 2 27 0;
#X connect 12 0 30 0;
#X connect 13 0 5 0;
#X connect 14 0 24 0;
#X connect 15 0 35 0;
#X connect 15 0 35 1;
#X connect 16 0 17 0;
#X connect 17 0 29 0;
#X connect 17 0 11 0;
#X connect 17 1 21 1;
#X connect 17 1 32 0;
#X connect 17 2 22 0;
#X connect 18 0 19 0;
#X connect 19 0 14 0;
#X connect 20 0 18 0;
#X connect 21 0 20 0;
#X connect 21 0 11 0;
#X connect 22 0 21 0;
#X connect 23 0 19 1;
#X connect 24 0 15 0;
#X connect 25 0 9 0;
#X connect 26 0 4 0;
#X connect 27 0 26 0;
#X connect 28 0 9 1;
#X connect 29 0 18 0;
#X connect 30 0 8 0;
#X connect 31 0 12 0;
#X connect 32 0 15 1;
#X connect 33 0 34 0;
#X connect 34 0 4 0;
#X connect 34 1 17 0;
#X restore 19 79 pd bubbles;
#X obj 19 39 route 0 1 2 3 4 5, f 68;
#X obj 19 160 route 6 7 8 9 10 11, f 68;
#N canvas 210 25 1230 732 claps 0;
#X obj 160 30 inlet;
#N canvas 684 31 633 707 root 0;
#X obj 351 81 inlet;
#X text 402 85 trigger;
#X obj 101 508 outlet~;
#X obj 102 217 noise~;
#X obj 172 143 r \$0-cut;
#X obj 219 192 r \$0-width;
#X obj 219 216 t b a;
#X obj 172 167 t a a;
#X obj 102 432 *~, f 36;
#N canvas 610 310 690 524 envelopes 0;
#N canvas 528 263 912 476 vol-env 0;
#X obj 42 158 vline~;
#X obj 42 182 *~;
#X obj 42 206 *~;
#X obj 42 32 inlet;
#X text 88 30 bang;
#X msg 42 129 1 0.2 \, 0 \$1 0.2;
#X obj 42 230 outlet~;
#X obj 140 38 inlet;
#X text 193 37 env;
#X obj 42 95 pack 0 20;
#X connect 0 0 1 0;
#X connect 0 0 1 1;
#X connect 1 0 2 0;
#X connect 1 0 2 1;
#X connect 2 0 6 0;
#X connect 3 0 9 0;
#X connect 5 0 0 0;
#X connect 7 0 9 1;
#X connect 9 0 5 0;
#X restore 39 218 pd vol-env;
#N canvas 528 263 912 476 vol-env 0;
#X obj 42 158 vline~;
#X obj 42 182 *~;
#X obj 42 206 *~;
#X obj 42 32 inlet;
#X text 88 30 bang;
#X obj 42 96 f 10;
#X msg 42 129 1 0.2 \, 0 \$1 0.2;
#X obj 42 230 outlet~;
#X obj 140 38 inlet;
#X text 193 37 env;
#X connect 0 0 1 0;
#X connect 0 0 1 1;
#X connect 1 0 2 0;
#X connect 1 0 2 1;
#X connect 2 0 7 0;
#X connect 3 0 5 0;
#X connect 5 0 6 0;
#X connect 6 0 0 0;
#X connect 8 0 5 1;
#X restore 147 248 pd vol-env;
#N canvas 528 263 912 476 vol-env 0;
#X obj 42 158 vline~;
#X obj 42 182 *~;
#X obj 42 206 *~;
#X obj 42 32 inlet;
#X text 88 30 bang;
#X msg 42 129 1 0.2 \, 0 \$1 0.2;
#X obj 42 230 outlet~;
#X obj 140 38 inlet;
#X text 193 37 env;
#X obj 42 97 f 20;
#X connect 0 0 1 0;
#X connect 0 0 1 1;
#X connect 1 0 2 0;
#X connect 1 0 2 1;
#X connect 2 0 6 0;
#X connect 3 0 9 0;
#X connect 5 0 0 0;
#X connect 7 0 9 1;
#X connect 9 0 5 0;
#X restore 290 267 pd vol-env;
#N canvas 528 263 912 476 vol-env 0;
#X obj 42 158 vline~;
#X obj 42 182 *~;
#X obj 42 206 *~;
#X obj 42 32 inlet;
#X text 88 30 bang;
#X obj 42 96 f 10;
#X msg 42 129 1 0.2 \, 0 \$1 0.2;
#X obj 42 230 outlet~;
#X obj 140 38 inlet;
#X text 193 37 env;
#X connect 0 0 1 0;
#X connect 0 0 1 1;
#X connect 1 0 2 0;
#X connect 1 0 2 1;
#X connect 2 0 7 0;
#X connect 3 0 5 0;
#X connect 5 0 6 0;
#X connect 6 0 0 0;
#X connect 8 0 5 1;
#X restore 439 267 pd vol-env;
#X obj 124 470 outlet~;
#X obj 30 28 inlet;
#X obj 142 119 del 20;
#X obj 142 143 t b b;
#X obj 223 120 del 20;
#X obj 223 144 t b b;
#X obj 303 140 del 20;
#X text 269 6 env;
#X obj 518 88 r \$0-decay;
#X obj 413 55 r \$0-ratio;
#X obj 518 112 t b a;
#X obj 519 150 * 4;
#X obj 399 126 * 1;
#X obj 413 79 t b a;
#X obj 188 5 r \$0-env;
#X obj 398 156 f 20;
#X obj 188 29 t a a a a, f 29;
#X obj 30 52 t b b a;
#X obj 77 112 s \$0-vel;
#X obj 69 154 r \$0-vel;
#X obj 39 185 f;
#X obj 170 187 r \$0-vel;
#X obj 140 218 f;
#X obj 315 208 r \$0-vel;
#X obj 285 239 f;
#X obj 465 198 r \$0-vel;
#X obj 435 229 f;
#X connect 0 0 4 0;
#X connect 1 0 4 0;
#X connect 2 0 4 0;
#X connect 3 0 4 0;
#X connect 5 0 21 0;
#X connect 6 0 7 0;
#X connect 7 0 26 0;
#X connect 7 1 8 0;
#X connect 8 0 9 0;
#X connect 9 0 28 0;
#X connect 9 1 10 0;
#X connect 10 0 30 0;
#X connect 12 0 14 0;
#X connect 13 0 17 0;
#X connect 14 0 15 0;
#X connect 14 1 15 1;
#X connect 15 0 3 1;
#X connect 16 0 19 0;
#X connect 17 0 16 0;
#X connect 17 1 16 1;
#X connect 18 0 20 0;
#X connect 19 0 2 1;
#X connect 19 0 1 1;
#X connect 19 0 0 1;
#X connect 19 0 15 0;
#X connect 20 0 6 1;
#X connect 20 1 8 1;
#X connect 20 2 10 1;
#X connect 20 3 16 0;
#X connect 21 0 24 0;
#X connect 21 1 6 0;
#X connect 21 2 22 0;
#X connect 23 0 24 1;
#X connect 24 0 0 0;
#X connect 25 0 26 1;
#X connect 26 0 1 0;
#X connect 27 0 28 1;
#X connect 28 0 2 0;
#X connect 29 0 30 1;
#X connect 30 0 3 0;
#X restore 351 307 pd envelopes;
#X obj 204 262 + 500, f 7;
#X obj 102 250 hip~ 2000;
#X obj 102 324 lop~ 500, f 15;
#X obj 102 348 lop~ 500;
#X obj 102 274 hip~ 2000, f 11;
#X obj 102 408 *~ 0.75;
#X obj 351 105 / 127;
#X obj 351 129 sqrt;
#X obj 351 153 sqrt;
#X connect 0 0 16 0;
#X connect 3 0 11 0;
#X connect 4 0 7 0;
#X connect 5 0 6 0;
#X connect 6 0 10 0;
#X connect 6 1 10 1;
#X connect 7 0 11 1;
#X connect 7 0 14 1;
#X connect 7 1 10 0;
#X connect 8 0 2 0;
#X connect 9 0 8 1;
#X connect 10 0 12 1;
#X connect 10 0 13 1;
#X connect 11 0 14 0;
#X connect 12 0 13 0;
#X connect 13 0 15 0;
#X connect 14 0 12 0;
#X connect 15 0 8 0;
#X connect 16 0 17 0;
#X connect 17 0 18 0;
#X connect 18 0 9 0;
#X restore 170 196 pd root;
#X obj 146 295 synth-voice 2;
#X connect 0 0 1 0;
#X connect 1 0 2 0;
#X connect 1 0 2 1;
#X restore 102 79 pd claps;
#X connect 0 0 2 0;
#X connect 2 0 1 0;
#X connect 2 1 4 0;
#X connect 2 6 3 0;
#X restore 27 175 pd synths;
#X connect 0 0 2 0;
#X connect 2 0 3 0;
#X connect 3 0 5 0;
#X connect 3 1 1 0;
#X restore 26 73 pd synth;
#N canvas 638 138 802 463 samples 0;
#X obj 23 21 inlet;
#X obj 317 112 list prepend save;
#X obj 317 136 list trim;
#X obj 587 145 list trim;
#X obj 587 121 list prepend init;
#X msg 317 80 samples;
#X obj 587 41 loadbang;
#X obj 587 65 del 100;
#X msg 587 93 samples;
#X msg 499 229 load \$1;
#X msg 595 216 4;
#X obj 317 254 j-sample-bank howdy 4 samples;
#N canvas 432 134 798 464 samples 0;
#X obj 19 45 inlet;
#X obj 19 130 sample-voice 12;
#X obj 97 104 sample-voice 13;
#X obj 160 129 sample-voice 14;
#X obj 238 103 sample-voice 15;
#X obj 315 134 sample-voice 16;
#X obj 396 109 sample-voice 17;
#X obj 17 248 sample-voice 18;
#X obj 96 221 sample-voice 19;
#X obj 157 248 sample-voice 20;
#X obj 247 222 sample-voice 21;
#X obj 315 252 sample-voice 22;
#X obj 409 224 sample-voice 23;
#X obj 19 69 route 12 13 14 15 16 17, f 68;
#X obj 18 190 route 18 19 20 21 22 23, f 68;
#X connect 0 0 13 0;
#X connect 13 0 1 0;
#X connect 13 1 2 0;
#X connect 13 2 3 0;
#X connect 13 3 4 0;
#X connect 13 4 5 0;
#X connect 13 5 6 0;
#X connect 13 6 14 0;
#X connect 14 0 7 0;
#X connect 14 1 8 0;
#X connect 14 2 9 0;
#X connect 14 3 10 0;
#X connect 14 4 11 0;
#X connect 14 5 12 0;
#X restore 23 152 pd samples;
#X connect 0 0 12 0;
#X connect 1 0 2 0;
#X connect 2 0 11 0;
#X connect 3 0 11 0;
#X connect 4 0 3 0;
#X connect 5 0 1 0;
#X connect 6 0 7 0;
#X connect 7 0 8 0;
#X connect 8 0 4 0;
#X connect 9 0 11 0;
#X connect 10 0 9 0;
#X restore 26 110 pd samples;
#X obj 122 232 catch~ samples-bus-L;
#X obj 362 233 catch~ samples-bus-R;
#X obj 122 286 throw~ outL;
#X obj 362 290 throw~ outR;
#X obj 182 259 catch~ synths-bus-L;
#X obj 416 260 catch~ synths-bus-R;
#N canvas 561 84 879 574 delay-amounts 0;
#X obj 99 127 r aux;
#X text 277 49 hold aux and a key to edit sample/synth;
#X obj 60 16 r notes;
#N canvas 0 25 450 300 mod-24 0;
#X obj 43 28 inlet;
#X obj 43 52 unpack, f 8;
#X obj 43 120 % 24;
#X obj 43 174 pack 0 0;
#X obj 43 198 outlet;
#X obj 43 148 abs;
#X obj 43 76 + 12;
#X connect 0 0 1 0;
#X connect 1 0 6 0;
#X connect 1 1 3 1;
#X connect 2 0 5 0;
#X connect 3 0 4 0;
#X connect 5 0 3 0;
#X connect 6 0 2 0;
#X restore 60 44 pd mod-24;
#X obj 639 127 array define \$0-k1-edit 24;
#X obj 641 174 array define \$0-k2-edit 24;
#X obj 642 224 array define \$0-k3-edit 24;
#X obj 644 271 array define \$0-k4-edit 24;
#X text 535 120 Vol;
#X obj 60 312 s \$0-on;
#X obj 60 68 stripnote;
#N canvas 607 158 450 300 next-aux-press 0;
#X obj 59 30 r aux;
#X obj 59 94 sel 1;
#X obj 59 168 s \$0-off;
#X obj 59 54 spigot 0;
#X obj 126 11 inlet;
#X obj 126 35 t b;
#X obj 126 59 1;
#X obj 59 118 t b b;
#X obj 185 67 0;
#X connect 0 0 3 0;
#X connect 1 0 7 0;
#X connect 3 0 1 0;
#X connect 4 0 5 0;
#X connect 5 0 6 0;
#X connect 6 0 3 1;
#X connect 7 0 2 0;
#X connect 7 1 8 0;
#X connect 8 0 3 1;
#X restore 83 258 pd next-aux-press;
#X obj 60 227 t a b b;
#X obj 160 209 0;
#X obj 60 162 spigot;
#X obj 60 203 spigot 1;
#X obj 140 154 r \$0-off;
#X obj 140 178 1;
#X obj 76 423 r \$0-on;
#X obj 140 447 r \$0-off;
#X obj 73 515 s mute-main-knobs;
#X obj 76 477 0;
#X obj 140 471 1;
#X text 501 170 delTime;
#X text 509 231 delFb;
#X text 523 273 delVol;
#X obj 76 447 t b;
#N canvas 0 25 742 451 knob1 0;
#X obj 148 57 r \$0-on;
#X obj 109 30 r knob1;
#X obj 109 152 spigot;
#X obj 270 72 r \$0-off;
#X obj 148 105 1;
#X msg 108 412 \; \$1-vol \$2;
#X obj 108 246 list prepend 1;
#X obj 108 270 list trim;
#X obj 108 324 t a a;
#X obj 287 406 tabwrite \$0-k1-edit;
#X obj 203 219 + 1;
#X obj 148 81 t b a a;
#X obj 249 361 unpack;
#X obj 423 272 s screenLine1;
#X msg 422 229 1: Volume: \$1%;
#X obj 109 177 t a a;
#X obj 421 177 * 100;
#X obj 421 201 i;
#X obj 109 201 pow 2;
#X connect 0 0 11 0;
#X connect 1 0 2 0;
#X connect 2 0 15 0;
#X connect 3 0 2 1;
#X connect 4 0 2 1;
#X connect 6 0 7 0;
#X connect 7 0 8 0;
#X connect 8 0 5 0;
#X connect 8 1 12 0;
#X connect 10 0 6 1;
#X connect 11 0 4 0;
#X connect 11 1 10 0;
#X connect 11 2 9 1;
#X connect 12 1 9 0;
#X connect 14 0 13 0;
#X connect 15 0 18 0;
#X connect 15 1 16 0;
#X connect 16 0 17 0;
#X connect 17 0 14 0;
#X connect 18 0 6 0;
#X restore 337 87 pd knob1;
#N canvas 0 25 976 622 save-and-start 0;
#X obj 51 148 f \$0;
#X msg 52 183 \; \$1-k1-edit write k1-edit.txt \; \$1-k2-edit write
k2-edit.txt \; \$1-k3-edit write k3-edit.txt \; \$1-k4-edit write k4-edit.txt
;
#X obj 51 112 r saveState;
#X obj 602 187 f \$0;
#X msg 603 222 \; \$1-k1-edit read k1-edit.txt \; \$1-k2-edit read
k2-edit.txt \; \$1-k3-edit read k3-edit.txt \; \$1-k4-edit read k4-edit.txt
;
#X obj 473 105 loadbang;
#X obj 473 129 t b b;
#N canvas 0 25 450 397 vol 0;
#X msg 63 320 \; \$1-vol \$2;
#X obj 63 107 t a b, f 7;
#X obj 63 131 max 1;
#X obj 63 155 until;
#X obj 63 179 f;
#X obj 104 181 + 1;
#X obj 116 139 1;
#X obj 63 236 tabread \$0-k1-edit;
#X obj 63 78 24;
#X obj 63 260 list prepend;
#X obj 63 284 list trim;
#X obj 63 203 t a a;
#X obj 63 9 inlet;
#X obj 63 33 t b;
#X connect 1 0 2 0;
#X connect 1 1 6 0;
#X connect 2 0 3 0;
#X connect 3 0 4 0;
#X connect 4 0 5 0;
#X connect 4 0 11 0;
#X connect 5 0 4 1;
#X connect 6 0 4 1;
#X connect 7 0 9 0;
#X connect 8 0 1 0;
#X connect 9 0 10 0;
#X connect 10 0 0 0;
#X connect 11 0 7 0;
#X connect 11 1 9 1;
#X connect 12 0 13 0;
#X connect 13 0 8 0;
#X restore 455 390 pd vol;
#X obj 454 277 t b b b b;
#N canvas 0 25 450 397 delTime 0;
#X obj 63 107 t a b, f 7;
#X obj 63 131 max 1;
#X obj 63 155 until;
#X obj 63 179 f;
#X obj 104 181 + 1;
#X obj 116 139 1;
#X obj 63 78 24;
#X obj 63 260 list prepend;
#X obj 63 284 list trim;
#X obj 63 203 t a a;
#X obj 63 9 inlet;
#X obj 63 33 t b;
#X obj 63 236 tabread \$0-k2-edit;
#X msg 63 320 \; \$1-delTime \$2;
#X connect 0 0 1 0;
#X connect 0 1 5 0;
#X connect 1 0 2 0;
#X connect 2 0 3 0;
#X connect 3 0 4 0;
#X connect 3 0 9 0;
#X connect 4 0 3 1;
#X connect 5 0 3 1;
#X connect 6 0 0 0;
#X connect 7 0 8 0;
#X connect 8 0 13 0;
#X connect 9 0 12 0;
#X connect 9 1 7 1;
#X connect 10 0 11 0;
#X connect 11 0 6 0;
#X connect 12 0 7 0;
#X restore 468 365 pd delTime;
#N canvas 0 25 450 397 delFb 0;
#X obj 63 107 t a b, f 7;
#X obj 63 131 max 1;
#X obj 63 155 until;
#X obj 63 179 f;
#X obj 104 181 + 1;
#X obj 116 139 1;
#X obj 63 78 24;
#X obj 63 260 list prepend;
#X obj 63 284 list trim;
#X obj 63 203 t a a;
#X obj 63 9 inlet;
#X obj 63 33 t b;
#X msg 63 320 \; \$1-delFb \$2;
#X obj 63 236 tabread \$0-k3-edit;
#X connect 0 0 1 0;
#X connect 0 1 5 0;
#X connect 1 0 2 0;
#X connect 2 0 3 0;
#X connect 3 0 4 0;
#X connect 3 0 9 0;
#X connect 4 0 3 1;
#X connect 5 0 3 1;
#X connect 6 0 0 0;
#X connect 7 0 8 0;
#X connect 8 0 12 0;
#X connect 9 0 13 0;
#X connect 9 1 7 1;
#X connect 10 0 11 0;
#X connect 11 0 6 0;
#X connect 13 0 7 0;
#X restore 496 339 pd delFb;
#N canvas 0 25 450 397 delVol 0;
#X obj 63 107 t a b, f 7;
#X obj 63 131 max 1;
#X obj 63 155 until;
#X obj 63 179 f;
#X obj 104 181 + 1;
#X obj 116 139 1;
#X obj 63 78 24;
#X obj 63 260 list prepend;
#X obj 63 284 list trim;
#X obj 63 203 t a a;
#X obj 63 9 inlet;
#X obj 63 33 t b;
#X obj 63 236 tabread \$0-k4-edit;
#X msg 63 320 \; \$1-delVol \$2;
#X connect 0 0 1 0;
#X connect 0 1 5 0;
#X connect 1 0 2 0;
#X connect 2 0 3 0;
#X connect 3 0 4 0;
#X connect 3 0 9 0;
#X connect 4 0 3 1;
#X connect 5 0 3 1;
#X connect 6 0 0 0;
#X connect 7 0 8 0;
#X connect 8 0 13 0;
#X connect 9 0 12 0;
#X connect 9 1 7 1;
#X connect 10 0 11 0;
#X connect 11 0 6 0;
#X connect 12 0 7 0;
#X restore 509 313 pd delVol;
#X connect 0 0 1 0;
#X connect 2 0 0 0;
#X connect 3 0 4 0;
#X connect 5 0 6 0;
#X connect 6 0 8 0;
#X connect 6 1 3 0;
#X connect 8 0 7 0;
#X connect 8 1 9 0;
#X connect 8 2 10 0;
#X connect 8 3 11 0;
#X restore 293 459 pd save-and-start;
#N canvas 0 25 742 685 knob2 0;
#X obj 148 57 r \$0-on;
#X obj 109 152 spigot;
#X obj 270 72 r \$0-off;
#X obj 148 105 1;
#X obj 108 296 list prepend 1;
#X obj 108 320 list trim;
#X obj 108 374 t a a;
#X obj 203 269 + 1;
#X obj 148 81 t b a a;
#X obj 249 411 unpack;
#X obj 109 227 t a a;
#X obj 109 30 r knob2;
#X obj 109 176 * 32;
#X obj 109 200 i;
#X msg 108 462 \; \$1-delTime \$2;
#X obj 287 456 tabwrite \$0-k2-edit;
#X obj 440 341 s screenLine2;
#X msg 439 298 2: delTime: \$1%;
#X connect 0 0 8 0;
#X connect 1 0 12 0;
#X connect 2 0 1 1;
#X connect 3 0 1 1;
#X connect 4 0 5 0;
#X connect 5 0 6 0;
#X connect 6 0 14 0;
#X connect 6 1 9 0;
#X connect 7 0 4 1;
#X connect 8 0 3 0;
#X connect 8 1 7 0;
#X connect 8 2 15 1;
#X connect 9 1 15 0;
#X connect 10 0 4 0;
#X connect 10 1 17 0;
#X connect 11 0 1 0;
#X connect 12 0 13 0;
#X connect 13 0 10 0;
#X connect 17 0 16 0;
#X restore 336 157 pd knob2;
#N canvas 0 25 742 451 knob3 0;
#X obj 148 57 r \$0-on;
#X obj 109 152 spigot;
#X obj 270 72 r \$0-off;
#X obj 148 105 1;
#X obj 108 246 list prepend 1;
#X obj 108 270 list trim;
#X obj 108 324 t a a;
#X obj 203 219 + 1;
#X obj 148 81 t b a a;
#X obj 249 361 unpack;
#X obj 423 272 s screenLine1;
#X obj 109 177 t a a;
#X obj 421 177 * 100;
#X obj 421 201 i;
#X obj 109 30 r knob3;
#X msg 422 229 3: delFb: \$1%;
#X msg 108 412 \; \$1-delFb \$2;
#X obj 287 406 tabwrite \$0-k3-edit;
#X connect 0 0 8 0;
#X connect 1 0 11 0;
#X connect 2 0 1 1;
#X connect 3 0 1 1;
#X connect 4 0 5 0;
#X connect 5 0 6 0;
#X connect 6 0 16 0;
#X connect 6 1 9 0;
#X connect 7 0 4 1;
#X connect 8 0 3 0;
#X connect 8 1 7 0;
#X connect 8 2 17 1;
#X connect 9 1 17 0;
#X connect 11 0 4 0;
#X connect 11 1 12 0;
#X connect 12 0 13 0;
#X connect 13 0 15 0;
#X connect 14 0 1 0;
#X connect 15 0 10 0;
#X restore 339 211 pd knob3;
#N canvas 0 25 742 451 knob4 0;
#X obj 148 57 r \$0-on;
#X obj 109 152 spigot;
#X obj 270 72 r \$0-off;
#X obj 148 105 1;
#X obj 108 246 list prepend 1;
#X obj 108 270 list trim;
#X obj 108 324 t a a;
#X obj 203 219 + 1;
#X obj 148 81 t b a a;
#X obj 249 361 unpack;
#X obj 109 177 t a a;
#X obj 421 177 * 100;
#X obj 421 201 i;
#X obj 109 201 pow 2;
#X obj 287 406 tabwrite \$0-k4-edit;
#X obj 423 270 s screenLine4;
#X msg 422 229 4: delVol: \$1%;
#X msg 108 412 \; \$1-delVol \$2;
#X obj 108 29 r knob4;
#X connect 0 0 8 0;
#X connect 1 0 10 0;
#X connect 2 0 1 1;
#X connect 3 0 1 1;
#X connect 4 0 5 0;
#X connect 5 0 6 0;
#X connect 6 0 17 0;
#X connect 6 1 9 0;
#X connect 7 0 4 1;
#X connect 8 0 3 0;
#X connect 8 1 7 0;
#X connect 8 2 14 1;
#X connect 9 1 14 0;
#X connect 10 0 13 0;
#X connect 10 1 11 0;
#X connect 11 0 12 0;
#X connect 12 0 16 0;
#X connect 13 0 4 0;
#X connect 16 0 15 0;
#X connect 18 0 1 0;
#X restore 338 282 pd knob4;
#X connect 0 0 14 1;
#X connect 2 0 3 0;
#X connect 3 0 10 0;
#X connect 10 0 14 0;
#X connect 12 0 9 0;
#X connect 12 1 11 0;
#X connect 12 2 13 0;
#X connect 13 0 15 1;
#X connect 14 0 15 0;
#X connect 15 0 12 0;
#X connect 16 0 17 0;
#X connect 17 0 15 1;
#X connect 18 0 26 0;
#X connect 19 0 22 0;
#X connect 21 0 20 0;
#X connect 22 0 20 0;
#X connect 26 0 21 0;
#X restore 376 106 pd delay-amounts;
#X connect 0 0 2 0;
#X connect 2 0 3 0;
#X connect 4 0 6 0;
#X connect 5 0 7 0;
#X connect 8 0 6 0;
#X connect 9 0 7 0;
