#N canvas 288 131 1176 530 12;
#X obj 26 40 r notes;
#N canvas 689 288 542 379 synth 0;
#X obj 27 20 inlet;
#X obj 115 103 outlet;
#N canvas 4 50 450 300 mod-24 0;
#X obj 43 28 inlet;
#X obj 43 52 unpack, f 8;
#X obj 43 120 % 24;
#X obj 43 174 pack 0 0;
#X obj 43 198 outlet;
#X obj 43 148 abs;
#X obj 43 76 + 12;
#X connect 0 0 1 0;
#X connect 1 0 6 0;
#X connect 1 1 3 1;
#X connect 2 0 5 0;
#X connect 3 0 4 0;
#X connect 5 0 3 0;
#X connect 6 0 2 0;
#X restore 27 51 pd mod-24;
#N canvas 681 50 604 386 route12/24 0;
#X obj 37 17 inlet;
#X obj 37 201 list store;
#X obj 37 257 route 0 1, f 24;
#X obj 37 298 outlet;
#X obj 119 299 outlet;
#X obj 37 61 t b a a, f 21;
#X obj 118 166 t b;
#X obj 171 165 t b;
#X obj 37 225 list prepend;
#X obj 118 190 0;
#X obj 171 189 1;
#X obj 117 114 unpack;
#X obj 118 140 moses 12;
#X connect 0 0 5 0;
#X connect 1 0 8 0;
#X connect 2 0 3 0;
#X connect 2 1 4 0;
#X connect 5 0 1 0;
#X connect 5 1 11 0;
#X connect 5 2 1 1;
#X connect 6 0 9 0;
#X connect 7 0 10 0;
#X connect 8 0 2 0;
#X connect 9 0 8 1;
#X connect 10 0 8 1;
#X connect 11 0 12 0;
#X connect 12 0 6 0;
#X connect 12 1 7 0;
#X restore 27 75 pd route12/24;
#X text 166 103 pass 12-23 notes to samples;
#N canvas 581 179 743 445 synths 0;
#X obj 19 15 inlet;
#N canvas 210 53 1230 933 bubbles 0;
#X obj 634 53 inlet;
#X obj 143 794 synth-voice 1;
#X obj 91 13 bng 15 250 50 0 empty empty empty 17 7 0 10 -262144 -1
-1;
#X obj 158 313 vline~;
#X obj 102 327 osc~;
#X obj 102 420 *~, f 8;
#X obj 158 337 *~;
#X obj 103 296 +~;
#X obj 158 205 vline~;
#X obj 159 237 *~;
#X obj 235 448 random 100;
#X obj 235 472 / 100;
#X obj 235 496 t a a, f 13;
#X obj 235 528 swap 1;
#X obj 235 552 -;
#X obj 235 576 sqrt;
#X obj 319 571 sqrt;
#X obj 114 689 *~;
#X obj 203 698 *~;
#X obj 235 600 pack 0 10;
#X obj 235 624 line~;
#X obj 319 612 pack 0 10;
#X obj 319 636 line~;
#X msg 241 270 0 3 \, 1 3 3 \, 0 10 6;
#X obj 102 351 *~ 0.5;
#X msg 157 163 0 3 \, 1 1 3 \, 0 3 4;
#X obj 159 261 *~ 400;
#X obj 387 191 pack 0 3;
#X obj 290 119 t b b b b;
#X obj 67 196 line~;
#X obj 690 433 metro;
#X obj 643 94 t b b;
#X obj 691 202 i 1;
#X obj 749 161 line 1 1;
#X obj 749 282 cos;
#X obj 749 256 * 6.28319;
#X obj 749 201 - 0.5;
#X obj 749 225 * 0.5;
#X obj 749 306 swap 1;
#X obj 749 330 -;
#X obj 610 238 >= 1;
#X obj 610 262 sel 1;
#X obj 610 286 i 0;
#X msg 749 130 0 0 \, 1 5000;
#X obj 381 164 + 300;
#X obj 749 354 * 400;
#X obj 749 378 + 50;
#X obj 382 141 random 2000;
#X connect 0 0 31 0;
#X connect 3 0 6 0;
#X connect 3 0 6 1;
#X connect 4 0 24 0;
#X connect 5 0 17 0;
#X connect 5 0 18 0;
#X connect 6 0 5 1;
#X connect 7 0 4 0;
#X connect 8 0 9 0;
#X connect 8 0 9 1;
#X connect 9 0 26 0;
#X connect 10 0 11 0;
#X connect 11 0 12 0;
#X connect 12 0 13 0;
#X connect 12 1 16 0;
#X connect 13 0 14 0;
#X connect 13 1 14 1;
#X connect 14 0 15 0;
#X connect 15 0 19 0;
#X connect 16 0 21 0;
#X connect 17 0 1 0;
#X connect 18 0 1 1;
#X connect 19 0 20 0;
#X connect 20 0 17 1;
#X connect 21 0 22 0;
#X connect 22 0 18 1;
#X connect 23 0 3 0;
#X connect 24 0 5 0;
#X connect 25 0 8 0;
#X connect 26 0 7 1;
#X connect 27 0 29 0;
#X connect 28 0 25 0;
#X connect 28 1 23 0;
#X connect 28 2 10 0;
#X connect 28 3 47 0;
#X connect 29 0 7 0;
#X connect 30 0 28 0;
#X connect 31 0 32 0;
#X connect 31 1 43 0;
#X connect 32 0 30 0;
#X connect 33 0 36 0;
#X connect 33 0 40 0;
#X connect 34 0 38 0;
#X connect 35 0 34 0;
#X connect 36 0 37 0;
#X connect 37 0 35 0;
#X connect 38 0 39 0;
#X connect 38 1 39 1;
#X connect 39 0 45 0;
#X connect 40 0 41 0;
#X connect 41 0 42 0;
#X connect 42 0 30 0;
#X connect 43 0 33 0;
#X connect 44 0 27 0;
#X connect 45 0 46 0;
#X connect 46 0 30 1;
#X connect 47 0 44 0;
#X restore 19 79 pd bubbles;
#X obj 19 39 route 0 1 2 3 4 5, f 68;
#X obj 19 160 route 6 7 8 9 10 11, f 68;
#N canvas 210 51 1231 731 claps 0;
#X obj 193 40 inlet;
#X obj 204 572 synth-voice 2;
#X obj 118 194 osc~;
#X obj 118 268 *~, f 8;
#X obj 171 236 *~;
#X obj 172 200 vline~;
#X obj 187 440 *~;
#X obj 123 111 lop~ 10;
#X floatatom 119 69 5 0 0 0 - - -;
#X obj 118 218 /~ 1.2;
#X obj 321 189 osc~;
#X obj 321 263 *~, f 8;
#X obj 374 231 *~;
#X obj 375 195 vline~;
#X obj 321 213 /~ 1.2;
#X obj 307 153 *~ 1.5;
#X obj 466 335 *~, f 8;
#X obj 519 303 *~;
#X obj 520 267 vline~;
#X obj 455 232 osc~ 300;
#X obj 359 329 *~;
#X obj 467 114 t b b b;
#X obj 196 65 sel 0;
#X msg 375 161 1 9 \, 0 500 9;
#X msg 172 166 1 3 \, 0 300 3;
#X obj 232 98 t b b;
#X obj 292 86 + 50;
#X msg 520 233 1 19 \, 0 100 19;
#X obj 269 487 *~ 0.5;
#X obj 292 62 random 500;
#X obj 402 78 sel 0 1 2 3;
#X obj 405 45 random 6;
#X obj 519 522 *~, f 8;
#X obj 572 490 *~;
#X obj 573 454 vline~;
#X obj 508 419 osc~ 300;
#X obj 519 472 /~ 3;
#X msg 573 420 1 2 \, 0 100 2;
#X obj 460 203 *~ 2.7777;
#X obj 466 284 /~ 6;
#X connect 0 0 22 0;
#X connect 2 0 9 0;
#X connect 3 0 6 0;
#X connect 3 0 28 0;
#X connect 4 0 3 1;
#X connect 5 0 4 0;
#X connect 5 0 4 1;
#X connect 6 0 28 0;
#X connect 7 0 2 0;
#X connect 7 0 15 0;
#X connect 7 0 38 0;
#X connect 8 0 7 0;
#X connect 9 0 3 0;
#X connect 10 0 14 0;
#X connect 11 0 20 0;
#X connect 11 0 6 1;
#X connect 11 0 28 0;
#X connect 12 0 11 1;
#X connect 13 0 12 0;
#X connect 13 0 12 1;
#X connect 14 0 11 0;
#X connect 15 0 10 0;
#X connect 16 0 20 1;
#X connect 16 0 28 0;
#X connect 17 0 16 1;
#X connect 18 0 17 0;
#X connect 18 0 17 1;
#X connect 19 0 39 0;
#X connect 20 0 6 1;
#X connect 21 0 24 0;
#X connect 21 1 23 0;
#X connect 21 2 27 0;
#X connect 22 1 25 0;
#X connect 23 0 13 0;
#X connect 24 0 5 0;
#X connect 25 0 31 0;
#X connect 25 1 29 0;
#X connect 26 0 7 0;
#X connect 27 0 18 0;
#X connect 28 0 1 0;
#X connect 28 0 1 1;
#X connect 29 0 26 0;
#X connect 30 0 24 0;
#X connect 30 1 23 0;
#X connect 30 2 27 0;
#X connect 30 3 37 0;
#X connect 30 4 21 0;
#X connect 31 0 30 0;
#X connect 32 0 20 1;
#X connect 32 0 28 0;
#X connect 33 0 32 1;
#X connect 33 0 3 1;
#X connect 34 0 33 0;
#X connect 34 0 33 1;
#X connect 35 0 36 0;
#X connect 36 0 32 0;
#X connect 37 0 34 0;
#X connect 38 0 19 0;
#X connect 39 0 16 0;
#X restore 102 79 pd claps;
#N canvas 210 50 1230 732 woop 0;
#X obj 160 30 inlet;
#N canvas 684 50 633 707 root 0;
#X obj 350 34 inlet;
#X text 401 38 trigger;
#X obj 26 680 outlet~;
#X obj 27 580 *~ 0.75;
#X obj 351 105 / 127;
#X obj 351 129 sqrt;
#X obj 350 58 sel 0;
#X obj 68 303 osc~;
#X obj 55 438 *~, f 20;
#X obj 213 218 vline~;
#X obj 213 242 *~;
#X obj 122 96 vline~;
#X obj 122 120 *~;
#X obj 216 12 t b a;
#X obj 27 604 hip~ 5, f 7;
#X obj 123 144 *~ 2000;
#X obj 7 152 *~;
#X obj 86 214 +~;
#X obj 7 128 *~ 10;
#X obj 165 471 j-simple-bandlimit~;
#X obj 61 528 *~;
#X obj 7 104 osc~ 200;
#X msg 187 172 \$1 3 \, 0 1000 1970;
#X msg 115 60 0 3 \, 1 3000 3;
#X obj 68 327 *~;
#X obj 146 295 osc~ 66;
#X obj 282 281 pack 0 3;
#X obj 290 232 random 1000;
#X obj 290 256 + 5;
#X obj 277 321 line~;
#X obj 122 168 +~ 50;
#X connect 0 0 6 0;
#X connect 3 0 14 0;
#X connect 4 0 5 0;
#X connect 5 0 13 0;
#X connect 6 1 4 0;
#X connect 7 0 24 0;
#X connect 8 0 20 0;
#X connect 9 0 10 0;
#X connect 9 0 10 1;
#X connect 10 0 8 1;
#X connect 10 0 16 1;
#X connect 11 0 12 0;
#X connect 11 0 12 1;
#X connect 12 0 15 0;
#X connect 13 0 23 0;
#X connect 13 0 27 0;
#X connect 13 1 22 0;
#X connect 14 0 2 0;
#X connect 15 0 30 0;
#X connect 16 0 17 0;
#X connect 17 0 7 0;
#X connect 17 0 19 0;
#X connect 18 0 16 0;
#X connect 19 0 20 1;
#X connect 20 0 3 0;
#X connect 21 0 18 0;
#X connect 22 0 9 0;
#X connect 23 0 11 0;
#X connect 24 0 8 0;
#X connect 25 0 24 1;
#X connect 26 0 29 0;
#X connect 27 0 28 0;
#X connect 28 0 26 0;
#X connect 29 0 25 0;
#X connect 30 0 17 1;
#X restore 231 205 pd root;
#X obj 146 295 synth-voice 3;
#X connect 0 0 1 0;
#X connect 1 0 2 0;
#X connect 1 0 2 1;
#X restore 176 80 pd woop;
#X connect 0 0 2 0;
#X connect 2 0 1 0;
#X connect 2 1 4 0;
#X connect 2 2 5 0;
#X connect 2 6 3 0;
#X restore 27 175 pd synths;
#X connect 0 0 2 0;
#X connect 2 0 3 0;
#X connect 3 0 5 0;
#X connect 3 1 1 0;
#X restore 26 73 pd synth;
#N canvas 638 138 802 463 samples 1;
#X obj 23 21 inlet;
#X obj 317 112 list prepend save;
#X obj 317 136 list trim;
#X obj 587 145 list trim;
#X obj 587 121 list prepend init;
#X msg 317 80 samples;
#X obj 587 41 loadbang;
#X obj 587 65 del 100;
#X msg 587 93 samples;
#X msg 499 229 load \$1;
#N canvas 672 364 682 488 samples 1;
#X obj 19 45 inlet;
#X obj 19 69 route 12 13 14 15 16 17, f 68;
#X obj 18 190 route 18 19 20 21 22 23, f 68;
#X obj 18 130 sample-voice 13;
#X obj 97 104 sample-voice 14;
#X obj 160 129 sample-voice 15;
#X obj 237 103 sample-voice 16;
#X obj 315 134 sample-voice 17;
#X obj 396 109 sample-voice 18;
#X obj 19 250 sample-voice 19;
#X obj 97 221 sample-voice 20;
#X obj 157 248 sample-voice 21;
#X obj 247 222 sample-voice 22;
#X obj 315 252 sample-voice 23;
#X obj 410 224 sample-voice 24;
#X msg 101 17 100;
#X connect 0 0 1 0;
#X connect 1 0 3 0;
#X connect 1 1 4 0;
#X connect 1 2 5 0;
#X connect 1 3 6 0;
#X connect 1 4 7 0;
#X connect 1 5 8 0;
#X connect 1 6 2 0;
#X connect 2 0 9 0;
#X connect 2 1 10 0;
#X connect 2 2 11 0;
#X connect 2 3 12 0;
#X connect 2 4 13 0;
#X connect 2 5 14 0;
#X connect 15 0 3 0;
#X restore 23 152 pd samples;
#X obj 317 254 j-sample-bank howdy 12 samples;
#X msg 595 215 8;
#X connect 0 0 10 0;
#X connect 1 0 2 0;
#X connect 2 0 11 0;
#X connect 3 0 11 0;
#X connect 4 0 3 0;
#X connect 5 0 1 0;
#X connect 6 0 7 0;
#X connect 7 0 8 0;
#X connect 8 0 4 0;
#X connect 9 0 11 0;
#X connect 12 0 9 0;
#X restore 26 110 pd samples;
#X obj 122 232 catch~ samples-bus-L;
#X obj 362 233 catch~ samples-bus-R;
#X obj 122 286 throw~ outL;
#X obj 362 290 throw~ outR;
#X obj 182 259 catch~ synths-bus-L;
#X obj 416 260 catch~ synths-bus-R;
#N canvas 526 184 1168 574 delay-amounts 1;
#X text 426 42 hold aux and a key to edit sample/synth;
#X obj 60 16 r notes;
#N canvas 4 50 450 300 mod-24 0;
#X obj 43 28 inlet;
#X obj 43 52 unpack, f 8;
#X obj 43 120 % 24;
#X obj 43 174 pack 0 0;
#X obj 43 198 outlet;
#X obj 43 148 abs;
#X obj 43 76 + 12;
#X connect 0 0 1 0;
#X connect 1 0 6 0;
#X connect 1 1 3 1;
#X connect 2 0 5 0;
#X connect 3 0 4 0;
#X connect 5 0 3 0;
#X connect 6 0 2 0;
#X restore 60 43 pd mod-24;
#X text 659 127 Vol;
#X obj 60 222 s \$0-on;
#X obj 60 68 stripnote;
#X obj 60 173 spigot;
#X obj 73 515 s mute-main-knobs;
#X text 635 167 delTime;
#X text 643 198 delFb;
#X text 637 230 delVol;
#N canvas 622 187 742 646 knob1 0;
#X obj 99 60 r knob1;
#X obj 98 276 list prepend 1;
#X obj 98 300 list trim;
#X obj 98 354 t a a;
#X obj 193 249 + 1;
#X obj 239 391 unpack;
#X obj 275 348 s screenLine1;
#X msg 274 305 1: Volume: \$1%;
#X obj 99 207 t a a, f 25;
#X obj 273 253 * 100;
#X obj 273 277 i;
#X msg 98 442 \; \$1-vol \$2;
#X obj 327 131 t b a a a;
#X obj 99 113 spigot;
#X obj 138 85 r edit-mode;
#X obj 156 122 r sub-edit-mode;
#X obj 156 146 == 0;
#X obj 99 169 spigot;
#X obj 327 17 r \$0-on;
#X obj 367 44 r sub-edit-mode;
#X obj 327 94 spigot;
#X obj 367 68 == 0;
#X obj 387 163 tabread \$0-vol-edit;
#X obj 277 436 tabwrite \$0-vol-edit;
#X obj 99 231 pow 2;
#X obj 387 187 sqrt;
#X connect 0 0 13 0;
#X connect 1 0 2 0;
#X connect 2 0 3 0;
#X connect 3 0 11 0;
#X connect 3 1 5 0;
#X connect 4 0 1 1;
#X connect 5 1 23 0;
#X connect 7 0 6 0;
#X connect 8 0 24 0;
#X connect 8 1 9 0;
#X connect 9 0 10 0;
#X connect 10 0 7 0;
#X connect 12 1 4 0;
#X connect 12 2 23 1;
#X connect 12 3 22 0;
#X connect 13 0 17 0;
#X connect 14 0 13 1;
#X connect 15 0 16 0;
#X connect 16 0 17 1;
#X connect 17 0 8 0;
#X connect 18 0 20 0;
#X connect 19 0 21 0;
#X connect 20 0 12 0;
#X connect 21 0 20 1;
#X connect 22 0 25 0;
#X connect 24 0 1 0;
#X connect 25 0 9 0;
#X restore 552 124 pd knob1;
#N canvas 229 175 976 622 save-and-start 0;
#X obj 51 148 f \$0;
#X obj 43 74 r saveState;
#X obj 602 187 f \$0;
#X obj 456 56 loadbang;
#N canvas 956 309 450 397 vol 0;
#X obj 63 107 t a b, f 7;
#X obj 63 131 max 1;
#X obj 63 155 until;
#X obj 63 179 f;
#X obj 104 181 + 1;
#X obj 63 78 24;
#X obj 63 260 list prepend;
#X obj 63 284 list trim;
#X obj 63 203 t a a;
#X obj 63 9 inlet;
#X obj 63 33 t b;
#X msg 63 320 \; \$1-vol \$2;
#X obj 116 139 0;
#X obj 152 199 + 1;
#X obj 63 236 tabread \$0-vol-edit;
#X connect 0 0 1 0;
#X connect 0 1 12 0;
#X connect 1 0 2 0;
#X connect 2 0 3 0;
#X connect 3 0 4 0;
#X connect 3 0 8 0;
#X connect 4 0 3 1;
#X connect 5 0 0 0;
#X connect 6 0 7 0;
#X connect 7 0 11 0;
#X connect 8 0 14 0;
#X connect 8 1 13 0;
#X connect 9 0 10 0;
#X connect 10 0 5 0;
#X connect 12 0 3 1;
#X connect 13 0 6 1;
#X connect 14 0 6 0;
#X restore 327 465 pd vol;
#X obj 326 352 t b b b b;
#N canvas 4 50 450 397 delTime 0;
#X obj 63 107 t a b, f 7;
#X obj 63 131 max 1;
#X obj 63 155 until;
#X obj 63 179 f;
#X obj 104 181 + 1;
#X obj 63 78 24;
#X obj 63 260 list prepend;
#X obj 63 284 list trim;
#X obj 63 203 t a a;
#X obj 63 9 inlet;
#X obj 63 33 t b;
#X msg 63 320 \; \$1-delTime \$2;
#X obj 116 139 0;
#X obj 159 175 + 1;
#X obj 63 236 tabread \$0-delTime-edit;
#X connect 0 0 1 0;
#X connect 0 1 12 0;
#X connect 1 0 2 0;
#X connect 2 0 3 0;
#X connect 3 0 4 0;
#X connect 3 0 8 0;
#X connect 4 0 3 1;
#X connect 5 0 0 0;
#X connect 6 0 7 0;
#X connect 7 0 11 0;
#X connect 8 0 14 0;
#X connect 8 1 13 0;
#X connect 9 0 10 0;
#X connect 10 0 5 0;
#X connect 12 0 3 1;
#X connect 13 0 6 1;
#X connect 14 0 6 0;
#X restore 340 440 pd delTime;
#N canvas 4 50 450 397 delFb 0;
#X obj 63 107 t a b, f 7;
#X obj 63 131 max 1;
#X obj 63 155 until;
#X obj 63 179 f;
#X obj 104 181 + 1;
#X obj 63 78 24;
#X obj 63 260 list prepend;
#X obj 63 284 list trim;
#X obj 63 203 t a a;
#X obj 63 9 inlet;
#X obj 63 33 t b;
#X msg 63 320 \; \$1-delFb \$2;
#X obj 116 139 0;
#X obj 161 204 + 1;
#X obj 63 236 tabread \$0-delFb-edit;
#X connect 0 0 1 0;
#X connect 0 1 12 0;
#X connect 1 0 2 0;
#X connect 2 0 3 0;
#X connect 3 0 4 0;
#X connect 3 0 8 0;
#X connect 4 0 3 1;
#X connect 5 0 0 0;
#X connect 6 0 7 0;
#X connect 7 0 11 0;
#X connect 8 0 14 0;
#X connect 8 1 13 0;
#X connect 9 0 10 0;
#X connect 10 0 5 0;
#X connect 12 0 3 1;
#X connect 13 0 6 1;
#X connect 14 0 6 0;
#X restore 368 414 pd delFb;
#N canvas 577 253 450 397 delVol 0;
#X obj 63 107 t a b, f 7;
#X obj 63 131 max 1;
#X obj 63 155 until;
#X obj 63 179 f;
#X obj 104 181 + 1;
#X obj 63 78 24;
#X obj 63 290 list prepend, f 25;
#X obj 63 314 list trim;
#X obj 63 203 t a a;
#X obj 63 9 inlet;
#X obj 63 33 t b;
#X msg 64 350 \; \$1-delVol \$2;
#X obj 109 30 bng 15 250 50 0 empty empty empty 17 7 0 10 -262144 -1
-1;
#X obj 116 139 0;
#X obj 227 247 + 1;
#X obj 63 266 tabread \$0-delVol-edit;
#X connect 0 0 1 0;
#X connect 0 1 13 0;
#X connect 1 0 2 0;
#X connect 2 0 3 0;
#X connect 3 0 4 0;
#X connect 3 0 8 0;
#X connect 4 0 3 1;
#X connect 5 0 0 0;
#X connect 6 0 7 0;
#X connect 7 0 11 0;
#X connect 8 0 15 0;
#X connect 8 1 14 0;
#X connect 9 0 10 0;
#X connect 10 0 5 0;
#X connect 12 0 5 0;
#X connect 13 0 3 1;
#X connect 14 0 6 1;
#X connect 15 0 6 0;
#X restore 381 388 pd delVol;
#X obj 167 74 bng 15 250 50 0 empty empty empty 17 7 0 10 -262144 -1
-1;
#X obj 456 80 del 100;
#X obj 625 151 bng 15 250 50 0 empty empty empty 17 7 0 10 -262144
-1 -1;
#X obj 441 223 t b b b b;
#X obj 473 129 t b b b;
#N canvas 956 309 450 397 speed 0;
#X obj 63 107 t a b, f 7;
#X obj 63 131 max 1;
#X obj 63 155 until;
#X obj 63 179 f;
#X obj 104 181 + 1;
#X obj 63 78 24;
#X obj 63 260 list prepend;
#X obj 63 284 list trim;
#X obj 63 203 t a a;
#X obj 63 9 inlet;
#X obj 63 33 t b;
#X obj 116 139 0;
#X obj 152 199 + 1;
#X obj 63 236 tabread \$0-speed-edit;
#X msg 63 320 \; \$1-speed \$2;
#X connect 0 0 1 0;
#X connect 0 1 11 0;
#X connect 1 0 2 0;
#X connect 2 0 3 0;
#X connect 3 0 4 0;
#X connect 3 0 8 0;
#X connect 4 0 3 1;
#X connect 5 0 0 0;
#X connect 6 0 7 0;
#X connect 7 0 14 0;
#X connect 8 0 13 0;
#X connect 8 1 12 0;
#X connect 9 0 10 0;
#X connect 10 0 5 0;
#X connect 11 0 3 1;
#X connect 12 0 6 1;
#X connect 13 0 6 0;
#X restore 442 336 pd speed;
#N canvas 4 50 450 397 att 0;
#X obj 63 107 t a b, f 7;
#X obj 63 131 max 1;
#X obj 63 155 until;
#X obj 63 179 f;
#X obj 104 181 + 1;
#X obj 63 78 24;
#X obj 63 260 list prepend;
#X obj 63 284 list trim;
#X obj 63 203 t a a;
#X obj 63 9 inlet;
#X obj 63 33 t b;
#X obj 116 139 0;
#X obj 159 175 + 1;
#X obj 63 236 tabread \$0-att-edit;
#X msg 63 320 \; \$1-att \$2;
#X connect 0 0 1 0;
#X connect 0 1 11 0;
#X connect 1 0 2 0;
#X connect 2 0 3 0;
#X connect 3 0 4 0;
#X connect 3 0 8 0;
#X connect 4 0 3 1;
#X connect 5 0 0 0;
#X connect 6 0 7 0;
#X connect 7 0 14 0;
#X connect 8 0 13 0;
#X connect 8 1 12 0;
#X connect 9 0 10 0;
#X connect 10 0 5 0;
#X connect 11 0 3 1;
#X connect 12 0 6 1;
#X connect 13 0 6 0;
#X restore 455 311 pd att;
#N canvas 4 50 450 397 dec 0;
#X obj 63 107 t a b, f 7;
#X obj 63 131 max 1;
#X obj 63 155 until;
#X obj 63 179 f;
#X obj 104 181 + 1;
#X obj 63 78 24;
#X obj 63 260 list prepend;
#X obj 63 284 list trim;
#X obj 63 203 t a a;
#X obj 63 9 inlet;
#X obj 63 33 t b;
#X obj 116 139 0;
#X obj 161 204 + 1;
#X obj 64 237 tabread \$0-dec-edit;
#X msg 63 320 \; \$1-pan \$2;
#X connect 0 0 1 0;
#X connect 0 1 11 0;
#X connect 1 0 2 0;
#X connect 2 0 3 0;
#X connect 3 0 4 0;
#X connect 3 0 8 0;
#X connect 4 0 3 1;
#X connect 5 0 0 0;
#X connect 6 0 7 0;
#X connect 7 0 14 0;
#X connect 8 0 13 0;
#X connect 8 1 12 0;
#X connect 9 0 10 0;
#X connect 10 0 5 0;
#X connect 11 0 3 1;
#X connect 12 0 6 1;
#X connect 13 0 6 0;
#X restore 483 285 pd dec;
#N canvas 577 253 450 397 dur 0;
#X obj 63 107 t a b, f 7;
#X obj 63 131 max 1;
#X obj 63 155 until;
#X obj 63 179 f;
#X obj 104 181 + 1;
#X obj 63 78 24;
#X obj 63 290 list prepend, f 25;
#X obj 63 314 list trim;
#X obj 63 203 t a a;
#X obj 63 9 inlet;
#X obj 63 33 t b;
#X obj 116 139 0;
#X obj 227 247 + 1;
#X obj 63 266 tabread \$0-dur-edit;
#X msg 64 350 \; \$1-dur \$2;
#X connect 0 0 1 0;
#X connect 0 1 11 0;
#X connect 1 0 2 0;
#X connect 2 0 3 0;
#X connect 3 0 4 0;
#X connect 3 0 8 0;
#X connect 4 0 3 1;
#X connect 5 0 0 0;
#X connect 6 0 7 0;
#X connect 7 0 14 0;
#X connect 8 0 13 0;
#X connect 8 1 12 0;
#X connect 9 0 10 0;
#X connect 10 0 5 0;
#X connect 11 0 3 1;
#X connect 12 0 6 1;
#X connect 13 0 6 0;
#X restore 496 259 pd dur;
#X obj 51 172 t a a;
#X msg 80 259 \; \$1-speed-edit write speed-edit.txt \; \$1-att-edit
write att-edit.txt \; \$1-dec-edit write dec-edit.txt \; \$1-dur-edit
write dur-edit.txt;
#X msg 29 367 \; \$1-vol-edit write vol-edit.txt \; \$1-delTime-edit
write delTime-edit.txt \; \$1-delFb-edit write delFb-edit.txt \; \$1-delVol-edit
write delVol-edit.txt;
#X obj 602 211 t a a;
#X msg 652 329 \; \$1-speed-edit read speed-edit.txt \; \$1-att-edit
read att-edit.txt \; \$1-dec-edit read dec-edit.txt \; \$1-dur-edit
read dur-edit.txt;
#X msg 601 437 \; \$1-vol-edit read vol-edit.txt \; \$1-delTime-edit
read delTime-edit.txt \; \$1-delFb-edit read delFb-edit.txt \; \$1-delVol-edit
read delVol-edit.txt;
#X connect 0 0 18 0;
#X connect 1 0 0 0;
#X connect 2 0 21 0;
#X connect 3 0 10 0;
#X connect 5 0 4 0;
#X connect 5 1 6 0;
#X connect 5 2 7 0;
#X connect 5 3 8 0;
#X connect 9 0 0 0;
#X connect 10 0 13 0;
#X connect 11 0 2 0;
#X connect 12 0 14 0;
#X connect 12 1 15 0;
#X connect 12 2 16 0;
#X connect 12 3 17 0;
#X connect 13 0 5 0;
#X connect 13 1 12 0;
#X connect 13 2 2 0;
#X connect 18 0 20 0;
#X connect 18 1 19 0;
#X connect 21 0 23 0;
#X connect 21 1 22 0;
#X restore 423 476 pd save-and-start;
#N canvas 684 72 742 945 knob2 0;
#X obj 123 620 list prepend 1;
#X obj 123 644 list trim;
#X obj 123 698 t a a;
#X obj 218 593 + 1;
#X obj 264 735 unpack;
#X obj 124 551 t a a;
#X obj 109 260 i;
#X obj 454 674 s screenLine2;
#X msg 123 786 \; \$1-delTime \$2;
#X obj 305 461 t a a a;
#X msg 109 318 32;
#X msg 144 318 24;
#X msg 182 320 16;
#X msg 216 321 12;
#X msg 255 323 8;
#X msg 296 323 6;
#X msg 335 322 4;
#X msg 372 325 3;
#X msg 349 359 2;
#X msg 386 360 1;
#X msg 405 393 0.5;
#X obj 109 294 sel 0 1 2 3 4 5 6 7 8 9 10, f 50;
#X obj 109 236 * 10;
#X msg 454 632 2: delTime: \$1/1 note;
#X obj 99 113 spigot;
#X obj 138 85 r edit-mode;
#X obj 156 122 r sub-edit-mode;
#X obj 156 146 == 0;
#X obj 99 169 spigot;
#X obj 99 60 r knob2;
#X obj 472 398 r \$0-on;
#X obj 512 425 r sub-edit-mode;
#X obj 472 475 spigot;
#X obj 512 449 == 0;
#X obj 454 575 tabread \$0-delTime-edit;
#X obj 302 780 tabwrite \$0-delTime-edit;
#X connect 0 0 1 0;
#X connect 1 0 2 0;
#X connect 2 0 8 0;
#X connect 2 1 4 0;
#X connect 3 0 0 1;
#X connect 4 1 35 0;
#X connect 5 0 0 0;
#X connect 5 1 23 0;
#X connect 6 0 21 0;
#X connect 9 0 3 0;
#X connect 9 1 35 1;
#X connect 9 2 34 0;
#X connect 10 0 5 0;
#X connect 11 0 5 0;
#X connect 12 0 5 0;
#X connect 13 0 5 0;
#X connect 14 0 5 0;
#X connect 15 0 5 0;
#X connect 16 0 5 0;
#X connect 17 0 5 0;
#X connect 18 0 5 0;
#X connect 19 0 5 0;
#X connect 20 0 5 0;
#X connect 21 0 10 0;
#X connect 21 1 11 0;
#X connect 21 2 12 0;
#X connect 21 3 13 0;
#X connect 21 4 14 0;
#X connect 21 5 15 0;
#X connect 21 6 16 0;
#X connect 21 7 18 0;
#X connect 21 8 17 0;
#X connect 21 9 19 0;
#X connect 21 10 20 0;
#X connect 22 0 6 0;
#X connect 23 0 7 0;
#X connect 24 0 28 0;
#X connect 25 0 24 1;
#X connect 26 0 27 0;
#X connect 27 0 28 1;
#X connect 28 0 22 0;
#X connect 29 0 24 0;
#X connect 30 0 32 0;
#X connect 31 0 33 0;
#X connect 32 0 9 0;
#X connect 33 0 32 1;
#X connect 34 0 23 0;
#X restore 560 164 pd knob2;
#N canvas 586 142 742 451 knob3 0;
#X obj 108 246 list prepend 1;
#X obj 108 270 list trim;
#X obj 108 324 t a a;
#X obj 203 219 + 1;
#X obj 249 361 unpack;
#X obj 109 177 t a a;
#X obj 421 177 * 100;
#X obj 421 201 i;
#X msg 421 229 3: delFb: \$1%;
#X msg 108 412 \; \$1-delFb \$2;
#X obj 422 272 s screenLine3;
#X obj 341 86 t a a a;
#X obj 109 93 spigot;
#X obj 148 65 r edit-mode;
#X obj 166 102 r sub-edit-mode;
#X obj 166 126 == 0;
#X obj 109 149 spigot;
#X obj 109 40 r knob3;
#X obj 449 8 r \$0-on;
#X obj 489 35 r sub-edit-mode;
#X obj 449 85 spigot;
#X obj 489 59 == 0;
#X obj 416 127 tabread \$0-delFb-edit;
#X obj 288 406 tabwrite \$0-delFb-edit;
#X connect 0 0 1 0;
#X connect 1 0 2 0;
#X connect 2 0 9 0;
#X connect 2 1 4 0;
#X connect 3 0 0 1;
#X connect 4 1 23 0;
#X connect 5 0 0 0;
#X connect 5 1 6 0;
#X connect 6 0 7 0;
#X connect 7 0 8 0;
#X connect 8 0 10 0;
#X connect 11 0 3 0;
#X connect 11 1 23 1;
#X connect 11 2 22 0;
#X connect 12 0 16 0;
#X connect 13 0 12 1;
#X connect 14 0 15 0;
#X connect 15 0 16 1;
#X connect 16 0 5 0;
#X connect 17 0 12 0;
#X connect 18 0 20 0;
#X connect 19 0 21 0;
#X connect 20 0 11 0;
#X connect 21 0 20 1;
#X connect 22 0 6 0;
#X restore 563 198 pd knob3;
#N canvas 598 101 742 451 knob4 0;
#X obj 108 246 list prepend 1;
#X obj 108 270 list trim;
#X obj 108 324 t a a;
#X obj 203 219 + 1;
#X obj 249 361 unpack;
#X obj 109 157 t a a;
#X obj 460 248 * 100;
#X obj 460 272 i;
#X obj 109 201 pow 2;
#X obj 462 341 s screenLine4;
#X msg 461 300 4: delVol: \$1%;
#X msg 108 392 \; \$1-delVol \$2;
#X obj 368 107 t b a a a;
#X obj 446 169 sqrt;
#X obj 109 63 spigot;
#X obj 148 35 r edit-mode;
#X obj 166 72 r sub-edit-mode;
#X obj 166 96 == 0;
#X obj 109 119 spigot;
#X obj 428 3 r \$0-on;
#X obj 467 30 r sub-edit-mode;
#X obj 428 80 spigot;
#X obj 446 145 tabread \$0-delVol-edit;
#X obj 287 406 tabwrite \$0-delVol-edit;
#X obj 109 10 r knob4;
#X obj 467 54 == 0;
#X connect 0 0 1 0;
#X connect 1 0 2 0;
#X connect 2 0 11 0;
#X connect 2 1 4 0;
#X connect 3 0 0 1;
#X connect 4 1 23 0;
#X connect 5 0 8 0;
#X connect 5 1 6 0;
#X connect 6 0 7 0;
#X connect 7 0 10 0;
#X connect 8 0 0 0;
#X connect 10 0 9 0;
#X connect 12 1 3 0;
#X connect 12 2 23 1;
#X connect 12 3 22 0;
#X connect 13 0 6 0;
#X connect 14 0 18 0;
#X connect 15 0 14 1;
#X connect 16 0 17 0;
#X connect 17 0 18 1;
#X connect 18 0 5 0;
#X connect 19 0 21 0;
#X connect 20 0 25 0;
#X connect 21 0 12 0;
#X connect 22 0 13 0;
#X connect 24 0 14 0;
#X connect 25 0 21 1;
#X restore 562 239 pd knob4;
#N canvas 428 254 1162 648 hold-aux 0;
#X obj 43 27 r aux;
#X obj 43 51 j-detect-hold 1000;
#X obj 26 246 s cancel-all;
#X obj 166 136 == 0;
#X text 210 136 toggle edit mode;
#X obj 166 105 f;
#X obj 184 76 r edit-mode;
#X obj 212 190 s edit-mode;
#X obj 166 274 sel 0 1, f 27;
#X msg 189 221 /oled/gClear 3 1;
#X obj 189 245 s oscOut;
#X obj 166 160 t a b a;
#X msg 259 321 \; screenLine1 Edit Mode: On \; screenLine2 Choose Sound
to Edit \;;
#X obj 166 401 s reprint-main-values;
#X obj 46 495 r edit-mode;
#X obj 46 519 sel 0 1;
#X obj 46 543 0;
#X obj 56 584 s led;
#X obj 80 544 4;
#X obj 65 91 r edit-mode;
#X obj 26 150 spigot;
#X obj 65 115 ==;
#X obj 83 153 spigot;
#X obj 83 177 s short-aux;
#X obj 657 107 spigot;
#X obj 696 80 r edit-mode;
#X obj 657 53 r short-aux;
#X obj 698 233 r sub-edit-mode;
#X obj 680 261 f;
#X obj 680 285 == 0;
#X obj 680 310 s sub-edit-mode;
#X msg 715 178 /oled/gClear 3 1;
#X obj 715 202 s oscOut;
#X obj 657 131 t b b b;
#X obj 547 247 s reprint-sub;
#X connect 0 0 1 0;
#X connect 1 0 20 0;
#X connect 1 0 22 0;
#X connect 1 1 5 0;
#X connect 3 0 11 0;
#X connect 5 0 3 0;
#X connect 6 0 5 1;
#X connect 8 0 13 0;
#X connect 8 1 12 0;
#X connect 9 0 10 0;
#X connect 11 0 8 0;
#X connect 11 1 9 0;
#X connect 11 2 7 0;
#X connect 14 0 15 0;
#X connect 15 0 16 0;
#X connect 15 1 18 0;
#X connect 16 0 17 0;
#X connect 18 0 17 0;
#X connect 19 0 21 0;
#X connect 19 0 22 1;
#X connect 20 0 2 0;
#X connect 21 0 20 1;
#X connect 22 0 23 0;
#X connect 24 0 33 0;
#X connect 25 0 24 1;
#X connect 26 0 24 0;
#X connect 27 0 28 1;
#X connect 28 0 29 0;
#X connect 29 0 30 0;
#X connect 31 0 32 0;
#X connect 33 0 34 0;
#X connect 33 1 28 0;
#X connect 33 2 31 0;
#X restore 308 21 pd hold-aux;
#X obj 50 339 r edit-mode-action;
#X obj 50 363 sel 0 1, f 33;
#X obj 242 471 s screenLine5;
#X msg 242 440 Editing Sample \$1;
#X obj 329 352 r \$0-on;
#X obj 50 387 t b b;
#X msg 105 424 _;
#X obj 321 392 + 1;
#X obj 140 471 0;
#X obj 76 477 1;
#X obj 99 146 r edit-mode;
#X text 586 89 sub-mode-1;
#N canvas 622 187 742 646 knob1 0;
#X obj 327 105 r \$0-on;
#X obj 99 60 r knob1;
#X obj 98 396 list prepend 1;
#X obj 98 420 list trim;
#X obj 98 474 t a a;
#X obj 193 369 + 1;
#X obj 239 511 unpack;
#X obj 271 468 s screenLine1;
#X obj 99 327 t a a, f 25;
#X obj 271 373 * 100;
#X obj 271 397 i;
#X obj 327 211 t b a a a;
#X obj 99 113 spigot;
#X obj 138 85 r edit-mode;
#X obj 156 122 r sub-edit-mode;
#X obj 99 169 spigot;
#X obj 156 146 == 1;
#X msg 98 562 \; \$1-speed \$2;
#X msg 271 425 1: Speed: \$1%;
#X obj 366 132 r sub-edit-mode;
#X obj 327 182 spigot;
#X obj 366 156 == 1;
#X obj 387 243 tabread \$0-speed-edit;
#N canvas 986 346 575 396 detent 0;
#X obj 55 8 inlet;
#X text 103 11 0 - 1 float;
#X obj 55 141 -;
#X obj 55 183 * -1;
#X obj 178 348 outlet;
#X obj 55 162 + 1;
#X obj 493 228 + 1;
#X msg 388 155 1;
#X msg 178 103 -1;
#X obj 283 171 * 2;
#X obj 283 192 - 1;
#X obj 493 164 - 0.7;
#X obj 55 56 moses 0.25, f 21;
#X obj 178 82 moses 0.3, f 18;
#X obj 55 78 / 0.25;
#X obj 283 129 - 0.3;
#X obj 388 134 moses 0.75, f 18;
#X obj 283 108 moses 0.7, f 18;
#X obj 283 150 / 0.4;
#X obj 55 120 swap 2;
#X obj 55 100 * 2;
#X obj 493 186 / 0.3;
#X obj 493 207 * 2;
#X connect 0 0 12 0;
#X connect 2 0 5 0;
#X connect 3 0 4 0;
#X connect 5 0 3 0;
#X connect 6 0 4 0;
#X connect 7 0 4 0;
#X connect 8 0 4 0;
#X connect 9 0 10 0;
#X connect 10 0 4 0;
#X connect 11 0 21 0;
#X connect 12 0 14 0;
#X connect 12 1 13 0;
#X connect 13 0 8 0;
#X connect 13 1 17 0;
#X connect 14 0 20 0;
#X connect 15 0 18 0;
#X connect 16 0 7 0;
#X connect 16 1 11 0;
#X connect 17 0 15 0;
#X connect 17 1 16 0;
#X connect 18 0 9 0;
#X connect 19 0 2 0;
#X connect 19 1 2 1;
#X connect 20 0 19 0;
#X connect 21 0 22 0;
#X connect 22 0 6 0;
#X restore 99 211 pd detent;
#X obj 278 556 tabwrite \$0-speed-edit;
#X connect 0 0 20 0;
#X connect 1 0 12 0;
#X connect 2 0 3 0;
#X connect 3 0 4 0;
#X connect 4 0 17 0;
#X connect 4 1 6 0;
#X connect 5 0 2 1;
#X connect 6 1 24 0;
#X connect 8 0 2 0;
#X connect 8 1 9 0;
#X connect 9 0 10 0;
#X connect 10 0 18 0;
#X connect 11 1 5 0;
#X connect 11 2 24 1;
#X connect 11 3 22 0;
#X connect 12 0 15 0;
#X connect 13 0 12 1;
#X connect 14 0 16 0;
#X connect 15 0 23 0;
#X connect 16 0 15 1;
#X connect 18 0 7 0;
#X connect 19 0 21 0;
#X connect 20 0 11 0;
#X connect 21 0 20 1;
#X connect 22 0 9 0;
#X connect 23 0 8 0;
#X restore 552 304 pd knob1;
#N canvas 684 72 742 945 knob2 0;
#X obj 327 105 r \$0-on;
#X obj 98 396 list prepend 1;
#X obj 98 420 list trim;
#X obj 98 474 t a a;
#X obj 193 369 + 1;
#X obj 239 511 unpack;
#X obj 99 327 t a a, f 25;
#X obj 273 373 * 100;
#X obj 273 397 i;
#X obj 327 211 t b a a a;
#X obj 99 113 spigot;
#X obj 138 85 r edit-mode;
#X obj 156 122 r sub-edit-mode;
#X obj 99 169 spigot;
#X obj 156 146 == 1;
#X obj 366 132 r sub-edit-mode;
#X obj 327 182 spigot;
#X obj 366 156 == 1;
#X obj 99 60 r knob2;
#X obj 387 243 tabread \$0-att-edit;
#X msg 98 562 \; \$1-att \$2;
#X obj 278 556 tabwrite \$0-att-edit;
#X obj 275 468 s screenLine2;
#X msg 274 425 2: Start: \$1%;
#X connect 0 0 16 0;
#X connect 1 0 2 0;
#X connect 2 0 3 0;
#X connect 3 0 20 0;
#X connect 3 1 5 0;
#X connect 4 0 1 1;
#X connect 5 1 21 0;
#X connect 6 0 1 0;
#X connect 6 1 7 0;
#X connect 7 0 8 0;
#X connect 8 0 23 0;
#X connect 9 1 4 0;
#X connect 9 2 21 1;
#X connect 9 3 19 0;
#X connect 10 0 13 0;
#X connect 11 0 10 1;
#X connect 12 0 14 0;
#X connect 13 0 6 0;
#X connect 14 0 13 1;
#X connect 15 0 17 0;
#X connect 16 0 9 0;
#X connect 17 0 16 1;
#X connect 18 0 10 0;
#X connect 19 0 7 0;
#X connect 23 0 22 0;
#X restore 560 344 pd knob2;
#N canvas 586 142 742 727 knob3 0;
#X obj 327 105 r \$0-on;
#X obj 98 466 list prepend 1;
#X obj 98 490 list trim;
#X obj 98 544 t a a;
#X obj 193 439 + 1;
#X obj 239 581 unpack;
#X obj 99 397 t a a, f 25;
#X obj 273 443 * 100;
#X obj 273 467 i;
#X obj 327 211 t b a a a;
#X obj 99 113 spigot;
#X obj 138 85 r edit-mode;
#X obj 156 122 r sub-edit-mode;
#X obj 99 169 spigot;
#X obj 156 146 == 1;
#X obj 366 132 r sub-edit-mode;
#X obj 327 182 spigot;
#X obj 366 156 == 1;
#X obj 99 60 r knob3;
#X obj 387 243 tabread \$0-dec-edit;
#X obj 278 626 tabwrite \$0-dec-edit;
#X obj 275 538 s screenLine3;
#X msg 98 632 \; \$1-pan \$2;
#X msg 274 495 3: Pan: \$1%;
#X obj 99 193 moses 0.45;
#X obj 166 225 moses 0.55;
#X obj 166 249 t b;
#X msg 166 273 0.5;
#X obj 99 217 / 0.45;
#X obj 99 241 * 0.5;
#X obj 233 280 / 0.45;
#X obj 233 309 * 0.5;
#X obj 233 253 - 0.55;
#X obj 233 333 + 0.5;
#X obj 99 349 f;
#X connect 0 0 16 0;
#X connect 1 0 2 0;
#X connect 2 0 3 0;
#X connect 3 0 22 0;
#X connect 3 1 5 0;
#X connect 4 0 1 1;
#X connect 5 1 20 0;
#X connect 6 0 1 0;
#X connect 6 1 7 0;
#X connect 7 0 8 0;
#X connect 8 0 23 0;
#X connect 9 1 4 0;
#X connect 9 2 20 1;
#X connect 9 3 19 0;
#X connect 10 0 13 0;
#X connect 11 0 10 1;
#X connect 12 0 14 0;
#X connect 13 0 24 0;
#X connect 14 0 13 1;
#X connect 15 0 17 0;
#X connect 16 0 9 0;
#X connect 17 0 16 1;
#X connect 18 0 10 0;
#X connect 19 0 7 0;
#X connect 23 0 21 0;
#X connect 24 0 28 0;
#X connect 24 1 25 0;
#X connect 25 0 26 0;
#X connect 25 1 32 0;
#X connect 26 0 27 0;
#X connect 27 0 34 0;
#X connect 28 0 29 0;
#X connect 29 0 34 0;
#X connect 30 0 31 0;
#X connect 31 0 33 0;
#X connect 32 0 30 0;
#X connect 33 0 34 0;
#X connect 34 0 6 0;
#X restore 563 378 pd knob3;
#N canvas 598 101 742 678 knob4 0;
#X obj 327 105 r \$0-on;
#X obj 98 396 list prepend 1;
#X obj 98 420 list trim;
#X obj 98 474 t a a;
#X obj 193 369 + 1;
#X obj 239 511 unpack;
#X obj 99 327 t a a, f 25;
#X obj 273 373 * 100;
#X obj 273 397 i;
#X obj 327 211 t b a a a;
#X obj 99 113 spigot;
#X obj 138 85 r edit-mode;
#X obj 156 122 r sub-edit-mode;
#X obj 99 169 spigot;
#X obj 156 146 == 1;
#X obj 366 132 r sub-edit-mode;
#X obj 327 182 spigot;
#X obj 366 156 == 1;
#X obj 387 243 tabread \$0-dur-edit;
#X obj 278 556 tabwrite \$0-dur-edit;
#X msg 274 425 4: Duration: \$1%;
#X obj 275 468 s screenLine4;
#X msg 98 562 \; \$1-dur \$2;
#X obj 99 60 r knob4;
#X connect 0 0 16 0;
#X connect 1 0 2 0;
#X connect 2 0 3 0;
#X connect 3 0 22 0;
#X connect 3 1 5 0;
#X connect 4 0 1 1;
#X connect 5 1 19 0;
#X connect 6 0 1 0;
#X connect 6 1 7 0;
#X connect 7 0 8 0;
#X connect 8 0 20 0;
#X connect 9 1 4 0;
#X connect 9 2 19 1;
#X connect 9 3 18 0;
#X connect 10 0 13 0;
#X connect 11 0 10 1;
#X connect 12 0 14 0;
#X connect 13 0 6 0;
#X connect 14 0 13 1;
#X connect 15 0 17 0;
#X connect 16 0 9 0;
#X connect 17 0 16 1;
#X connect 18 0 7 0;
#X connect 20 0 21 0;
#X connect 23 0 10 0;
#X restore 562 419 pd knob4;
#X obj 703 134 array define \$0-vol-edit 24;
#X obj 705 171 array define \$0-delTime-edit 24;
#X obj 706 204 array define \$0-delFb-edit 24;
#X obj 708 231 array define \$0-delVol-edit 24;
#X text 646 303 Speed;
#X obj 703 314 array define \$0-speed-edit 24;
#X text 635 348 Att;
#X text 638 376 Dec;
#X text 639 416 Duration;
#X obj 715 351 array define \$0-att-edit 24;
#X obj 716 384 array define \$0-dec-edit 24;
#X obj 717 411 array define \$0-dur-edit 24;
#X obj 81 99 r reprint-sub;
#X obj 60 132 f;
#X connect 1 0 2 0;
#X connect 2 0 5 0;
#X connect 5 0 46 0;
#X connect 6 0 4 0;
#X connect 17 0 18 0;
#X connect 18 0 22 0;
#X connect 18 1 20 0;
#X connect 18 1 25 0;
#X connect 20 0 19 0;
#X connect 21 0 24 0;
#X connect 22 0 26 0;
#X connect 22 1 23 0;
#X connect 23 0 19 0;
#X connect 24 0 20 0;
#X connect 25 0 7 0;
#X connect 26 0 7 0;
#X connect 27 0 6 1;
#X connect 45 0 46 0;
#X connect 46 0 6 0;
#X restore 376 106 pd delay-amounts;
#X text 389 22 main knobs;
#N canvas 647 198 830 625 knobs 0;
#X obj 17 17 r knob1;
#X obj 17 41 * 260;
#X obj 17 65 + 40;
#X obj 17 89 i;
#X obj 106 18 r knob2;
#X obj 106 42 * 10;
#X obj 106 66 i;
#X obj 106 90 / 10;
#X obj 17 193 + 0;
#X obj 115 299 s screenLine1;
#X obj 154 179 r edit-mode;
#X obj 115 229 spigot;
#X obj 17 113 t a a;
#X obj 106 114 t b a a;
#X msg 115 253 1: Tempo: \$1 BPM;
#X obj 317 178 r edit-mode;
#X obj 278 228 spigot;
#X obj 278 298 s screenLine2;
#X obj 17 217 t a a;
#X obj 127 344 r edit-mode;
#X obj 88 394 spigot;
#X obj 88 464 s screenLine3;
#X obj 17 324 s main-bpm;
#X msg 279 252 2: Fine: +\$1;
#X msg 88 427 Main Tempo: \$1 BPM;
#X obj 154 203 ==;
#X obj 317 202 ==;
#X obj 127 368 ==;
#X obj 221 52 r reprint-main-values;
#X obj 221 76 t b b;
#X connect 0 0 1 0;
#X connect 1 0 2 0;
#X connect 2 0 3 0;
#X connect 3 0 12 0;
#X connect 4 0 5 0;
#X connect 5 0 6 0;
#X connect 6 0 7 0;
#X connect 7 0 13 0;
#X connect 8 0 18 0;
#X connect 10 0 25 0;
#X connect 11 0 14 0;
#X connect 12 0 8 0;
#X connect 12 1 11 0;
#X connect 13 0 8 0;
#X connect 13 1 8 1;
#X connect 13 2 16 0;
#X connect 14 0 9 0;
#X connect 15 0 26 0;
#X connect 16 0 23 0;
#X connect 18 0 22 0;
#X connect 18 1 20 0;
#X connect 19 0 27 0;
#X connect 20 0 24 0;
#X connect 23 0 17 0;
#X connect 24 0 21 0;
#X connect 25 0 11 1;
#X connect 26 0 16 1;
#X connect 27 0 20 1;
#X connect 28 0 29 0;
#X connect 29 0 1 0;
#X connect 29 1 5 0;
#X restore 382 42 pd knobs;
#X obj 134 27 loadbang;
#X obj 134 51 t b b b;
#X obj 199 122 s edit-mode;
#X obj 199 86 0;
#X obj 215 49 bng 15 250 50 0 empty empty empty 17 7 0 10 -262144 -1
-1;
#X obj 175 151 s sub-edit-mode;
#X connect 0 0 1 0;
#X connect 1 0 2 0;
#X connect 3 0 5 0;
#X connect 4 0 6 0;
#X connect 7 0 5 0;
#X connect 8 0 6 0;
#X connect 12 0 13 0;
#X connect 13 2 15 0;
#X connect 15 0 14 0;
#X connect 15 0 17 0;
#X connect 16 0 13 0;
