#N canvas 407 380 1176 530 12;
#X obj 26 40 r notes;
#N canvas 527 302 920 489 knobs 1;
#X text 217 19 del note amt;
#X text 502 18 feedback;
#X text 792 25 tempo;
#X obj 14 72 r knob1;
#X obj 14 96 * 4;
#X obj 14 120 - 2;
#X text 22 28 speed;
#X obj 70 262 s screenLine1;
#X msg 70 224 1: Speed: \$1%;
#X obj 70 174 * 100;
#X obj 70 198 i;
#X obj 14 144 t a a;
#X obj 14 306 s speed;
#X obj 720 27 r knob4;
#X obj 720 75 + 50;
#X obj 720 51 * 130;
#X obj 720 349 s globBpm;
#X obj 720 198 t a a, f 11;
#X obj 720 123 i;
#X obj 720 99 * 10;
#X obj 720 146 * 0.1;
#X obj 567 165 * 100;
#X obj 567 189 i;
#X obj 511 135 t a a;
#X obj 511 65 r knob3;
#X obj 511 159 * 0.99;
#X msg 567 214 3: Feedback: \$1%;
#X obj 794 314 s screenLine4;
#X obj 567 253 s screenLine3;
#X obj 511 297 s globFb;
#X obj 236 196 t a a, f 8;
#X obj 236 66 r knob2;
#X obj 236 318 s globNoteDel;
#X obj 236 90 * 24;
#X obj 236 115 i;
#X obj 236 139 swap 24;
#X obj 236 163 -, f 7;
#X obj 289 281 s screenLine2;
#X msg 289 244 2: fbNoteTime: 1/\$1;
#X msg 794 275 4: Tempo: \$1BPM;
#X connect 3 0 4 0;
#X connect 4 0 5 0;
#X connect 5 0 11 0;
#X connect 8 0 7 0;
#X connect 9 0 10 0;
#X connect 10 0 8 0;
#X connect 11 0 12 0;
#X connect 11 1 9 0;
#X connect 13 0 15 0;
#X connect 14 0 19 0;
#X connect 15 0 14 0;
#X connect 17 0 16 0;
#X connect 17 1 39 0;
#X connect 18 0 20 0;
#X connect 19 0 18 0;
#X connect 20 0 17 0;
#X connect 21 0 22 0;
#X connect 22 0 26 0;
#X connect 23 0 25 0;
#X connect 23 1 21 0;
#X connect 24 0 23 0;
#X connect 25 0 29 0;
#X connect 26 0 28 0;
#X connect 30 0 32 0;
#X connect 30 1 38 0;
#X connect 31 0 33 0;
#X connect 33 0 34 0;
#X connect 34 0 35 0;
#X connect 35 0 36 0;
#X connect 35 1 36 1;
#X connect 36 0 30 0;
#X connect 38 0 37 0;
#X connect 39 0 27 0;
#X restore 392 48 pd knobs;
#N canvas 689 288 542 379 synth 0;
#X obj 27 20 inlet;
#X obj 115 103 outlet;
#N canvas 0 25 450 300 mod-24 0;
#X obj 43 28 inlet;
#X obj 43 52 unpack, f 8;
#X obj 43 120 % 24;
#X obj 43 174 pack 0 0;
#X obj 43 198 outlet;
#X obj 43 148 abs;
#X obj 43 76 + 12;
#X connect 0 0 1 0;
#X connect 1 0 6 0;
#X connect 1 1 3 1;
#X connect 2 0 5 0;
#X connect 3 0 4 0;
#X connect 5 0 3 0;
#X connect 6 0 2 0;
#X restore 27 51 pd mod-24;
#N canvas 681 46 604 386 route12/24 0;
#X obj 37 17 inlet;
#X obj 37 201 list store;
#X obj 37 257 route 0 1, f 24;
#X obj 37 298 outlet;
#X obj 119 299 outlet;
#X obj 37 61 t b a a, f 21;
#X obj 118 166 t b;
#X obj 171 165 t b;
#X obj 37 225 list prepend;
#X obj 118 190 0;
#X obj 171 189 1;
#X obj 117 114 unpack;
#X obj 118 140 moses 12;
#X connect 0 0 5 0;
#X connect 1 0 8 0;
#X connect 2 0 3 0;
#X connect 2 1 4 0;
#X connect 5 0 1 0;
#X connect 5 1 11 0;
#X connect 5 2 1 1;
#X connect 6 0 9 0;
#X connect 7 0 10 0;
#X connect 8 0 2 0;
#X connect 9 0 8 1;
#X connect 10 0 8 1;
#X connect 11 0 12 0;
#X connect 12 0 6 0;
#X connect 12 1 7 0;
#X restore 27 75 pd route12/24;
#X text 166 103 pass 12-23 notes to samples;
#N canvas 4 50 742 450 synths 0;
#X obj 19 15 inlet;
#N canvas 4 50 1230 713 bubbles 0;
#X obj 182 492 *~ 0.5;
#X obj 182 361 osc~;
#X obj 182 385 *~ 0.5;
#X obj 182 409 *~, f 16;
#X msg 195 145 100;
#X obj 184 175 t f f b;
#X obj 182 243 *~ 1000;
#X obj 182 269 +~ 800;
#X obj 254 323 j-pop-env~ 1 24;
#X obj 385 357 osc~;
#X obj 385 405 *~, f 16;
#X msg 398 141 100;
#X obj 387 171 t f f b;
#X obj 385 239 *~ 1000;
#X obj 183 209 j-pop-env~ 3 8;
#X obj 592 351 osc~;
#X obj 592 399 *~, f 16;
#X msg 605 135 100;
#X obj 594 164 t f f b;
#X obj 592 232 *~ 456;
#X obj 592 259 +~ 45;
#X obj 686 255 j-pop-env~ 1 12;
#X obj 695 226 f;
#X obj 702 169 del 123;
#X floatatom 621 316 5 0 0 0 - - -;
#X obj 592 375 *~ 0.45;
#X obj 385 381 *~ 0.125;
#X obj 465 233 f;
#X obj 472 176 del 123;
#X obj 457 318 j-pop-env~ 1 89;
#X obj 593 196 j-pop-env~ 1 12;
#X floatatom 264 523 5 0 0 0 - - -;
#X floatatom 314 530 5 0 0 0 - - -;
#X obj 385 265 +~ 500;
#X obj 386 205 j-pop-env~ 3 3;
#X obj 665 314 j-pop-env~ 1 123;
#X obj 181 556 del-bpm globBpm;
#X obj 258 38 j-switch-delay 123;
#X obj 258 62 switch~;
#X obj 160 30 inlet;
#X obj 160 54 t a a a;
#X connect 0 0 36 0;
#X connect 0 0 36 1;
#X connect 1 0 2 0;
#X connect 2 0 3 0;
#X connect 3 0 0 0;
#X connect 4 0 5 0;
#X connect 5 0 14 0;
#X connect 5 1 8 0;
#X connect 6 0 7 0;
#X connect 7 0 1 0;
#X connect 8 0 3 1;
#X connect 9 0 26 0;
#X connect 10 0 0 0;
#X connect 11 0 12 0;
#X connect 12 0 34 0;
#X connect 12 1 27 1;
#X connect 12 1 29 0;
#X connect 12 2 28 0;
#X connect 13 0 33 0;
#X connect 14 0 6 0;
#X connect 15 0 25 0;
#X connect 16 0 0 0;
#X connect 17 0 18 0;
#X connect 18 0 30 0;
#X connect 18 0 12 0;
#X connect 18 1 22 1;
#X connect 18 1 35 0;
#X connect 18 2 23 0;
#X connect 19 0 20 0;
#X connect 20 0 15 0;
#X connect 21 0 19 0;
#X connect 22 0 21 0;
#X connect 22 0 12 0;
#X connect 23 0 22 0;
#X connect 24 0 20 1;
#X connect 25 0 16 0;
#X connect 26 0 10 0;
#X connect 27 0 5 0;
#X connect 28 0 27 0;
#X connect 29 0 10 1;
#X connect 30 0 19 0;
#X connect 31 0 36 2;
#X connect 32 0 36 3;
#X connect 33 0 9 0;
#X connect 34 0 13 0;
#X connect 35 0 16 1;
#X connect 37 0 38 0;
#X connect 39 0 40 0;
#X connect 40 0 5 0;
#X connect 40 1 18 0;
#X connect 40 2 37 0;
#X restore 19 79 pd bubbles;
#X obj 19 39 route 0 1 2 3 4 5, f 68;
#X obj 19 160 route 6 7 8 9 10 11, f 68;
#X connect 0 0 2 0;
#X connect 2 0 1 0;
#X connect 2 6 3 0;
#X restore 27 175 pd synths;
#X connect 0 0 2 0;
#X connect 2 0 3 0;
#X connect 3 0 5 0;
#X connect 3 1 1 0;
#X restore 26 73 pd synth;
#N canvas 1071 138 802 463 samples 0;
#X obj 21 13 inlet;
#X obj 178 126 list prepend save;
#X obj 178 150 list trim;
#X obj 448 159 list trim;
#X obj 448 135 list prepend init;
#X msg 178 94 samples;
#X obj 448 55 loadbang;
#X obj 448 79 del 100;
#X msg 448 107 samples;
#X msg 360 243 load \$1;
#X msg 456 230 4;
#X obj 178 268 j-sample-bank howdy 4 samples;
#X connect 1 0 2 0;
#X connect 2 0 11 0;
#X connect 3 0 11 0;
#X connect 4 0 3 0;
#X connect 5 0 1 0;
#X connect 6 0 7 0;
#X connect 7 0 8 0;
#X connect 8 0 4 0;
#X connect 9 0 11 0;
#X connect 10 0 9 0;
#X restore 26 110 pd samples;
#X connect 0 0 2 0;
#X connect 2 0 3 0;
