#N canvas 197 138 1176 530 12;
#X obj 26 40 r notes;
#N canvas 520 302 1128 489 knobs 0;
#X text 217 19 del note amt;
#X text 502 18 feedback;
#X text 792 25 tempo;
#X obj 14 72 r knob1;
#X obj 14 166 * 4;
#X obj 14 190 - 2;
#X text 22 28 speed;
#X obj 70 332 s screenLine1;
#X msg 70 294 1: Speed: \$1%;
#X obj 70 244 * 100;
#X obj 70 268 i;
#X obj 14 214 t a a;
#X obj 720 27 r knob4;
#X obj 720 175 + 50;
#X obj 720 151 * 130;
#X obj 720 449 s globBpm;
#X obj 720 298 t a a, f 11;
#X obj 720 223 i;
#X obj 720 199 * 10;
#X obj 720 246 * 0.1;
#X obj 567 235 * 100;
#X obj 567 259 i;
#X obj 511 205 t a a;
#X obj 511 65 r knob3;
#X obj 511 229 * 0.99;
#X msg 567 284 3: Feedback: \$1%;
#X obj 794 414 s screenLine4;
#X obj 567 323 s screenLine3;
#X obj 511 367 s globFb;
#X obj 236 266 t a a, f 8;
#X obj 236 66 r knob2;
#X obj 236 388 s globNoteDel;
#X obj 236 160 * 24;
#X obj 236 185 i;
#X obj 236 209 swap 24;
#X obj 236 233 -, f 7;
#X obj 289 351 s screenLine2;
#X msg 289 314 2: fbNoteTime: 1/\$1;
#X obj 84 39 r mute-main-knobs;
#X obj 14 96 spigot 1;
#X obj 232 107 spigot 1;
#X obj 508 113 spigot 1;
#X obj 719 78 spigot 1;
#X obj 14 376 s globalSpeed;
#X obj 14 238 * 12;
#X msg 794 375 4: Tempo: \$1 BPM;
#X obj 101 113 sel 1;
#X obj 84 63 t a a;
#X obj 316 44 r mute-main-knobs;
#X obj 333 118 sel 1;
#X obj 316 68 t a a;
#X obj 588 38 r mute-main-knobs;
#X obj 605 112 sel 1;
#X obj 588 62 t a a;
#X obj 514 168 f;
#X obj 866 29 r mute-main-knobs;
#X obj 883 103 sel 1;
#X obj 866 53 t a a;
#X obj 719 102 f;
#X obj 232 131 f, f 4;
#X obj 14 132 f;
#X connect 3 0 39 0;
#X connect 4 0 5 0;
#X connect 5 0 11 0;
#X connect 8 0 7 0;
#X connect 9 0 10 0;
#X connect 10 0 8 0;
#X connect 11 0 44 0;
#X connect 11 1 9 0;
#X connect 12 0 42 0;
#X connect 13 0 18 0;
#X connect 14 0 13 0;
#X connect 16 0 15 0;
#X connect 16 1 45 0;
#X connect 17 0 19 0;
#X connect 18 0 17 0;
#X connect 19 0 16 0;
#X connect 20 0 21 0;
#X connect 21 0 25 0;
#X connect 22 0 24 0;
#X connect 22 1 20 0;
#X connect 23 0 41 0;
#X connect 24 0 28 0;
#X connect 25 0 27 0;
#X connect 29 0 31 0;
#X connect 29 1 37 0;
#X connect 30 0 40 0;
#X connect 32 0 33 0;
#X connect 33 0 34 0;
#X connect 34 0 35 0;
#X connect 34 1 35 1;
#X connect 35 0 29 0;
#X connect 37 0 36 0;
#X connect 38 0 47 0;
#X connect 39 0 60 0;
#X connect 40 0 59 0;
#X connect 41 0 54 0;
#X connect 42 0 58 0;
#X connect 44 0 43 0;
#X connect 45 0 26 0;
#X connect 46 0 60 0;
#X connect 47 0 39 1;
#X connect 47 1 46 0;
#X connect 48 0 50 0;
#X connect 49 0 59 0;
#X connect 50 0 40 1;
#X connect 50 1 49 0;
#X connect 51 0 53 0;
#X connect 52 0 54 0;
#X connect 53 0 41 1;
#X connect 53 1 52 0;
#X connect 54 0 22 0;
#X connect 55 0 57 0;
#X connect 56 0 58 0;
#X connect 57 0 42 1;
#X connect 57 1 56 0;
#X connect 58 0 14 0;
#X connect 59 0 32 0;
#X connect 60 0 4 0;
#X restore 392 48 pd knobs;
#N canvas 689 288 542 379 synth 0;
#X obj 27 20 inlet;
#X obj 115 103 outlet;
#N canvas 0 25 450 300 mod-24 0;
#X obj 43 28 inlet;
#X obj 43 52 unpack, f 8;
#X obj 43 120 % 24;
#X obj 43 174 pack 0 0;
#X obj 43 198 outlet;
#X obj 43 148 abs;
#X obj 43 76 + 12;
#X connect 0 0 1 0;
#X connect 1 0 6 0;
#X connect 1 1 3 1;
#X connect 2 0 5 0;
#X connect 3 0 4 0;
#X connect 5 0 3 0;
#X connect 6 0 2 0;
#X restore 27 51 pd mod-24;
#N canvas 681 46 604 386 route12/24 0;
#X obj 37 17 inlet;
#X obj 37 201 list store;
#X obj 37 257 route 0 1, f 24;
#X obj 37 298 outlet;
#X obj 119 299 outlet;
#X obj 37 61 t b a a, f 21;
#X obj 118 166 t b;
#X obj 171 165 t b;
#X obj 37 225 list prepend;
#X obj 118 190 0;
#X obj 171 189 1;
#X obj 117 114 unpack;
#X obj 118 140 moses 12;
#X connect 0 0 5 0;
#X connect 1 0 8 0;
#X connect 2 0 3 0;
#X connect 2 1 4 0;
#X connect 5 0 1 0;
#X connect 5 1 11 0;
#X connect 5 2 1 1;
#X connect 6 0 9 0;
#X connect 7 0 10 0;
#X connect 8 0 2 0;
#X connect 9 0 8 1;
#X connect 10 0 8 1;
#X connect 11 0 12 0;
#X connect 12 0 6 0;
#X connect 12 1 7 0;
#X restore 27 75 pd route12/24;
#X text 166 103 pass 12-23 notes to samples;
#N canvas 581 179 743 445 synths 0;
#X obj 19 15 inlet;
#N canvas 210 53 1230 713 bubbles 0;
#X obj 182 361 osc~;
#X obj 182 385 *~ 0.5;
#X obj 182 409 *~, f 16;
#X msg 195 145 100;
#X obj 184 175 t f f b;
#X obj 182 243 *~ 1000;
#X obj 182 269 +~ 800;
#X obj 254 323 j-pop-env~ 1 24;
#X obj 385 357 osc~;
#X obj 385 405 *~, f 16;
#X msg 398 141 100;
#X obj 387 171 t f f b;
#X obj 385 239 *~ 1000;
#X obj 183 209 j-pop-env~ 3 8;
#X obj 592 351 osc~;
#X obj 592 399 *~, f 16;
#X obj 594 164 t f f b;
#X obj 592 232 *~ 456;
#X obj 691 240 f;
#X obj 592 375 *~ 0.45;
#X obj 385 381 *~ 0.125;
#X obj 469 253 f;
#X obj 457 318 j-pop-env~ 1 89;
#X obj 593 196 j-pop-env~ 1 12;
#X obj 385 265 +~ 500;
#X obj 386 205 j-pop-env~ 3 3;
#X obj 665 314 j-pop-env~ 1 123;
#X obj 160 30 inlet;
#X obj 378 514 synth-voice 1;
#X obj 160 54 sel 0;
#X obj 503 208 del 350;
#X obj 702 169 del 350;
#X obj 592 259 +~ 145;
#X connect 0 0 1 0;
#X connect 1 0 2 0;
#X connect 2 0 28 0;
#X connect 2 0 28 1;
#X connect 3 0 4 0;
#X connect 4 0 13 0;
#X connect 4 1 7 0;
#X connect 5 0 6 0;
#X connect 6 0 0 0;
#X connect 7 0 2 1;
#X connect 8 0 20 0;
#X connect 9 0 28 0;
#X connect 9 0 28 1;
#X connect 10 0 11 0;
#X connect 11 0 25 0;
#X connect 11 1 21 1;
#X connect 11 1 22 0;
#X connect 11 2 30 0;
#X connect 12 0 24 0;
#X connect 13 0 5 0;
#X connect 14 0 19 0;
#X connect 15 0 28 0;
#X connect 15 0 28 1;
#X connect 16 0 23 0;
#X connect 16 0 11 0;
#X connect 16 1 18 1;
#X connect 16 1 26 0;
#X connect 16 2 31 0;
#X connect 17 0 32 0;
#X connect 18 0 11 0;
#X connect 19 0 15 0;
#X connect 20 0 9 0;
#X connect 21 0 4 0;
#X connect 22 0 9 1;
#X connect 23 0 17 0;
#X connect 24 0 8 0;
#X connect 25 0 12 0;
#X connect 26 0 15 1;
#X connect 27 0 29 0;
#X connect 29 1 16 0;
#X connect 30 0 21 0;
#X connect 31 0 18 0;
#X connect 32 0 14 0;
#X restore 19 79 pd bubbles;
#X obj 19 39 route 0 1 2 3 4 5, f 68;
#X obj 19 160 route 6 7 8 9 10 11, f 68;
#N canvas 210 50 1230 732 claps 0;
#X obj 160 30 inlet;
#N canvas 684 50 633 707 root 0;
#X obj 350 34 inlet;
#X text 401 38 trigger;
#X obj 101 508 outlet~;
#X obj 102 217 noise~;
#X obj 172 143 r \$0-cut;
#X obj 219 192 r \$0-width;
#X obj 219 216 t b a;
#X obj 172 167 t a a;
#X obj 102 432 *~, f 36;
#N canvas 610 310 690 524 envelopes 0;
#N canvas 528 263 912 476 vol-env 0;
#X obj 42 158 vline~;
#X obj 42 182 *~;
#X obj 42 206 *~;
#X obj 42 32 inlet;
#X text 88 30 bang;
#X msg 42 129 1 0.2 \, 0 \$1 0.2;
#X obj 42 230 outlet~;
#X obj 140 38 inlet;
#X text 193 37 env;
#X obj 42 95 pack 0 40;
#X connect 0 0 1 0;
#X connect 0 0 1 1;
#X connect 1 0 2 0;
#X connect 1 0 2 1;
#X connect 2 0 6 0;
#X connect 3 0 9 0;
#X connect 5 0 0 0;
#X connect 7 0 9 1;
#X connect 9 0 5 0;
#X restore 39 218 pd vol-env;
#N canvas 528 263 912 476 vol-env 0;
#X obj 42 158 vline~;
#X obj 42 182 *~;
#X obj 42 206 *~;
#X obj 42 32 inlet;
#X text 88 30 bang;
#X msg 42 129 1 0.2 \, 0 \$1 0.2;
#X obj 42 230 outlet~;
#X obj 140 38 inlet;
#X text 193 37 env;
#X obj 42 96 pack 0 35;
#X connect 0 0 1 0;
#X connect 0 0 1 1;
#X connect 1 0 2 0;
#X connect 1 0 2 1;
#X connect 2 0 6 0;
#X connect 3 0 9 0;
#X connect 5 0 0 0;
#X connect 7 0 9 1;
#X connect 9 0 5 0;
#X restore 147 248 pd vol-env;
#N canvas 528 263 912 476 vol-env 0;
#X obj 42 158 vline~;
#X obj 42 182 *~;
#X obj 42 206 *~;
#X obj 42 32 inlet;
#X text 88 30 bang;
#X msg 42 129 1 0.2 \, 0 \$1 0.2;
#X obj 42 230 outlet~;
#X obj 140 38 inlet;
#X text 193 37 env;
#X obj 42 97 pack 0 20;
#X connect 0 0 1 0;
#X connect 0 0 1 1;
#X connect 1 0 2 0;
#X connect 1 0 2 1;
#X connect 2 0 6 0;
#X connect 3 0 9 0;
#X connect 5 0 0 0;
#X connect 7 0 9 1;
#X connect 9 0 5 0;
#X restore 290 267 pd vol-env;
#N canvas 528 263 912 476 vol-env 0;
#X obj 42 158 vline~;
#X obj 42 182 *~;
#X obj 42 206 *~;
#X obj 42 32 inlet;
#X text 88 30 bang;
#X msg 42 129 1 0.2 \, 0 \$1 0.2;
#X obj 42 230 outlet~;
#X obj 140 38 inlet;
#X text 193 37 env;
#X obj 42 96 pack 0 10;
#X connect 0 0 1 0;
#X connect 0 0 1 1;
#X connect 1 0 2 0;
#X connect 1 0 2 1;
#X connect 2 0 6 0;
#X connect 3 0 9 0;
#X connect 5 0 0 0;
#X connect 7 0 9 1;
#X connect 9 0 5 0;
#X restore 439 267 pd vol-env;
#X obj 124 470 outlet~;
#X obj 30 28 inlet;
#X obj 142 119 del 20;
#X obj 142 143 t b b;
#X obj 223 120 del 20;
#X obj 223 144 t b b;
#X obj 303 140 del 20;
#X text 269 6 env;
#X obj 545 127 r \$0-decay;
#X obj 413 55 r \$0-ratio;
#X obj 545 151 t b a;
#X obj 399 126 * 1;
#X obj 413 79 t b a;
#X obj 188 5 r \$0-env;
#X obj 398 156 f 20;
#X obj 188 29 t a a a a, f 29;
#X obj 30 52 t b b a;
#X obj 77 112 s \$0-vel;
#X obj 69 154 r \$0-vel;
#X obj 39 185 f;
#X obj 170 187 r \$0-vel;
#X obj 140 218 f;
#X obj 315 208 r \$0-vel;
#X obj 285 239 f;
#X obj 465 198 r \$0-vel;
#X obj 435 229 f;
#X obj 546 189 * 1;
#X connect 0 0 4 0;
#X connect 1 0 4 0;
#X connect 2 0 4 0;
#X connect 3 0 4 0;
#X connect 5 0 20 0;
#X connect 6 0 7 0;
#X connect 7 0 25 0;
#X connect 7 1 8 0;
#X connect 8 0 9 0;
#X connect 9 0 27 0;
#X connect 9 1 10 0;
#X connect 10 0 29 0;
#X connect 12 0 14 0;
#X connect 13 0 16 0;
#X connect 14 0 30 0;
#X connect 14 1 30 1;
#X connect 15 0 18 0;
#X connect 16 0 15 0;
#X connect 16 1 15 1;
#X connect 17 0 19 0;
#X connect 18 0 2 1;
#X connect 18 0 1 1;
#X connect 18 0 0 1;
#X connect 18 0 30 0;
#X connect 19 0 6 1;
#X connect 19 1 8 1;
#X connect 19 2 10 1;
#X connect 19 3 15 0;
#X connect 20 0 23 0;
#X connect 20 1 6 0;
#X connect 20 2 21 0;
#X connect 22 0 23 1;
#X connect 23 0 0 0;
#X connect 24 0 25 1;
#X connect 25 0 1 0;
#X connect 26 0 27 1;
#X connect 27 0 2 0;
#X connect 28 0 29 1;
#X connect 29 0 3 0;
#X connect 30 0 3 1;
#X restore 351 307 pd envelopes;
#X obj 204 262 + 500, f 7;
#X obj 102 408 *~ 0.75;
#X obj 351 105 / 127;
#X obj 351 129 sqrt;
#X obj 351 153 sqrt;
#X obj 350 58 sel 0;
#X obj 102 324 lop~ 1000, f 15;
#X obj 102 348 lop~ 1000;
#X obj 102 250 hip~ 4000;
#X obj 102 274 hip~ 4000, f 11;
#X connect 0 0 15 0;
#X connect 3 0 18 0;
#X connect 4 0 7 0;
#X connect 5 0 6 0;
#X connect 6 0 10 0;
#X connect 6 1 10 1;
#X connect 7 0 18 1;
#X connect 7 0 19 1;
#X connect 7 1 10 0;
#X connect 8 0 2 0;
#X connect 9 0 8 1;
#X connect 10 0 16 1;
#X connect 10 0 17 1;
#X connect 11 0 8 0;
#X connect 12 0 13 0;
#X connect 13 0 14 0;
#X connect 14 0 9 0;
#X connect 15 1 12 0;
#X connect 16 0 17 0;
#X connect 17 0 11 0;
#X connect 18 0 19 0;
#X connect 19 0 16 0;
#X restore 231 205 pd root;
#X obj 146 295 synth-voice 2;
#X connect 0 0 1 0;
#X connect 1 0 2 0;
#X connect 1 0 2 1;
#X restore 102 79 pd claps;
#N canvas 210 50 1230 732 woop 0;
#X obj 160 30 inlet;
#N canvas 684 50 633 707 root 0;
#X obj 350 34 inlet;
#X text 401 38 trigger;
#X obj 26 680 outlet~;
#X obj 27 580 *~ 0.75;
#X obj 351 105 / 127;
#X obj 351 129 sqrt;
#X obj 350 58 sel 0;
#X obj 68 303 osc~;
#X obj 55 438 *~, f 20;
#X obj 163 214 vline~;
#X obj 163 238 *~;
#X obj 122 96 vline~;
#X obj 122 120 *~;
#X obj 216 12 t b a;
#X obj 27 604 hip~ 5, f 7;
#X msg 115 60 0 0 \, 1 3000 0;
#X msg 187 172 \$1 30 \, 0 1000 1970;
#X obj 122 168 +~ 234;
#X obj 123 144 *~ 2000;
#X obj 7 152 *~;
#X obj 86 214 +~;
#X obj 7 104 osc~ 10;
#X obj 7 128 *~ 10;
#X obj 122 276 osc~;
#X obj 122 300 /~ 24;
#X obj 122 252 *~ 3.3;
#X obj 165 471 j-simple-bandlimit~;
#X obj 61 528 *~;
#X connect 0 0 6 0;
#X connect 3 0 14 0;
#X connect 4 0 5 0;
#X connect 5 0 13 0;
#X connect 6 1 4 0;
#X connect 7 0 8 0;
#X connect 8 0 27 0;
#X connect 9 0 10 0;
#X connect 9 0 10 1;
#X connect 10 0 8 1;
#X connect 10 0 19 1;
#X connect 11 0 12 0;
#X connect 11 0 12 1;
#X connect 12 0 18 0;
#X connect 13 0 15 0;
#X connect 13 1 16 0;
#X connect 14 0 2 0;
#X connect 15 0 11 0;
#X connect 16 0 9 0;
#X connect 17 0 20 1;
#X connect 18 0 17 0;
#X connect 19 0 20 0;
#X connect 20 0 7 0;
#X connect 20 0 25 0;
#X connect 20 0 26 0;
#X connect 21 0 22 0;
#X connect 22 0 19 0;
#X connect 23 0 24 0;
#X connect 24 0 8 0;
#X connect 25 0 23 0;
#X connect 26 0 27 1;
#X connect 27 0 3 0;
#X restore 231 205 pd root;
#X obj 146 295 synth-voice 3;
#X connect 0 0 1 0;
#X connect 1 0 2 0;
#X connect 1 0 2 1;
#X restore 176 80 pd woop;
#X connect 0 0 2 0;
#X connect 2 0 1 0;
#X connect 2 1 4 0;
#X connect 2 2 5 0;
#X connect 2 6 3 0;
#X restore 27 175 pd synths;
#X connect 0 0 2 0;
#X connect 2 0 3 0;
#X connect 3 0 5 0;
#X connect 3 1 1 0;
#X restore 26 73 pd synth;
#N canvas 638 138 802 463 samples 0;
#X obj 23 21 inlet;
#X obj 317 112 list prepend save;
#X obj 317 136 list trim;
#X obj 587 145 list trim;
#X obj 587 121 list prepend init;
#X msg 317 80 samples;
#X obj 587 41 loadbang;
#X obj 587 65 del 100;
#X msg 587 93 samples;
#X msg 499 229 load \$1;
#N canvas 432 134 798 464 samples 0;
#X obj 19 45 inlet;
#X obj 19 69 route 12 13 14 15 16 17, f 68;
#X obj 18 190 route 18 19 20 21 22 23, f 68;
#X obj 18 130 sample-voice 13;
#X obj 97 104 sample-voice 14;
#X obj 160 129 sample-voice 15;
#X obj 237 103 sample-voice 16;
#X obj 315 134 sample-voice 17;
#X obj 396 109 sample-voice 18;
#X obj 19 250 sample-voice 19;
#X obj 97 221 sample-voice 20;
#X obj 157 248 sample-voice 21;
#X obj 247 222 sample-voice 22;
#X obj 315 252 sample-voice 23;
#X obj 410 224 sample-voice 24;
#X msg 101 17 100;
#X connect 0 0 1 0;
#X connect 1 0 3 0;
#X connect 1 1 4 0;
#X connect 1 2 5 0;
#X connect 1 3 6 0;
#X connect 1 4 7 0;
#X connect 1 5 8 0;
#X connect 1 6 2 0;
#X connect 2 0 9 0;
#X connect 2 1 10 0;
#X connect 2 2 11 0;
#X connect 2 3 12 0;
#X connect 2 4 13 0;
#X connect 2 5 14 0;
#X connect 15 0 3 0;
#X restore 23 152 pd samples;
#X obj 317 254 j-sample-bank howdy 12 samples;
#X msg 595 215 3;
#X connect 0 0 10 0;
#X connect 1 0 2 0;
#X connect 2 0 11 0;
#X connect 3 0 11 0;
#X connect 4 0 3 0;
#X connect 5 0 1 0;
#X connect 6 0 7 0;
#X connect 7 0 8 0;
#X connect 8 0 4 0;
#X connect 9 0 11 0;
#X connect 12 0 9 0;
#X restore 26 110 pd samples;
#X obj 122 232 catch~ samples-bus-L;
#X obj 362 233 catch~ samples-bus-R;
#X obj 122 286 throw~ outL;
#X obj 362 290 throw~ outR;
#X obj 182 259 catch~ synths-bus-L;
#X obj 416 260 catch~ synths-bus-R;
#N canvas 251 172 879 574 delay-amounts 0;
#X text 426 42 hold aux and a key to edit sample/synth;
#X obj 60 16 r notes;
#N canvas 0 25 450 300 mod-24 0;
#X obj 43 28 inlet;
#X obj 43 52 unpack, f 8;
#X obj 43 120 % 24;
#X obj 43 174 pack 0 0;
#X obj 43 198 outlet;
#X obj 43 148 abs;
#X obj 43 76 + 12;
#X connect 0 0 1 0;
#X connect 1 0 6 0;
#X connect 1 1 3 1;
#X connect 2 0 5 0;
#X connect 3 0 4 0;
#X connect 5 0 3 0;
#X connect 6 0 2 0;
#X restore 60 44 pd mod-24;
#X obj 639 127 array define \$0-k1-edit 24;
#X obj 641 174 array define \$0-k2-edit 24;
#X obj 642 224 array define \$0-k3-edit 24;
#X obj 644 271 array define \$0-k4-edit 24;
#X text 535 120 Vol;
#X obj 60 222 s \$0-on;
#X obj 60 68 stripnote;
#X obj 60 162 spigot;
#X obj 73 515 s mute-main-knobs;
#X text 501 170 delTime;
#X text 509 231 delFb;
#X text 523 273 delVol;
#N canvas 622 187 742 646 knob1 0;
#X obj 327 107 r \$0-on;
#X obj 99 60 r knob1;
#X obj 98 276 list prepend 1;
#X obj 98 300 list trim;
#X obj 98 354 t a a;
#X obj 277 436 tabwrite \$0-k1-edit;
#X obj 193 249 + 1;
#X obj 239 391 unpack;
#X obj 275 348 s screenLine1;
#X msg 274 305 1: Volume: \$1%;
#X obj 99 207 t a a, f 25;
#X obj 273 253 * 100;
#X obj 273 277 i;
#X obj 99 231 pow 2;
#X msg 98 442 \; \$1-vol \$2;
#X obj 130 135 v edit-mode;
#X obj 98 105 t a b;
#X obj 98 175 spigot;
#X obj 387 163 tabread \$0-k1-edit;
#X obj 327 131 t b a a a;
#X obj 387 187 sqrt;
#X connect 0 0 19 0;
#X connect 1 0 16 0;
#X connect 2 0 3 0;
#X connect 3 0 4 0;
#X connect 4 0 14 0;
#X connect 4 1 7 0;
#X connect 6 0 2 1;
#X connect 7 1 5 0;
#X connect 9 0 8 0;
#X connect 10 0 13 0;
#X connect 10 1 11 0;
#X connect 11 0 12 0;
#X connect 12 0 9 0;
#X connect 13 0 2 0;
#X connect 15 0 17 1;
#X connect 16 0 17 0;
#X connect 16 1 15 0;
#X connect 17 0 10 0;
#X connect 18 0 20 0;
#X connect 19 1 6 0;
#X connect 19 2 5 1;
#X connect 19 3 18 0;
#X connect 20 0 11 0;
#X restore 337 87 pd knob1;
#N canvas 229 175 976 622 save-and-start 0;
#X obj 51 148 f \$0;
#X msg 52 183 \; \$1-k1-edit write k1-edit.txt \; \$1-k2-edit write
k2-edit.txt \; \$1-k3-edit write k3-edit.txt \; \$1-k4-edit write k4-edit.txt
;
#X obj 51 112 r saveState;
#X obj 602 187 f \$0;
#X msg 603 222 \; \$1-k1-edit read k1-edit.txt \; \$1-k2-edit read
k2-edit.txt \; \$1-k3-edit read k3-edit.txt \; \$1-k4-edit read k4-edit.txt
;
#X obj 456 56 loadbang;
#X obj 473 129 t b b;
#N canvas 531 234 450 397 vol 0;
#X obj 63 107 t a b, f 7;
#X obj 63 131 max 1;
#X obj 63 155 until;
#X obj 63 179 f;
#X obj 104 181 + 1;
#X obj 63 236 tabread \$0-k1-edit;
#X obj 63 78 24;
#X obj 63 260 list prepend;
#X obj 63 284 list trim;
#X obj 63 203 t a a;
#X obj 63 9 inlet;
#X obj 63 33 t b;
#X msg 63 320 \; \$1-vol \$2;
#X msg 183 300 3 0.5;
#X obj 201 260 print huhuh;
#X obj 116 139 0;
#X obj 152 199 + 1;
#X connect 0 0 1 0;
#X connect 0 1 15 0;
#X connect 1 0 2 0;
#X connect 2 0 3 0;
#X connect 3 0 4 0;
#X connect 3 0 9 0;
#X connect 4 0 3 1;
#X connect 5 0 7 0;
#X connect 6 0 0 0;
#X connect 7 0 8 0;
#X connect 8 0 12 0;
#X connect 8 0 14 0;
#X connect 9 0 5 0;
#X connect 9 1 16 0;
#X connect 10 0 11 0;
#X connect 11 0 6 0;
#X connect 13 0 12 0;
#X connect 15 0 3 1;
#X connect 16 0 7 1;
#X restore 455 390 pd vol;
#X obj 454 277 t b b b b;
#N canvas 4 50 450 397 delTime 0;
#X obj 63 107 t a b, f 7;
#X obj 63 131 max 1;
#X obj 63 155 until;
#X obj 63 179 f;
#X obj 104 181 + 1;
#X obj 63 78 24;
#X obj 63 260 list prepend;
#X obj 63 284 list trim;
#X obj 63 203 t a a;
#X obj 63 9 inlet;
#X obj 63 33 t b;
#X obj 63 236 tabread \$0-k2-edit;
#X msg 63 320 \; \$1-delTime \$2;
#X obj 116 139 0;
#X obj 159 175 + 1;
#X connect 0 0 1 0;
#X connect 0 1 13 0;
#X connect 1 0 2 0;
#X connect 2 0 3 0;
#X connect 3 0 4 0;
#X connect 3 0 8 0;
#X connect 4 0 3 1;
#X connect 5 0 0 0;
#X connect 6 0 7 0;
#X connect 7 0 12 0;
#X connect 8 0 11 0;
#X connect 8 1 14 0;
#X connect 9 0 10 0;
#X connect 10 0 5 0;
#X connect 11 0 6 0;
#X connect 13 0 3 1;
#X connect 14 0 6 1;
#X restore 468 365 pd delTime;
#N canvas 4 50 450 397 delFb 0;
#X obj 63 107 t a b, f 7;
#X obj 63 131 max 1;
#X obj 63 155 until;
#X obj 63 179 f;
#X obj 104 181 + 1;
#X obj 63 78 24;
#X obj 63 260 list prepend;
#X obj 63 284 list trim;
#X obj 63 203 t a a;
#X obj 63 9 inlet;
#X obj 63 33 t b;
#X obj 63 236 tabread \$0-k3-edit;
#X msg 63 320 \; \$1-delFb \$2;
#X obj 116 139 0;
#X obj 161 204 + 1;
#X connect 0 0 1 0;
#X connect 0 1 13 0;
#X connect 1 0 2 0;
#X connect 2 0 3 0;
#X connect 3 0 4 0;
#X connect 3 0 8 0;
#X connect 4 0 3 1;
#X connect 5 0 0 0;
#X connect 6 0 7 0;
#X connect 7 0 12 0;
#X connect 8 0 11 0;
#X connect 8 1 14 0;
#X connect 9 0 10 0;
#X connect 10 0 5 0;
#X connect 11 0 6 0;
#X connect 13 0 3 1;
#X connect 14 0 6 1;
#X restore 496 339 pd delFb;
#N canvas 577 253 450 397 delVol 0;
#X obj 63 107 t a b, f 7;
#X obj 63 131 max 1;
#X obj 63 155 until;
#X obj 63 179 f;
#X obj 104 181 + 1;
#X obj 63 78 24;
#X obj 63 290 list prepend, f 25;
#X obj 63 314 list trim;
#X obj 63 203 t a a;
#X obj 63 9 inlet;
#X obj 63 33 t b;
#X obj 63 266 tabread \$0-k4-edit;
#X msg 64 350 \; \$1-delVol \$2;
#X obj 180 321 print huh;
#X obj 109 30 bng 15 250 50 0 empty empty empty 17 7 0 10 -262144 -1
-1;
#X obj 116 139 0;
#X obj 227 247 + 1;
#X connect 0 0 1 0;
#X connect 0 1 15 0;
#X connect 1 0 2 0;
#X connect 2 0 3 0;
#X connect 3 0 4 0;
#X connect 3 0 8 0;
#X connect 4 0 3 1;
#X connect 5 0 0 0;
#X connect 6 0 7 0;
#X connect 7 0 12 0;
#X connect 7 0 13 0;
#X connect 8 0 11 0;
#X connect 8 1 16 0;
#X connect 9 0 10 0;
#X connect 10 0 5 0;
#X connect 11 0 6 0;
#X connect 14 0 5 0;
#X connect 15 0 3 1;
#X connect 16 0 6 1;
#X restore 509 313 pd delVol;
#X obj 167 74 bng 15 250 50 0 empty empty empty 17 7 0 10 -262144 -1
-1;
#X obj 456 80 del 100;
#X obj 625 151 bng 15 250 50 0 empty empty empty 17 7 0 10 -262144
-1 -1;
#X connect 0 0 1 0;
#X connect 2 0 0 0;
#X connect 3 0 4 0;
#X connect 5 0 13 0;
#X connect 6 0 8 0;
#X connect 6 1 3 0;
#X connect 8 0 7 0;
#X connect 8 1 9 0;
#X connect 8 2 10 0;
#X connect 8 3 11 0;
#X connect 12 0 0 0;
#X connect 13 0 6 0;
#X connect 14 0 3 0;
#X restore 423 476 pd save-and-start;
#N canvas 684 72 742 685 knob2 0;
#X obj 290 159 r \$0-on;
#X obj 108 296 list prepend 1;
#X obj 108 320 list trim;
#X obj 108 374 t a a;
#X obj 203 269 + 1;
#X obj 249 411 unpack;
#X obj 109 227 t a a;
#X obj 109 30 r knob2;
#X obj 109 176 * 32;
#X obj 109 200 i;
#X obj 287 456 tabwrite \$0-k2-edit;
#X obj 439 340 s screenLine2;
#X msg 439 298 2: delTime: \$1%;
#X msg 108 462 \; \$1-delTime \$2;
#X obj 141 103 v edit-mode;
#X obj 109 73 t a b;
#X obj 109 143 spigot;
#X obj 439 241 tabread \$0-k2-edit;
#X obj 290 187 t a a a;
#X connect 0 0 18 0;
#X connect 1 0 2 0;
#X connect 2 0 3 0;
#X connect 3 0 13 0;
#X connect 3 1 5 0;
#X connect 4 0 1 1;
#X connect 5 1 10 0;
#X connect 6 0 1 0;
#X connect 6 1 12 0;
#X connect 7 0 15 0;
#X connect 8 0 9 0;
#X connect 9 0 6 0;
#X connect 12 0 11 0;
#X connect 14 0 16 1;
#X connect 15 0 16 0;
#X connect 15 1 14 0;
#X connect 16 0 8 0;
#X connect 17 0 12 0;
#X connect 18 0 4 0;
#X connect 18 1 10 1;
#X connect 18 2 17 0;
#X restore 336 157 pd knob2;
#N canvas 586 142 742 451 knob3 0;
#X obj 341 60 r \$0-on;
#X obj 108 246 list prepend 1;
#X obj 108 270 list trim;
#X obj 108 324 t a a;
#X obj 203 219 + 1;
#X obj 249 361 unpack;
#X obj 109 177 t a a;
#X obj 421 177 * 100;
#X obj 421 201 i;
#X obj 109 30 r knob3;
#X msg 421 229 3: delFb: \$1%;
#X msg 108 412 \; \$1-delFb \$2;
#X obj 287 406 tabwrite \$0-k3-edit;
#X obj 422 272 s screenLine3;
#X obj 142 99 v edit-mode;
#X obj 110 69 t a b;
#X obj 110 139 spigot;
#X obj 341 86 t a a a;
#X obj 416 127 tabread \$0-k3-edit;
#X connect 0 0 17 0;
#X connect 1 0 2 0;
#X connect 2 0 3 0;
#X connect 3 0 11 0;
#X connect 3 1 5 0;
#X connect 4 0 1 1;
#X connect 5 1 12 0;
#X connect 6 0 1 0;
#X connect 6 1 7 0;
#X connect 7 0 8 0;
#X connect 8 0 10 0;
#X connect 9 0 15 0;
#X connect 10 0 13 0;
#X connect 14 0 16 1;
#X connect 15 0 16 0;
#X connect 15 1 14 0;
#X connect 16 0 6 0;
#X connect 17 0 4 0;
#X connect 17 1 12 1;
#X connect 17 2 18 0;
#X connect 18 0 7 0;
#X restore 339 211 pd knob3;
#N canvas 598 101 742 451 knob4 0;
#X obj 367 83 r \$0-on;
#X obj 108 246 list prepend 1;
#X obj 108 270 list trim;
#X obj 108 324 t a a;
#X obj 203 219 + 1;
#X obj 249 361 unpack;
#X obj 109 157 t a a;
#X obj 460 248 * 100;
#X obj 460 272 i;
#X obj 109 201 pow 2;
#X obj 287 406 tabwrite \$0-k4-edit;
#X obj 462 341 s screenLine4;
#X msg 461 300 4: delVol: \$1%;
#X obj 112 24 r knob4;
#X msg 108 392 \; \$1-delVol \$2;
#X obj 144 83 v edit-mode;
#X obj 112 53 t a b;
#X obj 112 123 spigot;
#X obj 368 107 t b a a a;
#X obj 446 145 tabread \$0-k4-edit;
#X obj 446 169 sqrt;
#X connect 0 0 18 0;
#X connect 1 0 2 0;
#X connect 2 0 3 0;
#X connect 3 0 14 0;
#X connect 3 1 5 0;
#X connect 4 0 1 1;
#X connect 5 1 10 0;
#X connect 6 0 9 0;
#X connect 6 1 7 0;
#X connect 7 0 8 0;
#X connect 8 0 12 0;
#X connect 9 0 1 0;
#X connect 12 0 11 0;
#X connect 13 0 16 0;
#X connect 15 0 17 1;
#X connect 16 0 17 0;
#X connect 16 1 15 0;
#X connect 17 0 6 0;
#X connect 18 1 4 0;
#X connect 18 2 10 1;
#X connect 18 3 19 0;
#X connect 19 0 20 0;
#X connect 20 0 7 0;
#X restore 338 282 pd knob4;
#N canvas 428 254 450 300 hold-aux 0;
#X obj 43 27 r aux;
#X obj 43 51 j-detect-hold 1000;
#X obj 43 144 s cancel-all;
#X obj 181 144 v edit-mode;
#X obj 182 168 == 0;
#X obj 182 232 v edit-mode;
#X text 281 146 toggle edit mode;
#X obj 249 200 s edit-mode-action;
#X obj 182 192 t a a;
#X connect 0 0 1 0;
#X connect 1 0 2 0;
#X connect 1 1 3 0;
#X connect 3 0 4 0;
#X connect 4 0 8 0;
#X connect 8 0 5 0;
#X connect 8 1 7 0;
#X restore 308 21 pd hold-aux;
#X obj 50 339 r edit-mode-action;
#X obj 99 124 v edit-mode;
#X obj 60 92 t a b;
#X obj 50 363 sel 0 1, f 33;
#X obj 242 471 s screenLine5;
#X msg 242 440 Editing Sample \$1;
#X obj 329 352 r \$0-on;
#X obj 50 387 t b b;
#X msg 105 424 _;
#X obj 321 392 + 1;
#X obj 140 471 0;
#X obj 76 477 1;
#X connect 1 0 2 0;
#X connect 2 0 9 0;
#X connect 9 0 23 0;
#X connect 10 0 8 0;
#X connect 21 0 24 0;
#X connect 22 0 10 1;
#X connect 23 0 10 0;
#X connect 23 1 22 0;
#X connect 24 0 28 0;
#X connect 24 1 26 0;
#X connect 24 1 31 0;
#X connect 26 0 25 0;
#X connect 27 0 30 0;
#X connect 28 0 32 0;
#X connect 28 1 29 0;
#X connect 29 0 25 0;
#X connect 30 0 26 0;
#X connect 31 0 11 0;
#X connect 32 0 11 0;
#X restore 376 106 pd delay-amounts;
#X connect 0 0 2 0;
#X connect 2 0 3 0;
#X connect 4 0 6 0;
#X connect 5 0 7 0;
#X connect 8 0 6 0;
#X connect 9 0 7 0;
