#N canvas 4 50 1103 830 12;
#X obj 232 343 osc~;
#X obj 232 541 *~, f 16;
#X obj 187 39 inlet;
#X obj 251 771 outlet~;
#X obj 232 368 *~ 0.15;
#X obj 396 489 random 100;
#X obj 396 513 / 100;
#X obj 319 773 outlet~;
#X obj 396 537 t a a, f 13;
#X obj 396 569 swap 1;
#X obj 396 593 -;
#X obj 396 617 sqrt;
#X obj 480 612 sqrt;
#X obj 239 715 *~;
#X obj 328 724 *~;
#X obj 875 527 1;
#X obj 414 67 t b b b b b b, f 78;
#X obj 811 499 del;
#X obj 811 523 0;
#X msg 846 456 stop;
#X obj 806 419 t b b;
#X obj 342 480 vline~;
#X obj 342 504 *~;
#X obj 345 241 / 127;
#X obj 529 193 t b b;
#X obj 654 308 t a a;
#X obj 349 297 t b a;
#X obj 344 332 i 0;
#X obj 396 641 pack 0 10;
#X obj 396 665 line~;
#X obj 480 653 pack 0 10;
#X obj 480 677 line~;
#X obj 345 265 sqrt;
#X obj 187 63 stripnote;
#X obj 129 175 vline~;
#X obj 129 199 *~;
#X obj 234 157 t b f b;
#X obj 373 166 line~;
#X obj 373 138 pack 0 10;
#X obj 232 225 *~;
#X obj 430 213 line~;
#X obj 430 185 pack 0 10;
#X obj 232 251 +~;
#X obj 654 284 + 3;
#X obj 630 123 random 500;
#X obj 735 127 random 3000;
#X obj 631 147 + 300;
#X obj 736 151 + 600;
#X msg 115 131 1 1 \, 0 1 1;
#X obj 455 332 pack 0 3;
#X obj 493 411 pack 0 0 3;
#X obj 654 258 random 5;
#X connect 0 0 4 0;
#X connect 1 0 13 0;
#X connect 1 0 14 0;
#X connect 2 0 33 0;
#X connect 4 0 1 0;
#X connect 5 0 6 0;
#X connect 6 0 8 0;
#X connect 8 0 9 0;
#X connect 8 1 12 0;
#X connect 9 0 10 0;
#X connect 9 1 10 1;
#X connect 10 0 11 0;
#X connect 11 0 28 0;
#X connect 12 0 30 0;
#X connect 13 0 3 0;
#X connect 14 0 7 0;
#X connect 16 0 5 0;
#X connect 16 1 24 0;
#X connect 16 2 44 0;
#X connect 16 3 45 0;
#X connect 16 4 20 0;
#X connect 16 5 15 0;
#X connect 17 0 18 0;
#X connect 19 0 17 0;
#X connect 20 0 17 0;
#X connect 20 1 19 0;
#X connect 21 0 22 0;
#X connect 21 0 22 1;
#X connect 22 0 1 1;
#X connect 23 0 32 0;
#X connect 24 1 51 0;
#X connect 25 0 50 1;
#X connect 25 1 17 1;
#X connect 26 0 27 0;
#X connect 26 1 49 0;
#X connect 27 0 50 0;
#X connect 28 0 29 0;
#X connect 29 0 13 1;
#X connect 30 0 31 0;
#X connect 31 0 14 1;
#X connect 32 0 26 0;
#X connect 33 1 36 0;
#X connect 34 0 35 0;
#X connect 34 0 35 1;
#X connect 35 0 39 0;
#X connect 36 0 48 0;
#X connect 36 1 23 0;
#X connect 36 2 16 0;
#X connect 37 0 39 1;
#X connect 38 0 37 0;
#X connect 39 0 42 0;
#X connect 40 0 42 1;
#X connect 41 0 40 0;
#X connect 42 0 0 0;
#X connect 43 0 25 0;
#X connect 44 0 46 0;
#X connect 45 0 47 0;
#X connect 46 0 38 0;
#X connect 47 0 41 0;
#X connect 48 0 34 0;
#X connect 49 0 21 0;
#X connect 50 0 21 0;
#X connect 51 0 43 0;
