#N canvas 145 109 914 596 12;
#X obj 218 508 del-bpm globBpm;
#X obj 151 14 inlet;
#N canvas 397 93 721 572 set-up 0;
#X obj 58 11 inlet;
#X msg 59 211 \$1-howdy-L;
#X msg 200 212 \$1-howdy-R;
#X obj 59 235 list prepend readL;
#X obj 271 335 list trim;
#X obj 329 377 outlet;
#X obj 200 236 list prepend readR;
#X text 105 7 float;
#X obj 343 233 list prepend sample;
#X obj 360 192 array size;
#X msg 427 144 symbol \$1-howdy-L;
#X obj 360 123 t b a;
#X obj 508 247 v;
#X msg 526 219 symbol \$1-howdy-stereo;
#X obj 508 186 t b a;
#X obj 58 43 t a a a a b, f 65;
#X obj 508 271 list prepend stereo;
#X msg 480 346 size 1;
#X connect 0 0 15 0;
#X connect 1 0 3 0;
#X connect 2 0 6 0;
#X connect 3 0 4 0;
#X connect 4 0 5 0;
#X connect 6 0 4 0;
#X connect 8 0 4 0;
#X connect 9 0 8 0;
#X connect 10 0 9 1;
#X connect 11 0 9 0;
#X connect 11 1 10 0;
#X connect 12 0 16 0;
#X connect 13 0 12 1;
#X connect 14 0 12 0;
#X connect 14 1 13 0;
#X connect 15 0 1 0;
#X connect 15 1 2 0;
#X connect 15 2 11 0;
#X connect 15 3 14 0;
#X connect 15 4 17 0;
#X connect 16 0 4 0;
#X connect 17 0 5 0;
#X restore 323 278 pd set-up;
#X obj 149 417 *~;
#X obj 322 342 / 127;
#X obj 322 366 lop~ 2000;
#X obj 230 418 *~;
#X obj 149 597 throw~ samples-bus-L;
#X obj 319 606 throw~ samples-bus-R;
#X text 433 14 Arg1: sample number;
#X obj 323 128 f \$1;
#X obj 151 48 t a b;
#X obj 366 415 r \$1-delTime;
#X obj 383 448 r \$1-delFb;
#X obj 52 357 lop~ 45;
#X obj 149 447 *~;
#X obj 229 454 *~;
#X obj 52 309 r \$1-vol;
#X obj 489 501 lop~ 45;
#X obj 317 535 *~;
#X obj 218 532 *~;
#X obj 489 450 r \$1-delVol;
#X obj 489 474 clip 0 1;
#X obj 52 333 clip 0 1;
#X obj 323 152 - 12;
#X obj 471 171 r globalSpeed;
#X msg 479 291 pitch \$1;
#X obj 126 79 sel 0;
#X obj 323 182 change -1;
#X obj 150 311 j-sample~ 1, f 25;
#X obj 163 116 t b;
#X msg 194 246 100;
#X obj 69 176 r cancel-all;
#X obj 69 200 t b;
#X obj 69 224 0;
#X connect 0 0 20 0;
#X connect 0 1 19 0;
#X connect 1 0 11 0;
#X connect 2 0 29 1;
#X connect 3 0 15 0;
#X connect 4 0 5 0;
#X connect 5 0 3 1;
#X connect 5 0 6 1;
#X connect 6 0 16 0;
#X connect 10 0 24 0;
#X connect 11 0 27 0;
#X connect 11 1 10 0;
#X connect 12 0 0 2;
#X connect 13 0 0 3;
#X connect 14 0 15 1;
#X connect 14 0 16 1;
#X connect 15 0 7 0;
#X connect 15 0 0 0;
#X connect 16 0 8 0;
#X connect 16 0 0 1;
#X connect 17 0 23 0;
#X connect 18 0 19 1;
#X connect 18 0 20 1;
#X connect 19 0 8 0;
#X connect 20 0 7 0;
#X connect 21 0 22 0;
#X connect 22 0 18 0;
#X connect 23 0 14 0;
#X connect 24 0 28 0;
#X connect 25 0 26 0;
#X connect 26 0 29 1;
#X connect 27 1 30 0;
#X connect 28 0 2 0;
#X connect 29 0 3 0;
#X connect 29 1 6 0;
#X connect 29 2 4 0;
#X connect 30 0 31 0;
#X connect 31 0 29 0;
#X connect 32 0 33 0;
#X connect 33 0 34 0;
#X connect 34 0 29 0;
