#N canvas 145 109 914 596 12;
#X obj 218 508 del-bpm globBpm;
#X obj 151 14 inlet;
#X obj 149 417 *~;
#X obj 322 342 / 127;
#X obj 322 366 lop~ 2000;
#X obj 230 418 *~;
#X obj 149 597 throw~ samples-bus-L;
#X obj 319 606 throw~ samples-bus-R;
#X text 433 14 Arg1: sample number;
#X obj 323 128 f \$1;
#X obj 151 48 t a b;
#X obj 366 415 r \$1-delTime;
#X obj 383 448 r \$1-delFb;
#X obj 52 357 lop~ 45;
#X obj 149 447 *~;
#X obj 229 454 *~;
#X obj 52 309 r \$1-vol;
#X obj 489 501 lop~ 45;
#X obj 317 535 *~;
#X obj 218 532 *~;
#X obj 489 450 r \$1-delVol;
#X obj 489 474 clip 0 1;
#X obj 52 333 clip 0 1;
#X obj 323 152 - 12;
#X obj 488 164 r globalSpeed;
#X msg 502 249 pitch \$1;
#X obj 323 182 change -1;
#X obj 150 311 j-sample~ 1, f 25;
#X obj 69 176 r cancel-all;
#X obj 69 200 t b;
#X obj 69 224 0;
#X obj 323 278 j-sample-setup howdy;
#X obj 169 136 sel 0;
#X obj 218 227 100;
#X obj 222 186 t b;
#X connect 0 0 19 0;
#X connect 0 1 18 0;
#X connect 1 0 10 0;
#X connect 2 0 14 0;
#X connect 3 0 4 0;
#X connect 4 0 2 1;
#X connect 4 0 5 1;
#X connect 5 0 15 0;
#X connect 9 0 23 0;
#X connect 10 0 32 0;
#X connect 10 1 9 0;
#X connect 11 0 0 2;
#X connect 12 0 0 3;
#X connect 13 0 14 1;
#X connect 13 0 15 1;
#X connect 14 0 6 0;
#X connect 14 0 0 0;
#X connect 15 0 7 0;
#X connect 15 0 0 1;
#X connect 16 0 22 0;
#X connect 17 0 18 1;
#X connect 17 0 19 1;
#X connect 18 0 7 0;
#X connect 19 0 6 0;
#X connect 20 0 21 0;
#X connect 21 0 17 0;
#X connect 22 0 13 0;
#X connect 23 0 26 0;
#X connect 24 0 25 0;
#X connect 25 0 27 1;
#X connect 26 0 31 0;
#X connect 27 0 2 0;
#X connect 27 1 5 0;
#X connect 27 2 3 0;
#X connect 28 0 29 0;
#X connect 29 0 30 0;
#X connect 30 0 27 0;
#X connect 31 0 27 1;
#X connect 32 1 34 0;
#X connect 33 0 27 0;
#X connect 34 0 33 0;
