#N canvas 731 81 914 963 12;
#X obj 151 14 inlet;
#X obj 149 517 *~;
#X obj 322 442 / 127;
#X obj 322 466 lop~ 2000;
#X obj 230 518 *~;
#X text 433 14 Arg1: sample number;
#X obj 301 63 f \$1;
#X obj 366 515 r \$1-delTime;
#X obj 383 548 r \$1-delFb;
#X obj 52 357 lop~ 45;
#X obj 149 547 *~;
#X obj 229 554 *~;
#X obj 52 309 r \$1-vol;
#X obj 489 601 lop~ 45;
#X obj 317 635 *~;
#X obj 218 632 *~;
#X obj 489 550 r \$1-delVol;
#X obj 489 574 clip 0 1;
#X obj 52 333 clip 0 1;
#X obj 301 87 - 12;
#X obj 69 176 r cancel-all;
#X obj 69 200 t b;
#X obj 69 224 0;
#X obj 301 123 j-sample-setup howdy;
#X obj 169 136 sel 0;
#X obj 489 114 r \$1-speed;
#X obj 632 181 r \$1-att;
#X obj 761 183 r \$1-dur;
#X obj 489 291 list trim;
#X obj 149 837 throw~ samples-bus-L;
#X obj 319 846 throw~ samples-bus-R;
#X obj 149 757 *~;
#X obj 320 766 *~;
#X obj 599 619 sqrt;
#X obj 599 564 swap 1;
#X obj 599 588 -;
#X obj 599 518 t a a, f 9;
#X obj 680 623 sqrt;
#X obj 599 643 pack 0 10;
#X obj 599 667 line~;
#X obj 678 649 pack 0 10;
#X obj 678 673 line~;
#X obj 599 432 r \$1-pan;
#X obj 218 608 del-bpm main-bpm;
#X obj 150 271 j-play-array~ 1, f 25;
#X obj 201 193 i 100;
#X obj 254 407 j-play-array~ 1, f 25;
#X obj 489 325 t a a;
#X obj 761 219 list prepend chunk;
#X obj 632 216 list prepend in;
#X obj 489 213 list prepend speed;
#X obj 201 164 t b b;
#X obj 151 48 t a;
#X obj 201 218 t a a a;
#X obj 254 373 spigot 0, f 13;
#X obj 233 464 *~;
#X obj 196 423 t a a;
#X obj 172 480 *~;
#X obj 196 456 == 0;
#X connect 0 0 52 0;
#X connect 1 0 10 0;
#X connect 2 0 3 0;
#X connect 3 0 1 1;
#X connect 3 0 4 1;
#X connect 4 0 11 0;
#X connect 6 0 19 0;
#X connect 7 0 43 2;
#X connect 8 0 43 3;
#X connect 9 0 10 1;
#X connect 9 0 11 1;
#X connect 10 0 31 0;
#X connect 10 0 43 0;
#X connect 11 0 32 0;
#X connect 11 0 43 1;
#X connect 12 0 18 0;
#X connect 13 0 14 1;
#X connect 13 0 15 1;
#X connect 14 0 32 0;
#X connect 15 0 31 0;
#X connect 16 0 17 0;
#X connect 17 0 13 0;
#X connect 18 0 9 0;
#X connect 19 0 23 0;
#X connect 20 0 21 0;
#X connect 21 0 22 0;
#X connect 22 0 53 0;
#X connect 23 0 44 1;
#X connect 23 1 46 1;
#X connect 23 2 54 1;
#X connect 23 2 56 0;
#X connect 24 1 51 0;
#X connect 25 0 50 0;
#X connect 26 0 49 0;
#X connect 27 0 48 0;
#X connect 28 0 47 0;
#X connect 31 0 29 0;
#X connect 32 0 30 0;
#X connect 33 0 38 0;
#X connect 34 0 35 0;
#X connect 34 1 35 1;
#X connect 35 0 33 0;
#X connect 36 0 34 0;
#X connect 36 1 37 0;
#X connect 37 0 40 0;
#X connect 38 0 39 0;
#X connect 39 0 31 1;
#X connect 40 0 41 0;
#X connect 41 0 32 1;
#X connect 42 0 36 0;
#X connect 43 0 15 0;
#X connect 43 1 14 0;
#X connect 44 0 1 0;
#X connect 44 0 57 0;
#X connect 45 0 53 0;
#X connect 46 0 55 0;
#X connect 47 0 44 1;
#X connect 47 1 46 1;
#X connect 48 0 28 0;
#X connect 49 0 28 0;
#X connect 50 0 28 0;
#X connect 51 0 45 0;
#X connect 51 1 6 0;
#X connect 52 0 24 0;
#X connect 53 0 44 0;
#X connect 53 1 54 0;
#X connect 53 2 2 0;
#X connect 54 0 46 0;
#X connect 55 0 4 0;
#X connect 56 0 58 0;
#X connect 56 1 55 1;
#X connect 57 0 4 0;
#X connect 58 0 57 1;
