#N canvas 145 109 914 596 12;
#X obj 218 428 del-bpm globBpm;
#X obj 151 14 inlet;
#N canvas 397 93 721 572 set-up 0;
#X obj 58 11 inlet;
#X msg 59 211 \$1-howdy-L;
#X msg 200 212 \$1-howdy-R;
#X obj 59 235 list prepend readL;
#X obj 271 335 list trim;
#X obj 329 377 outlet;
#X obj 200 236 list prepend readR;
#X text 105 7 float;
#X obj 343 233 list prepend sample;
#X obj 360 192 array size;
#X msg 427 144 symbol \$1-howdy-L;
#X obj 360 123 t b a;
#X msg 607 122 switch 1;
#X obj 508 247 v;
#X msg 526 219 symbol \$1-howdy-stereo;
#X obj 508 186 t b a;
#X obj 58 43 t a a a a b, f 65;
#X obj 508 271 list prepend stereo;
#X connect 0 0 16 0;
#X connect 1 0 3 0;
#X connect 2 0 6 0;
#X connect 3 0 4 0;
#X connect 4 0 5 0;
#X connect 6 0 4 0;
#X connect 8 0 4 0;
#X connect 9 0 8 0;
#X connect 10 0 9 1;
#X connect 11 0 9 0;
#X connect 11 1 10 0;
#X connect 12 0 5 0;
#X connect 13 0 17 0;
#X connect 14 0 13 1;
#X connect 15 0 13 0;
#X connect 15 1 14 0;
#X connect 16 0 1 0;
#X connect 16 1 2 0;
#X connect 16 2 11 0;
#X connect 16 3 15 0;
#X connect 16 4 12 0;
#X connect 17 0 4 0;
#X restore 323 188 pd set-up;
#X obj 149 337 *~;
#X obj 322 262 / 127;
#X obj 322 286 lop~ 2000;
#X obj 150 231 j-sample~, f 25;
#X obj 230 338 *~;
#X obj 149 517 throw~ samples-bus-L;
#X obj 319 526 throw~ samples-bus-R;
#X text 433 14 Arg1: sample number;
#X obj 323 128 f \$1;
#X obj 151 78 t a b;
#X obj 151 38 route \$1;
#X obj 323 152 change -1;
#X obj 366 335 r \$1-delTime;
#X obj 383 368 r \$1-delFb;
#X obj 52 277 lop~ 45;
#X obj 149 367 *~;
#X obj 229 374 *~;
#X obj 52 229 r \$1-vol;
#X obj 489 421 lop~ 45;
#X obj 317 455 *~;
#X obj 218 452 *~;
#X obj 489 370 r \$1-delVol;
#X obj 489 394 clip 0 1;
#X obj 52 253 clip 0 1;
#X connect 0 0 23 0;
#X connect 0 1 22 0;
#X connect 1 0 13 0;
#X connect 2 0 6 1;
#X connect 3 0 18 0;
#X connect 4 0 5 0;
#X connect 5 0 3 1;
#X connect 5 0 7 1;
#X connect 6 0 3 0;
#X connect 6 1 7 0;
#X connect 6 2 4 0;
#X connect 7 0 19 0;
#X connect 11 0 14 0;
#X connect 12 0 6 0;
#X connect 12 1 11 0;
#X connect 13 0 12 0;
#X connect 14 0 2 0;
#X connect 15 0 0 2;
#X connect 16 0 0 3;
#X connect 17 0 18 1;
#X connect 17 0 19 1;
#X connect 18 0 8 0;
#X connect 18 0 0 0;
#X connect 19 0 9 0;
#X connect 19 0 0 1;
#X connect 20 0 26 0;
#X connect 21 0 22 1;
#X connect 21 0 23 1;
#X connect 22 0 9 0;
#X connect 23 0 8 0;
#X connect 24 0 25 0;
#X connect 25 0 21 0;
#X connect 26 0 17 0;
