#N canvas 4 50 848 632 12;
#X obj 345 295 del-bpm globBpm;
#X obj 249 445 throw~ synths-bus-L;
#X obj 305 414 throw~ synths-bus-R;
#X obj 478 51 lop~ 50;
#X obj 483 83 clip~ 0 1;
#X obj 238 183 *~;
#X obj 240 13 inlet~;
#X obj 314 10 inlet~;
#X obj 343 168 *~;
#X obj 346 320 *~;
#X obj 478 27 r \$1-vol;
#X obj 415 201 r \$1-delTime;
#X obj 447 234 r \$1-delFb;
#X obj 555 287 lop~ 50;
#X obj 555 257 clip 0 1;
#X obj 445 322 *~;
#X obj 555 233 r \$1-delVol;
#X connect 0 0 9 0;
#X connect 0 1 15 0;
#X connect 3 0 4 0;
#X connect 4 0 5 1;
#X connect 4 0 8 1;
#X connect 5 0 0 0;
#X connect 5 0 1 0;
#X connect 6 0 5 0;
#X connect 7 0 8 0;
#X connect 8 0 0 1;
#X connect 8 0 2 0;
#X connect 9 0 1 0;
#X connect 10 0 3 0;
#X connect 11 0 0 2;
#X connect 12 0 0 3;
#X connect 13 0 15 1;
#X connect 13 0 9 1;
#X connect 14 0 13 0;
#X connect 15 0 2 0;
#X connect 16 0 14 0;
