#N canvas 794 162 1011 748 12;
#X obj 494 35 lop~ 50;
#X obj 495 67 clip~ 0 1;
#X obj 238 183 *~;
#X obj 240 13 inlet~;
#X obj 314 10 inlet~;
#X obj 343 168 *~;
#X obj 346 320 *~;
#X obj 494 11 r \$1-vol;
#X obj 459 158 r \$1-delTime;
#X obj 496 191 r \$1-delFb;
#X obj 555 287 lop~ 50;
#X obj 555 257 clip 0 1;
#X obj 445 322 *~;
#X obj 555 233 r \$1-delVol;
#X obj 387 252 del-bpm main-bpm;
#X obj 721 355 sqrt;
#X obj 721 300 swap 1;
#X obj 721 324 -;
#X obj 721 254 t a a, f 9;
#X obj 802 359 sqrt;
#X obj 721 379 pack 0 10;
#X obj 721 403 line~;
#X obj 800 385 pack 0 10;
#X obj 800 409 line~;
#X obj 721 168 r \$1-pan;
#X obj 250 512 throw~ synths-bus-L;
#X obj 405 510 throw~ synths-bus-R;
#X obj 249 445 *~;
#X obj 404 473 *~;
#X obj 625 109 r \$1-speed;
#X obj 615 154 r \$1-dur;
#X obj 624 75 r \$1-att;
#X connect 0 0 1 0;
#X connect 1 0 2 1;
#X connect 1 0 5 1;
#X connect 2 0 14 0;
#X connect 2 0 27 0;
#X connect 3 0 2 0;
#X connect 4 0 5 0;
#X connect 5 0 14 1;
#X connect 5 0 28 0;
#X connect 6 0 27 0;
#X connect 7 0 0 0;
#X connect 8 0 14 2;
#X connect 9 0 14 3;
#X connect 10 0 12 1;
#X connect 10 0 6 1;
#X connect 11 0 10 0;
#X connect 12 0 28 0;
#X connect 13 0 11 0;
#X connect 14 0 6 0;
#X connect 14 1 12 0;
#X connect 15 0 20 0;
#X connect 16 0 17 0;
#X connect 16 1 17 1;
#X connect 17 0 15 0;
#X connect 18 0 16 0;
#X connect 18 1 19 0;
#X connect 19 0 22 0;
#X connect 20 0 21 0;
#X connect 21 0 27 1;
#X connect 22 0 23 0;
#X connect 23 0 28 1;
#X connect 24 0 18 0;
#X connect 27 0 25 0;
#X connect 28 0 26 0;
